<mxfile host="65bd71144e">
    <diagram id="DfrgO6HlzqtURvE7vUiF" name="Page-1">
        <mxGraphModel dx="1136" dy="590" grid="1" gridSize="10" guides="1" tooltips="1" connect="1" arrows="1" fold="1" page="1" pageScale="1" pageWidth="850" pageHeight="1100" math="0" shadow="0">
            <root>
                <mxCell id="0"/>
                <mxCell id="1" parent="0"/>
                <mxCell id="2" value="" style="shape=mxgraph.cisco.people.androgenous_person;html=1;pointerEvents=1;dashed=0;fillColor=#036897;strokeColor=#ffffff;strokeWidth=2;verticalLabelPosition=bottom;verticalAlign=top;align=center;outlineConnect=0;" parent="1" vertex="1">
                    <mxGeometry x="70" y="432" width="69" height="82" as="geometry"/>
                </mxCell>
                <mxCell id="3" value="" style="dashed=0;outlineConnect=0;html=1;align=center;labelPosition=center;verticalLabelPosition=bottom;verticalAlign=top;shape=mxgraph.weblogos.github" parent="1" vertex="1">
                    <mxGeometry x="52" y="210.25" width="75" height="75" as="geometry"/>
                </mxCell>
                <mxCell id="6" value="" style="shape=image;verticalLabelPosition=bottom;labelBackgroundColor=default;verticalAlign=top;aspect=fixed;imageAspect=0;image=data:image/webp,UklGRhalAABXRUJQVlA4TAqlAAAvz8fzEd8HObbtts17AJTVmftfe5uzDZIg/r9tQIwkyZFSPf+P1mCAdBaHcAUDtOa12p1piI0kKZKyZuHYnPffivfgmBl2t7vg2La1PDlRHB7uEE8q3EodQXoWQ8hYWAyB0q3W3rV0i1/cIQRk5b+MBKLw0SGboYPCoiMKHw1IkJCMhGRZc2sMkngEy4GEEhRmJZlFwjJSFF1UokSAQI+ueHQpJ/KSxIB2JMNYxYYx7xRGiugGpygpC9++NSQXDl+UoWxb22fbIkEGCiHAxiCBz2IfkECyhHk0CZYUlqW8hY9kWOUpZGUglaVK9dNDetfWvbc+2Revet/r5Xrg0mPN/xo4U7ndchJqbprOfUY2fxyHzU6pUdIoXjA6Dho1dTzjctXgwyS3il89qzCycpETG5/6MizNg68mYWZAcBFAaHiFVDiGdncdQ6+TwfBd4DZxctJFN3628r0QmU6y/7Ap79+7z0LoksPDVehXV+l8/1S0bf8ZUxWAkpt+9YdBmY39X/O2ji8xDOfwRbfIIwGpmrmpzAzDbwh/fFHp8yiYGZpZ20JD3RGiUnX12LBO69J53y8ZU9WcaTBjaiPTBuPCU0RpMFv65NMNdXvm9+icTPfROf3KanHoTQIGGSQh2TIAUoLDcCGQsLBUgn+ZRyyVCsXQmtZ5AqIIJMnaqMGYwACr1FR6TpiiUjmNr2iuaZ8LBBbYh3OJSMk8CiRVovLCisTREzvG5WCMY3IbB38vHX/PHctPzxgH6zj+x2RwjEmwfPX8f/Ro3FJV574nt6rnxXImnqa/j4f/X5frrPn6O619be7jM/thrKZ1+CRHLw5arP89tiNf/9ff78nN+TO5O/8Wz/TsQ+3T+/Z/tO6sL9+xt++D8+HhDyspbtvGkbL/1rlevxExAXhSitLcxPZO+8CYF7OygBVbG9rHWRkaxZ2IoOjAUtWhbfMdjDiXPEVxa2qMujQ//v9my0lsxYwQqAoJmAkqCVFSoSojIbRUOkVCkjZTTwydoOR0ekLJVeCAijL5whgV44A4Iqg9AJ5Agj16RpniwXsP9uTp0PPoVbobiaB98bZ/1rjXs57f9/fs53lyb+2hdu2hdq29a++qWrXW2rUj+q+BttWwra1tgw4SAnTH9/d/TR0LyW6ajIFL/v+4jSTdrJ97lrusF6kDzHvvna7es/1eywnmBuvTnMEpyxL5/SOVGfgHApkCBYIGC21XBjkMBBHRf1mQbYVtc7AiCT2ROs2MZATvPRDKh2/X2h65zbYNVtg9m6t3vm9n3lEJorMJb4ENaunOOd/745xa3IAgU5DutarjOK6rSuzrotZ4+lQTRdw0T9i8KaILTSmi/5Jo24kbSa62jRDi4401YOyeNpNOOaf/3384/3H+4/zH+Y/zH+c/zn+c/zj/cf7j/Mf5j/Mf5z/Of5z/OP9x/uP8x/mP8x/nP85/nP84/3H+4/zH+Y/zH+c/zn+c/zj/cf7j/Mf5j/Mf5z/Of5z/OP9x/uP8x/mP8x/nP85/nP84/3H+4/zH+Y/zH+c/zn+c/zj/cf7j/Mf5j/Mf5z/Of5z/OP9x/uP8x/mP8x/nP85//j82sKsL7dzRK9W70KnN2F33y9u3jW3Jbd400p7duKFabftJMdTxH5jIZi8bGcnlto4VOh9hnNL7M395rJSLRtoT1WIgF1UT2aGRXGms7NdPif35vzxW6vLYISBCxUR2JCoVyqeePqKol8dyI0OxHgAg9Igiyp0C+oCiXhiLRhLVAAol2kc6Rsmcenk8v1AaGaoGyKjYPnSKZLiOeFHv8cCFGymV/VMXfUcSxQA0JYZyBf+USV+wxwhO+Tvyn/HHovZiwAtVs6fqHSLIlEsj1YAtKrZHp9SZZgqloR5teTOtn2p3NIBF06FcOXOqGvxOW6YpMTLmn3J2ZD/G0+24PUBQKp8qNgtubKQaKAO1n/J10L9cGioGykHt0SlaXZlyqadD+0rSpa22/VRPfQrTVbTUJsHHA/g/N29p2qkqXGefatGPX6ZBK2Xuj40UA1Wjn5RVH12ojxJBb3Qqd9h6DAf31S3s0lRQutVAKcnXv6memJjjqt8Rf6UTUa5Be6Z+fRdaEysVOuknwM2f+7IM2iZ3fwRG3C6PFlanVnit2WxLU35eB50pkpLJZD6fb8lmPS+V6vIIA0nXvDQll7tfKHQ+buh81NDxkEFKSp6Xz2ezXmpNvjB+Ktx5efVSe0CRxgv51EqvdZHDhw7SPqjo9pDi1DTFjho1TeHiVKo1G/uDB6KPKArjp44pylGV1FGA1mw66YOiZLolS2+UeRn0SUyRzOOH5IJ5PkhKNrV4a/KEwn35qaaKGV+fSsVyHABquAKZ+fAKKqaQT40m5/kcUMez+iQOEvxYm/ooeCexpjA62uuhADZcC6cunZVXryXkPRbQqy8/ri2p/PgpR0/hZ7a2S/r8fKsrp9nBfj5f6qfzf/zSTvnRjOdTrT378mmalde0/RSKqXPloaJ8tjGfasfpEYJxSReLKZ8icRo95aMB7D2XL+VIY6c4jJSRK49sIdWa9lWDmrIyHiA4hcE8U5ZIM573mub5qkLpjmfyT4kxL0dFqQ4HKA8lW1IF6cxPUTmPvtDjs/TK3VUdy5xqch59oceT5xWqqzVVOOVkLnymVpSjb1HSVzZKS3VuXvuY/W/fLsuxfeWjjonxMp2Td0qH/XheQJ+KP40/Uj9Vwz7vNfmqSelWWcK2l0+9sB9PCYurZGfmjUsS2ra3lyCu2lI+VZCicrk1HzpTSkgZNz454j9SP+Uh/Vwh1eQrNCWlUIyUT2WInfcW+F0ozlIkxk5ROPfOjflwKjl9btz9U/JOOYg93qlRe3JfUR2rn0IQe3zt4nlnxgPUmnf/JPtTA2KPl52kg4+/nsMfsccr9VrRdf+4UTFSt/ljF3t4rj7+UBTs/sp2t2qdmjiG0qvX2/qVjFux854YjfKfaO9uxa6vjY/GknkubhnJsq/sHCm6qomXFKmCPV8pt5N4sj7Omw0/Urfda+PeQj8+o6RXsN4rY27Uiv1NfjxHLWts9kqmVg3E09qVPR7fj7fNR+r2+an046titY+fn8EfqdvltX7n9vHwafbVWt0arxXX9WgfL5q7VRmzw2tv8JJ+PEr5lFsV+7u2pnf7uD90dczqro2P9jrHXQ+Ebt9lEddcnxYXn4Ze49Ip9pZwze3Y8WxolyoWcE3q2HF5cptqza6ueTHF1g9P4FfHrOlaf3OD30FapLLT1q3J8nR9XHxKnhU9xlhVcAK6csw1jXFKXi1j2a6rXhV98t1cP+6nZMpqHqPc7srJd1qmstNmrumCipU8Rn1E8FIvXU+l1ziVtppdfDL92q413VCxi8cQXVt8pp6gZMoedtpRdaGmiyq1jKV6+p0LNa1RsX+d6iMu1DRTZahunZ5+J76moSo1Wzen7BuW+B2kpyrVMXt0EALz3LXJCjEjVqhTRugg46Nu1+L0VVxt27Q2taL4jLK6q1LdZc3OdC+OJn1tQ17BlnWqCx1kXejrHEqmrNgxM0K98l02F6nRKiN1y9Wr655n9E+lYLeOWW93e6K7rjkhz2IdU6TXuNfgayTyxFZqdqpX1Ovpd3ptjGrZljz/7nIXT7/TRGNYp2NuFei1dpGvp6i1YJVOmau3u5hTViuNYZEqa0X3BtFOY1iiyh1VdwbRVk4WqDJzuUsz3bWgU3XMUtS6s+CL5nKyOpWZIXe8NJiTvancXnTFS485iVVamZPjevbSZU55G1NZEqft79FLTzqN1O1K7fhKv3fSj2NWyzaldl3o6ztqEqncbE1qY7nL/dpyzGrditQWxeeI13vLvdVsvrnuws+/033KS6xHZbno3vl3+nPMYslqzBLfH/r6kFoLFuOMuXJV3HWw+V1IvyqrY5YdLhc+OU7LKiOrbnZcQnSSeG2rtOesSm2itRpXWbPkRmsXrdW7yqFdVtxoorW6V1ndbr/NjhOt1cHKmu02mmit3lQOCxzM/htt3K257vpyhxVtY7bfDZjpF6rVpYu9RRk77VW3IGq04uiZGpWS620+q5Kwa2HrtoSbflaWbL0lWVe5tr66Dt0yzUjGxjN7w+IzNSwlUzaeVUn87DjdajVs21llRlyaHaelBxvJ2HRm5QVn6lzybDqrrW0MjFavzzo9nR4cbNQZ3CJOWbLk8sS/AdgdG5l52sS0qd1o8nVnzanonyx1mzM2XJ74/hCWJpdL9UpTqmc3nsJntUOQWXGVj4nOmJ5LxUjfPUdXVM5bb73lka+JMluAqpZyQt8d0D1T4Gu2Vio66JPdZ/RmEUOYcxo0j1XCxrKqV6Gv+tJZc8q/oiuskgVr7QJYtxehm+VSIui1mVPrrGqicteEwEsq9WvaZ9hNu+2zGKt86CU1+VeBOdQbM5XB2cG5QbAwCJYsnji/f8K/oHda5vd30ETnf16nfrBSyWQUe9jqLosqBvZF3HoYUoBDEQoyg7XZtdFgcf9A38BAc/FCd6hY7Osb6Ovv7/K4ojLYoL45bdq2W1Oz3bHnrhlLCaTrzgHw83+tNlpb7PcNNC+/UD4qDvT1nd8/Z7aaPaLwxIWwyBZlXVn34emgBeh8+DCxuK9YDIlQdWCg6wOKjILmkb9styV2hYttE74PTifM5lfIPX7I1EYXDww0h2Rp4IL+pZ3HCdRywtwuK+w+zFwMbE3W4ZRg+m6FTLy5tdrivo6D+SCo2BEuMbvSoDwT5sSFsJziw9//zEzRSBFwCWulJQNO45E+SjC7w9VqD1FuEzY9DhhywnGdzGLu6OiigeUX4qO+vsHE7FnKMmHO9lq6dSsDV8Q2nBJPvyrp6fKjEx2+UKna15+YXbHOQ1wuMAa+ttggsn33zHRMe+v5qD5g00HVqKy2uF4wO7vbhWWWxYYxFzD5tXId1+/ZFrppo4qF2GohxRcYA1yPC/QrUpyIVq/VFhdDTmjggsTsikKEsLPC76yKmu0OEeSMM12OBnBE1aWDqnDSfVJgShvralXW9aM+PqRStJr10dHF1ZA36utPKEHXavsqfElsDHSerjRdm8/e4+EABrv4D2Fb8U8JSxTPFb7rwllnmQXlYsgrLe8b5P55/JZLrKocdZsEFd9nC9edI7pvYnnIMzUP8n6+/TyLKvzujWJ+4Fl8JmNI/ZrIvsXVkHca6J9TsZ55l5ghCyWfNfyqqFnt5dj72D3kz3fY1eJGtH2KqPi8odjgHKMdz9MrBfUNJmbZyuF3tolZxg3pTKmcjIaZcguYuDiWej27wnJ464m3tYmKzx0qAw4g0RP1TCW6ScxuUJQQxR0203T3YrMPFdPdwZRYHRcsqobqQ/wqkgWrKYt8jaP7BTpDHseFHRpVoj5mFcm8xTRiTdSQYDHTJfSaaXZuuqWbRk8oPGuJN4keks9Q8zpOoVcyGpwdKAePWDf3VkjokFgN3f2nnmzqLa5yuVcUY8SNGesoGd2quo8Ybv4zujhUPir2nd3IZXjraNx6Quj8OLSGrv1TagkVkYovzM5YuFyvipwfx2PHHOfn3anXWXkKwTvtoVLt+ntt4LF5Wj5UTlreMZIqZJFv22kLlTd0uTvPTDZP79VCIUdqUIQRt9lBpXCe3xOYm/k+5dxQXWlwYJYa8Fb7ZeUXcb/YBh6bE+ULlZaaX8eceauwjDa2SxF3e555bJ7VPWeNyprz9gx++hJRbPuUi9D/LHeGqzGU9Rl8/kes2SxF3KU6sNicnAmVmfqGMtzzZnvlslWFZq/hz3jK+aFKU9/sCl9s8ySR3xaIIB7uhX9OUD2mrLLKe04e7wu3Xrbb9in8GUfdY6i1eaKR84w2G3fbOKWt3+cBwzn3htQ1Z9l7dg6PCbvMRSZFY4915Q49p8I52zblDYw8sTosOhedDnoC37NvlnkbE3xLf7kLEi0KVZ+KfbOtT97ObWkKW05zMNu9wyweoD5+VmdvFcb2TPqa9efxUjpofqzBIufT4/RNbpv0JaLY9itnnJ6euC6KqtX0rEGB/4vebfFvP5bKdbNj1ar7SfY8sx1TLp4LSjMj95qeKLrurIy4erfK/IneLHqoxQ8GzFTmFUSxtVeGp6e8XikSUuntJLvFcyeirk/Xn55ZdmE8Qn1zMtYl16ugy3DJ6yTxlbAlpl03VRdXm8P4hYqzMwyzjVfGOi1irZztCLUL4zIqJjL8st1SNiIqM6d5jui7sZ+RlxG51+c4ZDh22WYpF2WAeTlQzmmICYPnd55lF89VuGWbpUDyEkCV3pUNtY67IxTn0dLXZthgiyWHfAZyGc55Yig6p2fN7ImezpmP8wwsR84khBRwWochu/6fLDO7uyY+rAR2I18GuMzsphWmnB309xXDOJP6Aka53b64rnS8ZbjkCaaWMC6l4gtn88mbrJO7PpFAU2amRJdcGIbxaiVjJXJNSPoaPFrRmOk+4ptUdVzyZsukwNGKR15CxBlLvjHJNXtiGzRCCqDJca63488T8qxC3om2zEh5bqAe7yJc/sIce5B3tYkokLSuece3Y7DI26yQ7LKF88DEdAelMC6mZUMZFtkKKfi1nje/O/TmGMmCFXIrSDaK2EEsHi08a9XfJXyGQd5lOaSjE1GwzHWnJuO2bVawx9VdVseE9+q5WLS9z+NmpwSDbHGUttlQtKB5HDxnbhZ0tjoWedsO9MpVXx5iAfM424k5brc2tgQ9gCN1zQ8/gObx8xn2zHFkaQzYDGR2XK+kpoTxORUrGd64ZmVsa2oFoNH6U0kXr1fObmDtEpy22gcQ8HtDHwUyWs8Mh3E8LU2wxtuti1f1wDooo2H30Zi55PMWRoK6mojbE4hjNFKcTh2zVdD0d6tiwI0NMEYTFKcb90G1QgzvtiiWZr14LorReid12oU6gPoG+OJ2i2BAjEu5vftu/QslQz1AoJUrbIrp7wkBa78wYealuhcN4DTA1g0PrNkR0avngjAjMC/UCDSS4Yq32RDR287HZNajr3I6V5lcL2Y8CyJ6MwozTOp6QckTV3dZD9FXQDAjTbpByRTvthyyxa+CkLuGNOlfZVJIxtnL7IarV72oAYAZatLByrQQrtkMES7OAMgTL1XRw8pWMWu82QsX1FSYC+SaW2jtnEJzbmtuhRDeae4jwMtfM12SWmph6Iz0ayb5FfZC8HrV+aYjmYiRK4fag/oCfvLZbNxtJURYxkSMCbF3TEqXbplGyHibbIQIK0BNj3P7fhHojMFmsTP9vWYf5KNbx0sMPaJkh3fYBkaJBhZinNYS6hTCOlj6EvvgetqqzgdkIcbM5RfqFVoKdbBW6yDh7OWOB0xzMNt98oJQu1DznAak41kGAbY6PkZ4Lgfxr+vBTFdbrbYKAuyCNuCwJPEnnxtqGhpAOtgaIQFsgcXcVjIQ/3SXY8b9W4MHGtweCLDJ8Vpu8OOnYo+pnafAJy+xBfLT/ZTztdzgx2+IOaaGngLfZAnsNHaX8+jo408sDvUPFedkGAm+1YQnsAEWXYr4qbkX6iEayfARvLjT9BstIx1fsvPvdLnVGiHpbMy+0Sj2+FOaQo1ExUQDG8FHjL7RRQ3IS6ox7E7ayIqN4FsN/oz3wlzkQ0448tI2OW0SbAQvG3ujDQsIDynb2fSaPcQKITamft+RS3CXyT0tr66frJgI3m7o9x25Evb8uMkqkrhm/z7f39ML7fX9QTVbu3UWxgDG3qYKKr3sGTlF9No3etUVJ79/8J4P3xc+6oDCsL9/tJAe2rN3v0JZMcE7DfxYhQzdonheg3uveun79Qfui1ygsP9g+qo9CjRKMQExgJm3KTuOAHp+3Omce+27qjY6diRyn0b66yfDvaoTgoUAm4x7ftklkEtqyiLGfXs7ECCFa6G2J64LsdrA22xyGgFy4fk1q7JvqNB/JJKX+guqcoRgWQKhjXFfg72EKcJMd8tp7Gr3X9VpS4BG7qmNXjsYh4VIXiJiDXaDPtb6uYCnu09uYPdwwH2RfPRYJ/2PHqnbf8TXOujI4YNX7lEMq0YGAmw252MVzwVcJhax2jd6n4y2HQ8XRNAD97y0Z79ChGcgwA5jPlYz3sLoawxxUM7jAZ19QunT9bQimPbhC7/GoNvUIV1R05gCZa7Zk+6PZKRUDxrRpi/tUYGUNvgDtJtxXSEDt5zewmPc0SOyalyljufy93EfHv/VN5VMuK6aJpoqXm0S0e17qTOunOVrEtADh4ZY7zq/AZ2NIVeVEW1sqqQyd4Vgb5ej+9LiyRjg0kH/jq54JfxqIz5U3aFuFdgy9brl7D1Vf9+jklO3hhTDHLxyP9fjorfZbLoT0l3cAPZKmurMHd7v8CdAR78mEx2u7eX5wl3QpbMx30Ntw2N0xjQ1mR63v9YfEaFjT3SDNIf8GQ5bPBu8TXW30dYtAVvOZUyzJ0aN3MHkCju0j90RwdtsNtm6VTSLgsTf8/3OdPDQOQwfYPaI//IEeJvtZlfn1AhqOa3K2/F9aty9U7Ij/gf38hoeuk3bblOtq55Hsrg5JF/2NKmDZVVwOi50m8tMta4Zar2BYXsC48qqqO3jswrdZquZ1q2CWjI8zYrrtIfAynZa3rIMcpu2XSZaV8gg7T2Xo9iO7WlMgJeZ7rlS9SfAnydgQRgDrWtbiLOkJpf5jE19RNnmw+9T+3FXmGnVDjQblcspw80IHOyIDYKOdYHUI+1X+Yw2eROt2l0Fs1G56aowP25f9xqIquw0csjnj5ENZaBVP+XwZo7gLNcxU/YcjLBQqmNc+c25y2gDjJvMs2qXw/yyOMvpTJ18h6eqdM/gJ4ANZZyz2TjTrcK5C5oz+KmxzGGY9njLaNMAe6jLDLKu0AizZNip8c3hA6yFXlqHveup7cZYV1yAskxeyE0NGpMIPbRfvVPUrTDKqnZnY4EsU0cWM1PDytJmld/HWBJ51ENtNsQJZi9CWWcke82+ex6NInRMhw75fDHqoXYY4QSz1fPIFe5/5ff7vx9FEUAmVVFrThrjPdJscqYDeeWqpyU5yUGHkWlVuGLQQ20xwC88yHX0Cu/J6F4SV0OwKIz6VZZmQA+10/hOeS/MVemyp9uen1FW1a9yfgZzerp24zvlfQm5wvkeaPZ+OMJKuSfIVVhizKqthnfK+yqM9euWc3L6nbpUw5GT+zhiyKpi3ej6FDIIV2adeho/gwB2oJPZhiOGrLrM6E55nw1x7ZfTmc9bQ33rUwQrDDFkVdl4+uDQzXCpnubCS5U4PLyPH0asqu42tj6FRoT5axrUwYv09qHV7oS8pRnEqi3G1mc2wjLMxtn00KsEnU6yk9AGsKpYN7Q+qxBGH+bHC3JwkpUruWHAqnYz61PIICwsJK5hgZXPaSQDWLXdyPrMRlhY0CobHzmpujulWW1qXX4Khm4ay+WqjvPv2GCiTqwol9YRqcysyy4YuhLHZX8vi6vDD0CVDg6yUsWr2mVcfWbjiz7MgJYhVrq0NufjVbWb1utwWam4ZfD9URSxw8o3Zj9eVdms+hTmwovQwMbp9IzYqJ9yeQKQyrmLUR1iFF45Hf/p9BwxZaW68hrT6rLLiVyHrqSwl70dWp5YAZXNA2h3JdlWN6dDVM9DNyD28lLUnViyUb0T7Jtno90H/GXmdIgiuAhTr4O+BegPRxFzrHhz4Iuz0KrKpnSIjeiiV5cjH63b7DiuVLTppKJy0vEIpnSIBeCMTkNeOkdTV36ACeX5jWBV28zoEKuUtex74NGIQVa/wV7IYJ383rbbhA5RaMQWIVflIBMdazbUrZQ0hXyT4xFMqFyCzWhaC3YzJln9BnsBq0txl/kcYiW0MnVyEv759ByqVNBqAOvk903GM4VN9TxCRu5cuSr0xLJ8sgJaLR/A6rLDdA7RDC3C5MXoc9fwqVK/YYuz0agM6Ah1Jz7YIiwEvogbq0Qf4af3snBHQqG6lM2mnA0tQgP66XHqrArDlzj4DfBlkK7AvsFoypXQynAIGtd8KuokZlUqGOKFBjAupvPCGNud+AAzSp2OPAbHrIIhloJxMZzJbLY58UEW4Trws91ZVqnfDPg5SF22GL8UNgB8prOZXXZ/fxQpOx+5Si3HazKaYgyAzww209Ht6zrbnWmVCoZoDoC6bDGUMkUngQ2b6ej2dsZnW4BgBsYD6rLLSMrqeXSMuMxfM3Q0ilSf7xnEvyQMTpdNRlIW6Rhxmb/mZNSFWFep4IiDQF9K12UDuQBMIYPLaBh44V4o4YgJnC7tBnIBmEW4Vn9pwHxS9K9HkR7iYgLnCDuMo7wIl9HpVcRY2TW1bFygCo/sVccASafCOGaYPQ+W0bQq7PlxcYMIwyH4G5mDOULZMC4AswqW0eQW1CW+4JfQb5MGygjmUdSdDAFLtxj4wi+qoFLCCfAJmCOUjZwkP0SKxQi1zu1GxhsiTCtjgIJDYRJloYGKjsXyps7sNeoglJFnoRyhbOAk9SFmsnh5bENRFGkoXloHOUK7OZQXkTHiMPr3oi5QCZUyMkqxzRjKc6mM5UJ00EU1hCpy9WyQI2wwhTKFyqgGusQxIkyDtwE5wjZDKM8DpRsGnSpeQYQy8tIMxhGqZlCuAjXW6XFiiaKvqSOjFCZQVudi0uWWoy4qolJGrg5gFO0mUBaJrObmwkZoUHvEPaowjd0Go9hh/uT6DCbdQsxFXYQych8Mm1aHwvzJVky6MzCXOEmEL6mgTcGhMH4S094pTsdc4iYRDingjZHLm0BRb4sZiyGNlcNr9KYoiuIoEe5RQJs1DoXZ2w7NWkwJ6RZDXvolrhJH9kJPIA9RmL3dys2GtPxLA+R11pVJKOBe5l6wBcS22BeAIaLjzmhfZ1EfgYeR21gCIna5EJFu2nLEm5qKw/iB/cj3JWkFiG2k+wvcLea2Uo1KFMFBeA9yFUJxmcGTNHTMGS3v7I3LRHgQ+V2XQih2mTq5GpFuIkSLD9F4sUZ1oaOqKcKTyIcCKC43XpLy+qzD4o2UYu2Xo5/41IMTj4yP/8ZvdlLfeOKLExPZkjqK8ArVG2q1wbsO9R2kpXDdInUouU9NjP9mjDQ+kc3BFuo4/R1EwHkG7zrU2ynLGcwZXS2vpqPPIX3xkznMQh3Ha55t9sWu2CUg3emKkI4uOfibIqjvCyOQhTqOd0Gj0RebKMupwtPFK0H+mur4bwqjCbiV/4GIDwEfCqAwcRKQbiHcCe+yWoikLyXxNhUy+PIEPrHdRMszpvJm9IlIRvRnRNPgEeUT4R7g6engiXYTLacLH4v/6Ee+9JtdSLBS+cQI7gBL8YkdxiqHDWE5g7f8st+T0izjDvUrn/j0fqVTrTFxYkPMEpCO/+j9GbcoCVZACgBcBS853S6zL0+HG13Wwl91BBO/hFsFT1xuqCTdBd2GWRtr+SdkLe5VsQqVDLD8bHSiuNukpZhdCGfK+/wQKz4oZ3GXoQqltOlrRCe2GLTIa+HoTmM/QvI33aYjqicO485mA08YtMijaHymVdFGkHFU1/FFrFDJdDbV2ejEDmMmL4Iz5X2U/Xx0gxn3KYm0qZY2r28AJ9qN2WbfF4PxmYpWd6+UOhkIqlBLm4RhF9vo9rOmS0cy6qRAv/KJwwq3R5pWkxZ4Q8wSjc/5aK/ARd6I7ruonghrCqe6xJwFLsR8pWxofE5nP4HNyG9mMrwKWBjZq267klxhzgK3k72Q1RJnuiFcMpNB2sRlo2zpZuc5EyYsciEjf0Y6ziJ+L5JTSiPwNpVx59BLwYkdBixyH4Hfn6bgiPxvbOqT8uCLUIVaDlVNYBPt5utvtqAqv5zBmK5Zzp3QfEkeZD4JVKimarwB234qdhuvyCvBDDEfbbp4SSXnTWW8+CYAosmZsfGKfB4WORPurqAltea5qZhDDZwFIJeNCQu8I+YcNgSG4OvmSe07Fsnd5jg3nUruemopNrHVcFkvxDLEXLhjyerNcEcEDOFhZVuBfY35Mt5FVgp+N4FUgTstlJQL/SrYDGuqdiVtrc4CGy3rxVhe6wMqoIt+XS58EWlTPVUJaMlmLzdZ1uux+JyBVicpMpJRpITisKr9QQevcGZssFLGL4MyRG65CtzXuCOyYQQpFFQFIJeN4TK+LOYcNlDkKFqdrD3SAWlTPVXL6YvVjozNlXUKynpuM5VAFz0oG5KRGorDipadrslsGW+J+eUahkROaQF7F0Hja4RXoV6wFVngy02V9Vooso5XJ6+nbKGQNrGp9oPOTodMFHcbKuvFSFLYTEOrkxe/IR9UURxELZAFLpgp6/VQlls/H+zdHJEYmXgF4R7QI1SABW43U9bN0ku2fIqfipD+A7epmiu2LkUWeLeJsq42yi758nn/o2qKCBzCk6hHAGacM1HWq5FkmG1Qh1vq/iX5oI7NI/tAj4DM2Oys0EpzRbcCWz7LP98JoG5om+o5+b06QF4Yqqnvm2hGFjvEfIX4BXZ8kXmoqMvr67iMLzdP1q2yp7Bha6PvK49Jjn758tiAbSqpywAu46LBMd4WszUQidXngxFaKKU4iTqZDa7k8VtN0zvc7Cog8jSl+P3yJLmHkrrMwWXcbpr+gNYW4JDTsMp7ewDOdVrBBlVSlwsacRnvNkzWQGQj7N/mGsp9VKDtUFOXs3EZbzFLk94XAZGIM9IBnfj+xShSy2b4AOpss7CMNxqlJWAurUsu2Rri5agDUA37QUM9t0jzAi7jHSZpCZhVMGRqCt7lWbEaHokgNxV0wdZiBZbx5SZp0vtCHHIx3iGwGkbqiTANWsAybjNIk97X4uifqSC/C1XZegA31XSE5lmwjHeYo0nvrTgk3iHAdnwSPhTypsKeD8t4kzFqVxvVTWLt+FIUQW6q6QjLB1EZt+02RZPeUzDkFLgSbfMLiorDoAUs422maNL7qOSSs+XWqTSl8kbcjE+Fk2a7IVpx/WLJJVsX4vIJOhiRSGJGfCpWOGqaoXYfDNkIdu+RhOiLjMso+lp8KuY5WtzNDLXPgyGxTjXqIskYSyQVtSN8QMHEGmPU3B7rpHcYcj5aSUpII5W1GV4BWqCa+r7bBOWYXaRqEq1IRiqLT6uXmDdsiJq7KU56zzEm0YovAf/tZSusqNCe+m6ImtsITnqfyZ0kFEQSHeoOhRUvoJr6vtv83CbYxSomfyEiR5+UQge7qbCiSFuYoeYughfLdgZb173YKbGqvhBBh8KK14Iybjc+7XUorpRtvuq8yISOfMnlgh0KK/oqqJqmpz2qYvLeiCS7vzwrcEOVFQOgpr5vNTzttYomabLrBbqhuian62sE1TQ87WVqJrFyf6TIOIxZzCada9YANRP0cszO4EpeE0Vk+UsuFvAdKisGGkA1jWV7KlfyAxFU/mTEAZRWzDG5zVJs+ImVCiaLxyLK1O/Wq4IAvaHSitc3gGqanPZcBZMvR7Tpk18SrVVq3AP6OtQxNbeZnLaySYzK/hE2XpJxOBnzHuDHzW1zK70l3aaJlEXMKWYph+wX5NVdq9Ad4UnQy7VCWtytbbexaRcbMURugBsZQeWTXxJioeAYwSyWYmruMJHt6UI3E6tkryfMT/YPO7XnBWorllUg3Vr/y81NG4OciTkyCPf+wVj6+nvR8GGotslmMTVNTc74YiMG6xbE1lhMk/3dKZkcYesVE6i2gfsaMDXNY3sqV/LFCCwx4qi4uWyMbHNbrG31kuHndQfCvaBz2SBqbjA1bQiRT1PUV9cvP4aKGzgBqbnLyLQvxmC9AOxrEFLdobiBz4eUymariWn/xEoIkXMhWGv9gfAlxdrAXNLYpKZrjzVnPAQ5HyuujgASW46qa3wOpKbZSE2XIdeewdYHvNm9ag/FXX4dUXObgbm8pgEIkRvBPr8ZdUB7OIYHFUvMMzS3iGKE2o2InMlW5JdVHspr/DpEzTajgSK1JDbTucphU/3tDmgQw/BK0Ku7IWruMC43j2AdBOvFaCe9qzzU17iCqLnFuLQXIrBG+/JR+oAuQbhfsZLHrzcxQTfEeGNBIVjPRzvpXZvgpGIlj19tYILupPZq25gpNLIuaUcRWDygWM0mJ0ENy5LrixFYzwKLR+IExKP3ceYS8xK0PcaFk+oI2i2A20ofSn2nvlcANdsMy5LrCKwLIdoV1zUKjlyoVsZJ4xJ0G7VfqWaOrQ895nvjCsSZvy6HecOmZW23y4hFPYMt62WdbaV3jGuba0xL0DZY7flw26oPFW4uPwtParpixqQkpYNgjbat/FDi5gt0U9MZlo5NxKIWRFrDbWsWjKI2xpOa7nJzkpSuimDSexPctvJDjZtn4wm6wQBGncrWJ1VqQvURfU2Nm0sBpaarG7+oM9myLh5Tfyhys9GEBm0nFnU6W9ZXR+oPNW6Gc0xoUGLtM/j6YyH6UBwARW6+DtBmKnYbkqirAEx6X4C2/bj643/gRRr11Hc8QbcZkqiL5M0xy5b1myINgwdQN/EE3WRGorY10G/PRIsP6BiE16J+FTDgWdstY0Ki/sTFANqL0OK3tQxqoJuzAK3tZkZuRST99nS484ciLYPDoJvnALreJjOyphv99ny0eDEewGOAcWS/WuWazZuSZjHGJLMA2i1oca+eQbgHdDMB6AJXDUjUtfTbEyHcpHSaBgfV6g+3osmQNLfEmmQWQBtv1DgBqhy0r47nF820w4AkmaXenjo5hBtV1yAcVKvXZtwaIyIyQYw99Nsz4SKtbXAF6pcfKKDf7N4u49FDv90E98jnUW2DQ2rVzAcm5IqVL6fVU+DrM/r86kjb4NMXqlXzEkfCcPQsIL9EawFvj75BeK1aNdc4EmZu1vtUgTlm8fZoHAzBbhrLP+2GnbH2AGjj7dE4OAS7aSz/Gom2x9pDvj2hZ3qi6Gsq3fECoI5gq8mwHCXfXoy3R+cg3K9WzTXm462csJ1Uz0yREm+P1sGVavVnVbLCfHxyEdHqGePrQ62gL6d1cFCtmk3G493AfwetnmkCvQH3aB0cVqy/cvBhpx/HsWbtN+FwBmPtD+gdHLkQdXMWpjcI1JKpuB0UqtUO03oH4V61aq4IHLNJu8Cm6Xy1lz0eL0E5/1TXCH/IhJiMzm20dvye4qv95kc1Dw7BblZQffpPbTYRr05I4lFTgPGy7sEDuN8mAHB93KfWjcMnpF+Gek8ZLz6mexDuV6vm6g4YC6t6W6w91KPmQsCW2gejavX3nNsiBEF1m1H4NMJZpVxR+45qH7ykVu+EF/MCQdS+XcPXNwaxopl6ktkmvLg60j44qFh/EdnrOyDKQDcPl9le2nRZe7VazWaHRrYUdmR69WgLYsZC4lEnh3jxYjwB1Tbsa6DaIZCGNLKivDmWg/iJoa3lnZku9oWo6OTxNPWemYDxMf2DIxeq1d9b8oqfFEuJzdt3amD/n0o4W84wcEprqffMR2ypfxBeq1Z/ENn5QDwVE0NbSjsyGnf2WzFwl1ZRj1rFi2VHNRCuhI1xskvBuEXtmvaof709cJsWy9oj1BvzFbnEC/ucUm7H5grVTDYu0qa6ztZSs5zKWPtFHYRDwN9JTqgauknFrRr2sw/adWygHrUFMD6gg/DAhWoVNBm4S0MZ7VycWxLvmR4Cxp/rIBxRrLdumXmu/6C0S6+XYBXxqA2IJwv9tg5CuF+x3ndG1rvO+rS6PZACi4j3lEPEWWa1EPYC7wBmqIN3CL+rKgdm0e6ZHALGmyMthCtwYxxVJhtNvHmaTXKUKu2eqROI8aIewknk73ltqDLZaOHPNKJtgRzoJz7rfQFivBxfQMFDhWdTNdTiqqokWEW8ZzlifCi+gIKHCskauk87tLkMFtFOGj8RIsbv6CF8+kLF6lgtg9DmMlhI2zIDOdXm4/EE/sfXFDxUuGwWUUMNLsqylI3Ee/KQT0SKNBGuVayOFhmwSUNHIXW3YKeJu5dSkGPpIlyJ/E0gEJ2htr2VkZliIIulevVcrYswhLwDtWGwTXumpJMFS2j3zIWMF3URTl4YqtVarWv0d3MkgGY5Q2CSWcixdBEOXahYHaulaOpnb0o3zz/HWTv8mC7CPdDf34apGmru3HS+NHIt7Sw2Bcz47bgCX0OOB5BjnKyh3k4ev00arKNtuSDEPO1dF+HTyvU+BHqJ7u64PIDmWRCZZBbyKq26COGF0DtQGyb05meNojRYRDqLTQn0rN+4ojyGHfuhvw2BmijDojye6mX5Zn2Ea1WrozWQgXTmfqcy0pQiacvUAsy4Wh9hr2q9xYo3aW7HHdKgX716whf1Ea7E/gauTdNRb2em2w7OkrV2+AF9hCHleocVX6+3Q5WkwUpJLXnDh8wAxtE56tgXFMEWbJ7TxPVouLR06vhWdXxBA2jHTRo8a/y5pLPSVUHjXjOAaoKkoxFBsa5ePeHv6CMcuhA6nQPa8I36O43NWl/B8NuGAC+YSqwjbdnRo4XSxoNf2E21MtOtNyFYRTor3SLUKTyO6SMcVq83KPm8CcESSS0FbllO+ywD85jKIzybpKMJQZnyIq0zYCPSR/j0hcrV0WpCMIuy5XzYT1gaA7yOZOZ4A4KNpPcsl0eNNxsDDDZQdDQgWEvZcnIVNd4UX8RSehTPIumotYHf87QQ9j/GAOEcko4GBJSzzM6EjX/WSDiiYFhtPrCEsuUC2Lhazuefu1G8jVDBPqhhVpgPLKKMMu9IfaNef7aTvh4T+Z1U76CUiqexefKpUimXO5HLPf1MrRZ1UK1zgFwuV8o9kSslpYN6GbaYD8wi7Dk55BmpzocPeaHU5QGFEuOJ3InSaG20djzvjNKjtdpoR7iSGqBaoeios7FBklikLdlFLPHEh1PXWE+Wch3x8oKpdrwjXOkJ96FgHcYD/ZSRYRSper1nX7dNlROlUm30eN49So+OPvlESa2x3nRgHWXPBUzisQ5b2UgtulKu943W8lJQ7XiHKc8YJxnKdGAV5azxyxlEvac+GbuUz/OJ0uhoXi4aHc3l3ICCGa42HVhG13PqlBA4hB8PkLgrpW54QmBcN57MT7KK4iyKoUwHyoQ9T0MOkX3qqxhxS3M8LzPVaqPJpNA8Nsq1VGuL6cC5hDdFk0EOYRo6XYoV66kT3f0l78rlxOWZVa6lWucZDrRlCHsu4AmpZ/08ReLc3YVa9+fqqXQpKXydDfTT3puRQ6xGcQ/4p4TbH89To1r0JHdYSjKU2UC/nHiNIJMQOP7ZoYayQnHwxIlaniYdT+dynGFZhmIos4G1hLPGT4cOQc/Vq/FIKZG1rrGpKmqxn2x/WMk+NB1Xmw2sIoxCJ7jYR0UvGvrmauKZzNXy5Kk2muMJIUWsMBsoEo61gA081rMGhLl6IJmT4el6ebLXxQAV62g1G1hMONYi5HizI3sUoZUCudGuNRyKXK/X8aBgmWabzAbKhD2XQ/9ZKHZ7JKFTyhArOSosDtXpc4c4QAPBie9mA7PoohQiR1+PNWQVJbB8qiMOJErXnsj1ABXLNGs00Fanu6rbGHYc6x5b+SspQdPcYSmSXT4WTJXMcL3JQILwqm4N2H8WOta1FgdUUo5r6KhDoWhYo6+Bfdr7Auj43tdxUp09S4c1iHT4WiVzXG0m0QQc1x7+OlSqs4zk73bUUNJn9qqY4wqTgXV0p71PDnHjpefyaOkx1hB7CjqodFLB0GoysIrutPfT2NCq/hgx19DSof3KlTm+xWRggG6sMehayBU+Lb/yJz3XcFqVL1Ss2zE0z2RgMV2cAVuLm+o84qk/eSaPmcbBfxYbmkUsJDvtPYX5itP39KSNF5xSDk+lV+cQCYq3391gYJaU097Zyhq//2AePdV5s3zi9/7keB463XOtUm2NZr25QFsD3VjLAZt9Jt+FwCv5QvLPe61hDqFSjmvMBTb6ZDEF9mjxhrL7ym2/eyLPAY1fqVB7f19tLrCW7rT36XDNDuW7EAtKhjDxrV5ryEOo00owKwwkTgdtFncoU91qjNDB/agNDSLW0U1j0wDZjA8lJ4hlYpyihzibYGI6XY02UGnppvGzCszBPDvEh9XjXU6+Y4fV6J8mXY0AORYhNXvg690o/rA6FkONifBKFGqeucAyOcFMrL09xIg/rI7+cZ4pOqlEoXQ1UKWZZeZ+wb6U70bxiNVT+TxbrEKhLjFpOENQLLwx4hGrJ/KM0T371SfUemOBhVKmseHkhS6z/zCZLazVnr6/G52o1WqKZPW7+R6Jo/DK47jGWGAW2bR0DQow2732h488dNe733Xj298yJep1hxnRdakb3vGeO+966PmawvCxWp47Vh3H1cYCGbKYy3n84wOPjAzfcP1kUZ+u5De9cyjxfFpBQuQoHKv5fOKh91aKw8M3vr2DrqumOqk0PF6sRInE/U+nFWP7U+cYQ2yQMy0dG5uWu0LG5DXHy+8bvmGK5wKNXPfOu+6vKQXnZN4sRa380J3FG97i/GHelOvylbsSz6dVYdylBBPTmQpslBNcTHs/mZeNvvlI8YbJnqs08vZK4nllCP+UtAdsKje+ZUT8I7yhh07IWrlCaUK1mgqspZtmdjmzpS9x+3WeJFR95yOj0rEiRO976M4bp7j51TAs6WGbNNJ/jDam8TDt/ZBMP23eP/T2EU8uSlU+n2Y+/FckPGJTleErY+SGSqLGNw9m6CWaNYzwTmNzftzxhyrXe1LSlPFqjXE+WsvDepQ3pXRXXjZWl4nv80wF1ikK9j8gjWb8rZ7EFA1Xa/Iw29HTj4zL+Cjvusq9aYZ5+dmmEKvI7kJygsPp7ve/u5u/3Iohjjn3tESabk+/gFMcUpaJ7ybtH0HT3tkrz91Z9YjQ2++qsbtbmhOSaD7aXSOv4q77meUBgonjDQWayaaNX8Bc+UjP36RgmuPkJ/My4Hkij/JuuKsmCyvKP+sNBZaRRRNn5fgHe7SHav4Ym9HTj9xM6iEen/yCKcRismlmF/FV+u643iNJ0V01Jvl33X8+vO/Ot3i06MaHalKwkkx8X2MYsZyr8vy7u8QmWnnP/RIwgwM+Pz4C+iHeIRVJTLfaUOBcqmlmJwMr7n+Xok3vuJ89Trld/8iw55E9aMMgX5AxhFhIFafhKjLUyFd4GzTncqnc7BGmKcXPus/qkchmhVn8Z4Kh8s2e4xD/hsUYH3va5Rr9LwjXDQ7iu1ZlQ4iMUmC/m+X4UEwJ6AgfVOaKSydczSnUSw11mJOqEarVnGG6GHCTXPaRt3hQKHrvcVeZpZIax/EFUeOMzzaD2NBAFXVIuMfFHzpv8uDQjfe6umwrP+W54mQPB10/5C6/pBYT35sMBeRcBgY1DrrnVZzsIaJ3PuMmc1M+eD2ah3ifZWtjFUvNPhYwsm2KRI/fptA4ucmslPvf3tsXBPwx9qrEP0kzgTRZNLFxtQ594x4wuvF+F6e/IypSePHgNH4tskQ2ZhBr5QTkNLN75NAi+gn0OBdc+mN2viyKz7i5fWiFSExnzjAV8R9Rx7XPuauFpvwcD8GPVhk6ZnNgyEXeD+xSm4wQMG0rFnHa+PKou1p0StcYTXH3y4If5WF1SDR7iZn4hyxCMHjApcw1Hkj6lxr+AE+5NdvBg0fXf969BHXKkGh2vZkA1WXXpzAw4Ofe7sGk6z+Gnp9w6XR6jMds3svM9Pflc0w+JsBEd8sMKE12a7DHoG+DZmgyb8ds8nsUITHdGiOBdSqAve6a4bQCbvO7aRnOj4Q22OdZGW+OEcRFVLdRMR18hL4bPbh04POw+fGaK2Ye0i+IKXe5Ftxa+GcVVZyOBIfdiHG9B5imuBOiDnrfFA9N9rDSe9J8rML+Ar2NVJhEFJCkl3UnBmYagmxz7LhL59PDfRLmm2wEmEMPVsI/V+bF4709/djJYIhnAU9477vRA0wHPudSAEvhn3VUt1FxBnCjIQ84lfrgcpLJp2A8b8q9TCScfR29jdEYCVxAFQ2wjY6/04NO16fA2vyuO7PdQdPkj/GQn+71RhDLqGIuaqNayfPA85AbNlDvy8wjIx5uei8L26RZagTRTBXzUejEPyl8g9cLYR4RqKrkxhkVHnS6kwObcZOPBSAwKrxc73kM8MdxqlyIcIcHnt7tzux35hd2azWJaAKhc7vUM0WcAple9n8OeR7DfA+chd0sH1zrRmGanwWZj+7dnscyv4TmD4PK8sGoC4Vt/gZNIzcKC4w+gXzzWYYa01G+m3ycdKEwzimKOjcK13wYC8glpmsxE4GoIglX90zHQLwwPNVX3Ch880ucLwTTZCRwPlmg1R3vdb57fTuto7vcxSGPERpyQ2UJAazuf77H89jhe7GpqjKMymlCm0E7CMvB7iP2To8huv4PkameEl9nhh5xQWUF4hD7xfPe8k1cIid6rLs8bjD5XhdUNhDo37DnrwvFvR5TdGMNlng6LxafH2HokM3ncKvOMdSYJgRQfVJTuIL3L8cFu6CK+NnrWXoOpk84X4lj4XVrB98TO+H9wGv4ogom1bF8XgG+Km48Lj5/PNOYZw3gWrGy5HFGHxOsgpTB5vgNHlNURL1i6xxbB4fci8DQeJ8XLBBtPLLosUUPCedr7YF/mjlGWezOHDzm6C3P4BEn8orwIG/y/cJdrB/AlJ/tIQJjAdC4PO5WdBUIsMfiwzVCnxZ+u8cfDYERRwVHP8DbF8Q7hbuA2IiknYNBCZ4WrvgrYepgfEoec/Q+xNnpXm/uMUL6cyDD1QQ2XOWnQyKOPeNGtnh1sHluv9UDjzLud2fGuzocUK7L76MWD/JSx0WPYPcAo3ynxyX9Fg7xWC2vGA/y7hQu7ABcQBUQ+9/nsYkpzwsVOPrf7bFIHxUtrDzsEZuQnE+64bhIAUOWPB5x4DnRwgrAKm6REIh3eJzSXUKF3FJBHuQNoRUVgw+Ac96rHquY/LxIIbdUkQd5HxUtLJ5/8KWkqzmJyP5CYnWJpSs65Qh4kls0mX9cK/Q0L27pgwDEsZqanFLhDYkWFgAukhLAXp/m7xe4dwqPXUz5pkgBYM777bw+BdMnWFgAWCclcO1brjoqMoUpv/RO8uKY2HSBvNKwaGH+sZbsPqHB7Vbubo9hjNxLff31ukhwe0qF9xHB9+XdrsPnXPFh9Ywv4qIm/urSVcXlsAWg5hTXCP9Oxa8LbfEV6ZbCZ/zKHvYYf2ykikU0I0P7TvWL1/zcK77f9zO1X4a4R5q6lBKeT/81vv/DTOYHfqUyTg9vfU6sYBVJY9ZAdZ3KK4+jGqJWf/XH3+mR/v1H//ZzNXTbjJXyQtmQzXj45Z8Z/NG3s719ZWSIud4hVuznFK2GH1dAkpMrr377O7FR0Fcn2DXyvEBBOfKN5DQ/6LGvN9NXf26cjvim2MCmH2mqWIBswfVbPTrY+8Nvf8cR/fjVCrkRCBsfRzVE5d++nXVGP3oF0bahnzP92MDnfZWqiZOEvkn1fUcAjbzSD0o8Rnf3kW/vqIH5wni1H08ymz2MfrAarjD7eBmN7P/Rd0TRq/0cCh/S6jwVLF8YRZTGrzeCaGTzPgZ+Bov85R/G8kx9z/peK4iEdCnjAcnxf8uKpKAfjNhv9hFQxRkE21iiVH7c88OHQMDB5DohQdT4SUCyMpIVTD/EshzMS1YOGmAtAdNHI8q/xaSN7T8l6KnST0fQbAKSArWEvjASzwlt8onVZgJnEUUBVvsuEjHvdH/wEIupg4MEwQ/ICJLGpeNiJaUvDOFKJHPfrzX7WEgVqNrHKWSMP1MhZCdeQSz/Cf9GZllQis0n0Mx5r/046xINSi8gTn1/nRHEuUQxRq+NY0G3pybCUuj5PyDoWRnrw4whIlZ3iWtSbN9PpQRZoUTpC+N9EJsvmMDfW0uwhCimo1rS7e3yYyMzCiDAgFKI646LaxL0flcnSH1hoAlxk9im0cdior/njtNAte8n812qJwMhx/yz1MJ/kF7zSSwJhn4mm8XFHxHaNPpYRhTTQCWxuZXWMWSHMYIYp9EN/TIJQa95XBjeA6yXyhfGLQibrzOBv5fFoJnqqwQVU874Z6SPPLspowDOIjk45v8jjwI9L65JDenrSQwUazSxKW2kPkXyOYCpbM4xgriA6stSiNoSrcKsyXyX+raDHkf/QQGdcd5JrVlCsvesX+61uDQoiMAvkW0YQayi+jLQaiF28YsgrG8L4yDWHkGPLn6OQuDjxJpPIclh82pWCpJ5Lb63CG0yCVPxuotjEe/HYL2/3pdQ4Cg/XTYb9FMwJtZ8Bsj+KX6QlQM/Hodg/BzV5tlGEGupookW/hDCiV6zhNPf44MEJxa9+tKxeTut5tHjOPL59wcSQPqnYm4Tulgri5hnzl4XgWKwAFHUA5LjZD2rLDBU0OOBZBzJ45+llZTuABWdJCoIuekOGnxspIr5pPDzgvBR2Q8id7AXYoweOBnnxwSGupNU80kcKeNfycqDf4dwVYyHWXRrMosYJoUqgg2rzk66zLULnJ9OH5BbFPQ6Us3jOHLSjUiE7CsQrtFlP9F/jCA2UL3QppmAeg7IjS86hvTFhAp6elhBQIhrEupJTyErA2eRHLhMRtDcw+ELfaHFVKCBP6xC0J7laejZr/uxfbS7diB0o+MegiYDUqIqsoPD3ytTq7F4nZoTxXQ8s97fTeEcr8nQp+KgN1Vvj0BwNB+j0/MugjJweQR5cSu4jmUVI/i6iwtmEUUOz6z366XGC2qB2UkXblbg97KfJdCk0/EMjPZIV+AL8tY0tpnvF8wyg1goI9Akjr8fQJ6UjXvocwYxnrP3IxjNZ2UAivbPZWXDjxCkstnD4O9Zc7WpwGyqL1NzSmcHHQdw60DukP3QSUvPHYGAAwTyG7+dTMfjMPZu/SMZEBD5wrgNW+r41/tmEIupIokmi80tcl9/S2L6XR/x/G7djpQ/hLHdqceoZLGRf0m3/u/IR/JuM++AyBfqBoNYYyrQTBVNaLLYjBDJGD/JUBnLf5LjJwSoNB+h0pEEsr0NnM3PCrzRz8YWkDZSMQNMYjpBy5pUJG/39JxVV3DJDt6CYrHWZ4l43kWgLclARJp3i8xkwx/WG4u/GyayAGN5p9ze2WujdMIyZgrnxJEBrAlKJCvdLfIjyMrYBBB0L3/LtF5iKjBBFTPp4GkxuFn+k7Yn3XQmORmMHKyvwgj6GImsdOnJ8u9uKpsF2nyrSEP+tjn1k4YeqwD03Fq/d+n5Yezw1Jz8eJ+wDhKeHyW34HqMXyaxRnL0Hwwg6EH2/plnLLCR6kanptPJSgfgW9Ver9GAYewtud8Po4OE5RCFy2qSkq6h33GYv2VgjBqgJKa7GsCm2JIR+7705nuhI/Ffkb8DCW6GN+s9QNXxHMVlWg0hNjRQ/atPxeJ5i9xzyLNqMlB0YI4dfldH0tMfkjB8UlQPUMugR7wKYOb7fu7+aTEWCBqpIkkFH6WfKOUs514zZjO76xtL9OR7ymVPED1eNnYCtRbMuEBH7pZpXaGtAenK2QShCcmi6+OELvWki86xSyJgTFke0yL4HhKGz4i6ic80s9IFwGa+P4zrHkUuO8tcYxqSie/V4/Sz2DzV392pK77pWzr+BmEgEOtdlBBIZkg/dfxJ9paBMRdYzBvOB3Dm9gZ59qkpdh2ZmVn8MYWlJv+dfj5OwPCYqKTxpK6VTS68Qv96mw5x97IUWmMuUKSKmUhivYtIUvLJsLMCyj4HhkcFWXqw8UP6hocJprExheijuhDMDCSrwNxEaJGRiWbmKcmfaD+mzY4fyI+HCOBJFJY1WfEqfcPPsJc23lxggiqmIfmV4U+mor4Hy89lLzgPZvNyj0mPqkfHhKG9VLB3lU0mDTOQTHwvA7iGo7OkaTD2Zj+MXdMAdfnxLgKGT4jBbRQuf9HhQ7zYIwl46Pf/ePQz0+3nLY3NPIOBjWTRguMXw/URIj92TnLqdNC/3+x+QOOCGK8XBun/ucXDNu89cLayG33Ha5lLM2vUMNMD4ng/gEsgPtfz3Lu+VJJw80aEOUqPt3j09ggdyJKa7mfkxS2wXp4bQ8YQGxpYw9MIDiXfzL9JjSm9HXMAGYA8AvRN+XFckCcF/EhS9bhH3/EK3v5p1dZAlWgWR6jlzyA4lHxHBPN7lOxDXR8F3C+/Y02MJwm8Km2eWfqOL/F2FQ8rtDVQJZrFEaooKBaRb1Npvf2uEj9mTMv7Nwp4H5/4gbSe9Pcud5C3Xb+vNhlYQjWRTQ5HWrq3Evk2NaFiV71jJjMH+SueByOU7I0hEvg5OVHvAPnM8YeYS0unq9EG6m0zLIfD8RphTw3Tnvg+uTeYahRwq/QT348JezVCkg0VSJA2nn6oe5i7qVIm431R5wLO8AsQbqjbfD2jYkxBydM/ds4KU8ANEJB/h+dRcgxkkv+3h+CGDB1mbheS2hrIE9NNnY8CHyE+D6snDSPz9XdI4p/4flTUORWIDeX/wsiASjT7WlP0PvMBPTEdCVwtBA/Ljy86JOHzM/pjD3+8UiQwRRgk/+d6D5Vh4Pi/5BWpcYs48JbGxrC9b4aN4Qj1PQx31G2ji00w3rO1z8Y9EnQcAiYTuTPfYv7fPRD8xfMWCLcQ9jljjypn77JdL2N4waU8nRvAz44WjLkhf83qcn8igSSykbtx3CNCgaRRASSy4W2XU4btfartDEFIUcBdIF5AMXvZeXndrue4wStE8DnZ8YTI3/ITtJ1C0/zCELgQDGe7nFpt2t5H6jwYju8H8Ztk2sy3HvpdqG6cvrL3UdnxpMB77Q54KxXfngIC17I27V1fA1YiG1GObGLeM7uPOMGrHhE8hAAf8Ug2Aym8JcdnIeH1ZxojQE9kQwEfEnOdCARXGplkzvOSNZ3n3P8MFdyNAA+RwQ+luygXGGBt2rtpe9+DLIly5BPHCYsgT3G/z2b1eYziN+j8ntckw797XUF/ZzR7ONtFhel434MkG2oan4ibaXNh7KRvTMpNq7TnvVd6YHmFFvxIxBxGkf9lP4sDnMXS3ED0y8SfAcPwEVEgZjzpbQH5fGV3PTK4EwHe63mIjUc8Bf4nqbMBfeK714QBB0jg3M0uZsOYnDyfpXfsckSQn5wEYG6mIiBzG8vuFgfOLspFawP5pTB68/lEbHQsj9lq88DuBau400MgxD8D8P96QMDZRbkYDgQL+XqT2/0QkNdpyJ2d8wzWrB50FM2LJe9V53lmxT2u6EcCzi7iwXRgNtlQJU7xZHqeXQ+3rDFzvt5W1IOOCQbQ++if8ZCAs19Zi+lAM1mkQIBaLtPcXsZMLzQH092oNgH9PXdMZhrnGKT3JUxUiWymo3D8IBLMG9ak45z5fvLDsxoTWpd+j2lQWwWmyXhgFd1Q8yHkmb2J0IHknNqx97lfj2O6SPp13fC8BGnGfywD6p4dhIvohipAwM0eGVrqMjm7M29MCLEx770E6CXFc00ggxEYMBbLeGAjX29q5i8LB5Udxmap7KBAb7djyignPRC9wuJeEQHHY6EBX6u6rTYeaGuk+5FUAQG3eIRoq+v7WDvX3JlXhqJnhL0it5AFIPuF8RFxYCyW1gb4UF4SwT6nbvVocSazFx3jsDePaaOHEeA3PHKUcbugwV7GNgltPrBERkcQhlfDQTzuY7XZMdey2J7GfyFo0uO4qMtyIdfposPAZA8OrmXsN75mPrCMruNMBLiD2rle/X5k+qi1TSF9VP5/MMHrH3ExGiDwdU2rBgTr6DqWpH/3PUX0Amye3c7XPXapOXkyppE+KwxSJ46veST5VXfmu/8soC+IfH4/W54tBgQX0XWcKj0wvQoCH6d+58pZLce02Dymko4jwDc9mvSKC8ofvcWLAQgubJUvzxXu4zL9jSrhD5mMJgDXwfgw0Z88e00P32m400nibgyF3Au7eZ6HUDnys+S+IAAB7vuI/Cb9jWIjXcf5AK5T+SMgvlFNhuxu7m5M77/yYgy4/jUAK9/+wWSPGN4q7rpc+HoBaK03IAjOpes4U3Y8I+S5YbLfqCaK16WTvUZiaulm+fGEKBCuCArT98pkjxzdJAwP8PUH1fGTJgRFKR0x7F3uGWDHkuPcxl73+PHWt2Kat1vkv1FijwtNMkR1uD7n9pkKsgd4+cNsXZNLkxHBKsIfcjgtkuN5QfeRgC49vXTrKH+S/e3NWUz5dpv895HgmKCkBNSpMjgUe19fvQbuAV7+HrZuCUXS0GHYw9Bxr8iF3eiGPd68dXtP/ksPO9nbfrw0iwJsd2PAnR4CqvT1+oXx76/+8JV+gA/w8of4ej2HGRFspOuYkr3jEUE/e4Kgp2fNNi/wPyBb2e/r8/u8TsL5hYFmGZiTfGWNNyKoNtB1nA5gIZjbPIxUsmVmZU9Mh5sQ3LeZl9h6/W2sNyIIFtJ1TCXp425VQR4DPqsmD/Dw3MfAAXKeZgRL6Dp6TQBuDIWi4CaBN9Jf8onvk1ECU1q6PVxZNhkSLOPK8E1CUFMU3IwCB5CD/q9yr8xVT6shwSrCmWZLCG58HCoUUtdj0v+euN6lbg/w8nm29gi92pBgo0/XcCr9xHT5MTXBwxRwjLOTJDHchiG2etbobiBznI6h42kxoVTOMy//q3DjbjhAGuswW7jEkCBYSNhwPv1ENncrnqfsE98/p3Ceh7iynBeYEkwQNhyjfyUPFZXz/IZ/n7LTk9UNJ9l6dZprb3BgmKI/8f05lbP8VsB9Rx9TN88rufJcYUywlrCh10T/96B7QEVwt0Dgk7pd3Tz3smVpTFCVESUIHW8Sg4zCWf6qVnxS71O1Azb5/H6u3s5V1hsTtDUSXqp1Ov1QdytcspT+Bzmiihk+DGcXFX0ZcpbGBMG5UhpCSB1/QtEMbyHyQtw4qmRZhiriYrH1x1dhUFAk3UE+VD6hcj0CBG9WNcuDXF1x+gqDglWUO2bSf82/phWkhwqeYexPadYEd4mLLUuDgo0+4Uw2JfqOdyhID5kXppCCPQmTg+O57CxylgYF1QamPgO5+wT95tFVrSdVEaQTataT5+tvbU13oz0AZzgVQdDlTwvqULSeb4SM4tubFaMHjuXrIFsGWzQmLgvQGULo+Bgf36sQXZnZt0LGOeKdatZzkKueFdobI1JhHWXDlOSGCjbz/SZCL4xAMfiomvVcQee964Kgpeb+XJLcIhN+QkrDmR6CoG8Wg5qi5T4TM05Q36pkPXu5+kiquKQDevujH3ksAGd4hoegY1laWOp4Bftu9Y0YblcIHMDzKtZ5gWKP5v4c8PQDcIb+NAhBT6hX0AMiX/ivQgQrCoFbBVpylcWmRRbs1pqf06XoDKdDCPoBYd+rFOy71WcxAwV1/K0K1j5Jp4finuV09+doa1UqrKScyWaq1M2r88r65LCgce39DvWKmt/DVc96SfDGbFaTO270KXfMJJ/JJn+bgrW/qVXMhrvVK2qer78EfElwudbEVqlQrEvZASHo86rVzNB6oZo/oVbNuwH1gLbcrjWxSzJD0h158h35hJK1GYJK1Rxnv2eFLKhntXnHAOmZ72fI3aFWzjfRakdHj6vUQZsMoJ4zMWex2ThJb+JyuTLTke6YTn/me0W5Up99y3muOhRqLZiH8cx6f52POYtNSnOiLFcmG1/KDghB/ziPP3c8pLvq9itZzzHNbaqQxAbOHaGYAz2LjSZf2m0u6Q6pg74sCHcr1sHkb4T9bXz4iGK1r+BqzfVWudqaPNXsYik7IDT786LO3lYr62+lPSOiNylVEpv8tWrTs60TmtMYXcdUBM3lol7Grreo1cHkX0l70IjuVKr2A4Tem9QhZ7HZkNWf2C7V0m60O+bTD1pRA2uCf6hjTyjTQZtcnv011+fJJLVnN7hMNjMgNN/8dWUyPpAn+Ic093helYxrIl9ix2y9r3bJInUodhVlymRDumOq1M0TooxV6lyvX8l7kOYqCmX9Gb7eB/JkyWGjRWkrtkw2/lSgqenGE+r0w+c3VeCDLphWAAnnApXPhtyzJatJabNMhqSDzpS7qUi56TI0/1BE63klEjcD+iMjaj4Lcc/mSdqUNkmDN9DuSAFwHk8o0w+fMv86u1yvStajbL0N5CWl2R+0Nq0i6xj2gDbzt6mS/OaXVeLq+5iPLNKbrx5Je/X3jiSLcgaF0Ow/LgifVSX5ba0SV9MJ5iWe2yM2B25P2/asZqVdG2TpoN0M6TfzGUU6dbtWmat3MC8BXZ8y2J7ilt2T9Cttc1KpXrYp10kjbyxSXApmJobmi8LO9lImKXN1/K1KJK9ga023VilqOrYS03W6VEe27sz0vBXZUpXeh5TkVBC7nVIfkSH8TnxQFycYl4ja58DqKVY7qZcfoUo7Jmlc2r198xu7//+i4saRXCET4wEEah3TITiHH8orT3dNpDXwwcBXHXGHSBwi9KvhQtTzxs1juzLd//d3Z7k8Nra9XM9ktTBl6h3k1ll7E3w13/x1YUKNpNTV/J0KJPfw9a4tLeZQvtanrbQ6hkU2ERjXElx/syIto8eF4binPP2fYftd0rtYmqT9aRutjmkYmi8qzrPDWeHvBCdSH/X/h5iWiKybK2DWXL+sm4WZqBZpB/XmS238jLhnh1Xnm5Xwv7oyN7MsIVkPgvlUTNiSNQM0QqnjDIGYHkqem05hlnfLUX+jdnlMHD7CskRkHZ6DpWdb1hAg0xbzW5c67aaXBJCbLp+/SWl88in039hXNbkR7xVIcjm9nhVi6sbC5ly+muHHFOaHz88KxLPk3wHLvplQmEd4+cOMfRJJroFQ9O2GapoZa75ZnLhFZSZWp6KHABVWlBESNbHWjL0nqQPZ6IyW3TP8Wp+v5vI/ziuKy4G8aCn9L6nN9dw+whMbma920tlGZ4wCbYy1g3hzWO5Pv9a8orjUMLw75D0j0IVZH0zy9Ug+4xo2Z80CthLqmCkQ00K5hZrMx7pDqMTwrjN8G6s+oiVba8D46x3oukuzEWSVtE0Ut+FdQbLTHUDx5g14VCCe8/jEbYIlY+0mMT4mY+572SfenBnKnWxWRVQ18RIsrB6qAzXBkrH2CqfSfBgXM8SbU1sk71YP1R043lsRU3n1UOUES1JtHFFHJpkHirG5hHpzPojuWoJNnWApuRCqUhDdKM8fUTwd0ow011FvTg/lFscVQ5WoIXnrg0zlFUN1YByVfH0DjqhvzBoIbI91rVbiTU/u5vKP5/NKkc0mh+V9mPBZxVDVUMnwhTNxRN3WBUbE+VzqzeFQ8uR0Io8mq8ah5CiKgIj8TRyeT4FKNp8NJGrGRCDbHmNQeZsYXt06H1KJo8kHhL+1n5IQ6nBaxU15WHLpmTiiXjbJSGAroaDDHoip72H/M18XaKMU87DycN42QB/m8UsC0t8gz4DZbGezO2MNKm8Tw+sr78t5ZbB5GND7AGk9rww2FcHlEK2/VxqCbYfeRi/oGIqp72Hz83lFsLkD0vv0qlCRv5lDI0SvYO8LzqQX1am30Qs67KEwDq9WhKeHbxP/PjqLR3zzAF+4RXQ5SOzvpwNHUrqSqcC2WK9vlXpzuuyZOD6mBE8P3+TOW78zGJf8RxJ8zXgH9hZhv2wWkKR0O4njo2tXfy+UtCnWGIZL/g7GTvRyxwfMCPm7+fqSED0Eb3Ke0w1UGL6gw1NhGIcf4P98r0RN/PvEMiaRv0MFIuQfCElhNpDPf7lN5gJb6Hzgk/h+Sayx7C7sn+9VyQv3QSXyt3G2+guoP7eKRiDtHeYC5YBQarqZgo2lz04nMvhN/H+vSkWkqJ4XS7ewHz1/krvP+06nv9wGkxK02ZeTRDanhUhUnz3A/feqetRBsFTjY2zNdsD010RUPBtU25RspgKAsfQqwcxOcUNHTcX418St4D6MAy44E0h7WyeMStC2ueSnvpcuJKBie/r7HfjeR+SfZZxvGheOg9x9+kj6lzhcA8asBF3iU5/67rVAUeUrCcZLPYrUmcfGXfloLSA26R3MkuuGJeg6WZtijeVXiWZGiis6giqm+cC4SzpSG5xCswaMYQna1kB+6nsqKb/qGdHMdMlHNOlZnvlADd5HU8VsJO1dnTAtQZfIPPUdxp9dx4t50cxzeSxSZ76plncpIqn9xJrSdjZbpNScKdpY+vzxovkAC8UdHVGVeGbFA9dfUrAxbWezl8fapG/cRGDez9PcfrO6G2eJom+4wAyXl+i97+mAaZuY5mL6xoUwJDAUq9+sErm8SzqyKmb51nGAn3U4rz0TSHtj1nRgd8xNWY0FB8YyVD5fuwl6+Ug+785YtFV8Zqi7DeIHKcxsJO2tXWFcUtO9oYG+8XAIxyY/fgvys7bd+likAarK52+DfjqFK0b8Wc9zo206bhHFYvrGUymIZSfy+TyLS4Pe/JxrhbiKy6+JnFufojD8Wbc6b5uX1HQX+bIaiw5MYfa7aLob9oFkV4wAcw718y9u4CCHn+zI/hqD085m20k1Z7gRWP4rb+Jv3JybhbyNC18TqJ9/cSm/LLkVWuFdLpsRuaMEiwEYN4UU6ONfZ+8U7gOVfN69CHBt8jUP75AgP1SIimjaxqY54fMoin3cnfF1cw34x+aWn3eDAuDxob0LOF1wJpi2EWmSSmUz/BrBAlGAfD73Vqgx3CrAOZfAesDGpQgE8Vo0bXPTXALAuBCGNAIwdjw5Ucnn3TTCYMOZ1c01nB8kb32NYNrmsVnwxOayoRHgGbaOJ6c/617BzuMB4pMjwb0nhs2h2F7vqG0em75Q4+GQCB935XjyAYiZZd0uMAK48zUB0szF6AymjG9y0jYl2EKrOSY4lw0NetGd48m3QtS6FR0Ns/Q1cds41A9KwxEfSY7ZN2ZNCXbFiLWyYhiQqH7crR8/wWldL0ACuKbkSJsfp1mKWNrbslmz05wLQUDjWgac1rXoXHAtg0wL9oPGsu9MNG2z02z2AQSeT+annwHXfvyEpXWzQGJelDdV4H4QeM5B0zY+TQCBcyEZ/ljeJboD0w+evJToMfe4FiB6hJfF+8mb+vpGkpPeHbUNTzM4F0HgJjr8x1wcUL65kpelgBoP/Ur5mRreEp5NUbY6wG6Tgq0xYhUCMZ3QxsZd4/zDB8B4uVuQMQtON1fygMsFFKW/xvG9FzI6qWw2NkAQlBj/d6u33vGcy4UlzmdhfE0cyOURl7CfYkk6e81HmZ9mky9tLhtIIlz1h67+/Imi5nLhimu3oniEh7kUzyJp7ezmEZif5kXSYoZYgZFrAH7+zIzn3S7o2OUKhJokheKC61AmvW8yLNgd0Mo1OyxaEOp83tXvVrQNEnfU8q4XfOx2hXwNdWkmad0SOLp5BCao2Y9CEHNwNQzl71TuF4TseiVB9vn67HgedglfR1KuEdc2NduRzPsYBE7O526GXMs/EUU42eXjNlTPpQdeirOxWF9uXLC7jdbUd7+ESoQDH/u6y1S5leR3KgnqQBnro7xEppKXp1BNMYtl0vsu44LsCLGp78OeC4JOylmkP4Ambqvk5Sh8cr6SSdCKDb6Es7FYv3GSeUGZ2NR3f5pYQY1hfru6+W45vlN9I4pY5fx4Lk3oAZ4MuCLkVjY5yjFrYCjW5mJpMVOwgMv5fO4W6RcU6fJjpww4GsVMAHPIuzunEeMDvHx+fE9IGmeTxGoxbdOzuNs6H4ugtWyrBCMVZD6GXMnLQo9FEWKWYqTbPNk1cuAze0PashGL9cikrDFqts1FI8hsfUqWH+wevlXG71c3d9HIgkcBUwdLo8iOSXnmXewaxJ/eoWeDsd7RFWZo6vtKEIIePyPT96s0rG9U+WdTjwJnaY7cJKR6fNf1uXp58AD18vpGLNYbJpkZbI3V2AchqLIsYSu3paXouyXX8zcqWkPC2cucXFTJpaXouil4eDwvGR0avJA4XkuytKBuf3wdWddNPIvwTSe+Lt03rMKYm0/U3xpTn2zZa8COKN+XRGbM5Yd3vfbJMj+OY7nGmbVJak4AEfRGlI+e6zAV/mNoYuw2Ob9P5Y93mEFnOb8kAhe+JG7NdRwOkPP/CEMXhvQlTWuHk95NknEShKDKsn7LuqNw8wHnhwLGMtmefCXU9lhAhyD/JXFb7uGYVt6RaUie5Wrnk97N0dT3lVyLcPmLXUNI/E2r8nDujuxtt2ZuSXelQiaTyWZzuUql529SUmo7k9fgZxJfEplM5mZRXxLSxUcgsVgXJ5kbbIk5Nx0OQTI8T9SDFrsVX3RwMGRatjqzNkzNYBHbIgzffII0yJnhTWnDFV4KQ+WQwc5OmCZjDGI+0cUqB/jBkxEbRJolj8G1bAocX8yqUZr63nYuBjG1hSi/CMFK/tw1sGfAM4TD16L40LBEZm2KVl9fCUIMh2HIYAg6o8UnVidhfAjlgokc7DI6yF4eIy5twCIIprT5GB+l2ypu8YryM3vCkHG5wqm1eTLuByEKYRhSDZFmYrSII3qMFzMYEo31jk6YJ+OLfZmF6BHoWjEUU3kHA/4ZmjqbZml1+uITMlDGwUKZhQsjEJ0wh9/qyYgvSrFxPj0M6ROVTq1NlPFFQISiWSW7aeMW5cH9OMry2WeCidzWxdpEGRfn+vJSSSimtVwYqpjVszGdfxdXnGD/3B4snyDoRCM7tTY+xuQCD4sVw7QPgaLOaZOOzSuuOMH+nsEQCJpn+2gi7zRAyLaTC+zPcGcEsjltkJ9/F7cox68ModBrqUqnK7SaKuPzZRZTxY9AebA/xnv6XRcvNiuwZ8dBkWdRlU6tTZVxwichAH7wYjf/b6zK2rGIV/oGZi0W9PvmNrIrr/TbJqmFCyOQHuwE2tPv4prKof1oSrERTuRNhgg7Y8VauYUb67upz4y5Z3vOEc+qE9i8smhwNhwZdIlshIzJre7m+1NFuwBQwowT31QODuIpS+lKx3dqxlwFvshHkcxmRhiqjjL95ONRB8U3lcN7w1CBZNkYIdtGL5eNP024CwDl0zV4M+O4r0DNEs99hll/jVNrs2W8AoaYlgwB0NHS2IlRTJqnupx9F99U/G9EPcTgP4WN3yQgsiEKTC+XjT9dLBcQ4L4uL0HbE8/UME1zV4UKsvMjMeEFqnK1E7m7J5iq5PHBMh/FCKkmFIiiKNcRNo3DvktslajUgT0Hcw0iOYso5gXOI5utwIkGGCNMR4Ce/wITO4ah35V+YuxRFaFvPItq6uI+QOgnKwVENluBgyUwhDefPh6MeqOxJ2kPk+x9kntcEnr9XCNg6GuEJU1X4LW+3C5YJ79/OIqFSqUTtVGS/vXen61XjtCIsgotBzQEILnDMCGbiP2SHmCMMB0Penge/6lRUgcIaslc75p4JPTani5QgWsIWC9ya5O1utsayQVU1a9Hjmjs2IkOUxKa7tnn1EhBXGM6irPJSgGRzVfgYKEv9QhQVQejTnJq+lRJ4sP+6dqTx2KKqzojPUtWcwJH4OB1Blxms1ti78bhMh0MnBz2f/Jp6VxruSd66FMwBUHNadyHZz03QHJrNmuExQykqvdHQunoV7ocI6hJcDQg/WSu1IOtuilIaUzJOWTleiGRDVgum4t8qWkqUNXJyA3KPZ4rdYxSc+Up/drokznnR/aV6jl8n0bfOTyoBkP4K4RENmG5bIrnAnGZDgIuPaA49uRTuVzpmVrNWaba47VabTRX6ohXelQ5KSVv19o6UUHQj8bHkMtstp2kmCZaRRvyUMeKMl8plcae7EInouipzgFKY8fGen/0oKZdch4PMC6VMw25zGZ3kBTDOFVXRHQoTjJd2+E2E9OcQSTL2aw5FjNEq8gjnjR10XVd2+fPtetwEEtGOsLS2e6gDbLwp4pWkUe86So23LoezQswOX2Q5DZjhWyCpJjpgVRd1R1x6ij1Z7tSDA8dDs4ejmYE9MX7ofggktWsucI2mqIEUrUn0jp0Egjm+EZdZrNFkmJYuMrsoDlj1mU2uyV2Ib0Lwl1J7tXEGKArA0Mns7sdCCST33NEbfbpHQwB2ascWax2KM2zGBYtZupY4NBBkrls1kCLknCVsUECkizuyhppMRXhUBoHQLYJ3YdJbspmjbQoiBYlM4Pm2ZBk0CFNnViIRTXfyOB8H5U0dmKtj0VF0eY+rYO9IHSwpLETgexihid8KL2KfSBuiBhZ5J1KgyfW+FAmv3sFzQrWdf56p9LkiUVgVPPI4QGtgyoALCOsa3UujV639CpwQ31Y6wDClHdc0uyJJWBUJaOC831Y0vCJjQ3Sq7ANdY/OwREAPo24pOkT/ayrDuoc3Me5boVTafzEpQ1oVPoUjOvmOZbmT6z00ah0KR7gO6K/2qk0gKI4l3FVWufgw9SNEpRl4FSaQLHOB6MaNiJY4uOSZlDU5FcJFwYEzZR1ScfSDIqyL70KlxjSORilvjor5SGcSkMogiYwqlTSeOB8yqXVKMpsdqsDAUY1X4vi/bRXZ0U1xEjWwNEGZ8lsOL525av07Dahm8+lLFfAkebi7XLi0gYwqjydC3nQs5jtkx6CW6lz38SUVoFRFYwGXvBRDVHdZeawI4g9mQ0W1VQdemEuQ5THQjXElmzW0AmyyWz8EqTmPh2Ls0nL9Y6lWRTBAiyq+RoUv0B3LFhDjE0ydnSZgxGg8AwqWKlftwm9LOOjGqKaNXeoB2RH8McQdWhXFGfT9hEoTWG22UuTPpKhWgwFZvu0hxAnzWG22VVIVKn5+hPXsDuWX3AsTaQoLvSBDEUG9+nVbb8vb8Tl88ZJWbMnYs42+xMX+0CGKpgILE/Q1jmUdcOH7PbAwaahcdjM0J+oktw7BS6fTVnjR+0O0sfjsCnpzwtzIViW1on7CJPGMZnNSh/GUDn9eSEPBMeaC8xnc9YA0ogDFxg2Ke2JIxTzy+Ly2VA3gajHPsLFPgwbMr+5Fo2z7XdejZKihjB8I1B2GU4hwUFtir5GYD7VbDcYyhGCS5MkWAfjQVaNkoEL0iTukCZY5ZNgHHi/Jt0m9PKED8wnnTWG1E7ZxZ+Jw+SkJsUS4mWFqCEM5ghrG0hwynkg3YnHxvmc8e4nL2E+hY0Wfu8nbPYRdJao4HtadNvv1UYfmU/v0kyu73bJXAR8mvbc+PsorbXWqU95B7tZOUPx5hW3zqfB0xz1n5bUnvg+IZzrI5vyXs0aRtroZPI7DZoRuzI37M/XnkhTep+Uoa4TM4QBdbk06RNRTo+xNrPz5xEq+AX9iWWNPrIp75dljSONOFKRqcRU60La80IevsdjAhvfXy9mCCPqEizw6VRm5HrUjPV0zQC6E1fQeU9vIj/lXch6bobUZS2tubYzxzqpMNzLnUklgmt0Jxb65HVChjCmLqt88v8bpjsv5OEqKvuOpI41YnyMqUtx1KdOuhN7qCSwgTblPTHJUNJmJyqKINjcr3HAYYSkIB+T6rKKR6FxwGAEPxUISRhvJF1wqfJ6E/tIRCCvE+9jPhdsDcosiqP6EkvPpK9THB9N+97nvpI6zqOx8XdtiWWN9HVu+RjOPcwVF/jEqUVnQn6jueRLPnDJx3TuYS64mPzcd32P5jnodLms4aQdgYOA/PGDmhKzfXC6asZ0IrsZV8C0tryQh/skxyIfnW4sazyRKQLLZqPl8UIdnW5T1oDSdkcq5gIc1JFoboSn22VCkW3HpRpO6kn0yx0dnm7rJCOKOjCVn9TsaD7XR6fbkDWkVHKkYq36ff2IhI9OF3TRmV1VsMDnrHpS1+AembPFI9CJmPJuelXVeQD+t00/4qDEtx0So878qtb5jPFLmhGDDfh0OzphgFVLGOMhvbhN6OUZnz5aAxFT3k2w6tK5CFiHo5oEqKt3wAyr1voIWDNC1gHx6cayHWSIVavYYk/X4CVJbxYBSJ0pVhUXQmCdiCE5r3cRpc4cqxqY4mv0IRb5CLBGiM4oq3jifdrwt+IweCYCrBCiM8mqYAIDa0Ps4WjCu58MhOiMsiozFwNrQ0i4NCsCFITozKzKqQ07OeSXa8K76D8Xps7UqsDZDEvHWnCb0FUMJSlGZ5xVxcVnYqjqQbCTv8afJ0BncukyRzYMVT+FF7+5P6D9kuWvgYCU6zpTuw/4YJ3PT/U+vFi9tHaf+ZnQIEqr6zrzuQ94RzYgqqzjdxdeXL2vpFEfgy5wrjO9tNmJzSiKKueNNXdf2fUzj8qVjg7EWCJu0IzpVTmyQVHlfOPv1vz8ZPV+8TOhF58J0ai62/wiu7MIz8ZvYRyXLvgTDfNGNWjtoOa01IdoFOycZIKp5MiGGR4HjP2Wwh/+uhK0ar+t+D9Kob4GEEYFwTuPNNDp6YqLeeGDiL/zeoS1zNeq8Ne584r7WO/PhD6/EaNRdZIhxq6iIxsYzDV+15AHMMvf2W8euvvDatNyFGWFyI/aJXM91LoGGCwJIDs2O2S+Xnwxbw2ik0pTFcWj8RbHpZQ1x7TZmQ0jnH4UsmMgs5G7WnLml1fw+vm80p8JPdfHaHRZ1iBj98bAyRrsOJhnXBIHi5I/MXf4sOVaw3+rylSd54PAGkEJ6Uy4zQIczDJWqAL3vr9W6t4C7KBm/2qJSYpeFEYiE9KZ7qHWNrDB34sgO/qLTwSXGua80L1FBB72S/yZ0GyUpsB5QjrTTJuc2XDBVyDGNxAP4FI0cq+WuTc3LHuFqXm2j8JI/FhGO99sUATCrgO0ozrAycMvS9ubRyvmcCgzMVH8goCxzDPtdIK2hUzwL0TQHeFgbu2iNkXlYisyhrzINOZyb82HYSRqLHNuc+lcHnhPhN6ReglfLiXzH1dhOj1pgCtWYpEh11+81iBnvG+aZKbpMogBzkhyixV/UR2MS+deL+fTcXzVwkDFUV2pOseHadRVZ9ZtVvkcVPdizufWmg8sJErh19aKuEx8RDhfNUxU/K7EnwnNQfELolZzM9I2zgIwUN0XgXaM8OTRWqm3iseFC2aBrbhiVlUCUlaL+pRXM9M2GAP4SVax1j74TjXy1MIbZvG4Rr2hMuhlUVMC8v9PW39SUH5ZU22DMYCfZ/XCXM4hN5SEwQ26bMzfGenkGqPVeE6L/H+8AH+ZF4gyMvA25Qb8jBnL2ExJ0GNnJWN+eZV1trJCaVsq8nvX9+Evzo12TDLbtLOIMYCfZxQr7pwBb+SxA24afv7Ncj3rblAjud6UfldkQl/8NaKMzLxNsBIK84nXPcS5h6gRr2P/WWmYsyusk2s8+HJ5kV+7Hi1HX1a4YWTSE8gXJ9DzpyDjD2503tajHPcUFqVZpu4fA9sO6owlLOJBLT/7vVrzgUQQZmTsbS5dAJ7vQ+0oWoCcDp1jJP0nbxfk/epap+yFDJ/VIhP4Mu8S92a8m/I12IOL52Ln+1A7inS9i1I49oId+MpaQT5+xs05GpA6mHuR3xp/BHwpqLKR1v28b13XgITP47GxWMZ0faKEFRghgA6GN4vQCq9HRFvFZTcXjZfr+Nt4qM71gUbYNMmU0+bAWXDk/GHUjnhfVkf5NLl4It6Xf1mA16vT9cCqoIsSvGvKdSQoZYVzo93GHNl2gQlnwf7yevpROyqdAa1AVokSpuludHiJO3Fr29Hj7ihhfKm+LDI9IBy+DzRCW7cIZtym6iw4cL4nAu3IOukx8iBZtisMbtjwEPx/pvUMOjFsL5/l84AzujJ+aVFk6hffizTC1qxJpx2Bs+C4+WCE2hHuyHBblq14yjpDsvAp/fLYtetOl4XiFcLUsdB2RaxWkDquYgd4BKOfzqYwFzYfjEA7ohZorv1vd2oPHVCg/WdvT93ZCpyZG00j0CWcbSBa148W+VDgvGzMmnbaFDjLII+F+cMy7rAk/W/Znm/l3pz84p1pohsvnRPT7xIHeWWCWj+o35+6exOWslqWBDam/NIegnWdQLxu68kIuKMoUQfIsSAOI7FW4No70yNx4mzKwJDJeOBWFMRww9alJrFX64AluugENsY/nU2wEg0LBHBHtBQS7jeqk3du4yDBlJwcXnV3Nh2oUfBMf2SqcEbbunb/xwvAlJZAXARrIEDQDIbzvGEPd9FyRR/K7QY8vMMOpkLg8IqrcYoABc8sUNdBQHpQuT9192RHgRp9c9bMUylwNh5k/t6jsB1TmXp+opxgIN+cdjBLr+3uzzt5DbqjZSfjxg3jElIvgyA8BGa1btTigykCI1gFATZ0jIc3Rd0VEWpHkZcHx5uef2+LDCO5a5HBU3P/2aHyr6DBQkYDiWJ7Cll4Ck+Lc61qlPfBoCAwgl0Q4NK5aH4Y4gzLnB93g7szGQwk70k/3Cjy3sqdX7mx8+RXrzguEK/kpJWjQhYYLnBmLi9KTUOiYoCJrtYRtPInbO7FgPkXUGMfd3yfjnCTOXEGEC4S+Oizg4D/fGeJH143tGLaMg6OrRmRoecr4uqyWPh+uUlQDDDRBUawDwKsa4DLeyLgjm7iNDCizgl8sQsUNTc+WqD4fOfE94U8WQy8SDwdg68KY8Dzlr9XboJr5rcK/AwmthACBBM+Gm7hCqt4R8ZT5NNOLMpO7jlp4Dn3Qnz51XvOOJnvg8WCMf2kRPDgnUYrdhwtcP9NsWkPWjP/vGH3NjZl0NdsdTr9HeuIex/F7QheP56iXHBqPFw1425cPApPJ9Ewrv/53gX8Z6tXoL1TMMBJAkcI53wIcYDxCjDnFuUmsGZ+0s0IdsCarUEzWN4XoSYX9+lWk07Rsw9uhEx1EIbg6PYf3myXXj/89z2ou051EUYjS0hY8ODFFUiw3VpNpwUnp2YcFcO/j7kgWILnOCdP+ImDPDenGD4iSHzKXCBAns+uQ/KYKvCT01f2bvQWjlgdr5izXgNNNFwaKA7NZBqCbB3NBqhXy017HZvhGdCNTb7bBglni3g4yRJWXCzDHoxAeegyRiDZRkH4cPLVCZ23og+uHc1nBx30zVZf2/+JkyzpdRwotjPGgFaKOOJeXAAceNlbRr7T3DVwBhQRwQ6g7YHDVdihMmy81lYob1wkys0VG3x2lUpHh5wsDk9Mzgtq6nb6YOWV4WiVt2EY96+eNvqUrKH7z/EIOoS7GChBYTkFAI0bQvFSheg8RGWFLVGy2ZxDTvtwqMUJkDs6utk8Ha4tsedN6XIx980i2B/nI2LTkL1tmrUFWgoKNZsfjppSg6BIBSAhFIzA5ZCj4LTf0WiABhQZ3QII7jSfDZ7w7OA37uKGrfLi4RpGmJPjLn31CBEJUEeXt/qczRxGwCgZn0ng+oE9gRIxu/FYGHHbS9ELTrVg13Kr7rYIkHWWcDZY2+jDDP8p1PgHOPKGvjiHAtjpF25/eIgj+ukqfU4wwgM1cS/mqb2wE3CQDEONkEch1XIdg0wMwEFdXC83OYyJZi03EdFtAtSrjhPUoQxxH3BHdLD532Qou+WGaOhez3YDHgmSMDGcDAKBUWIOD4ZmCEqMDEogh6MQ4QQDaDxeNRwcGyBW6k6r8rfikARV1gvNFm8/BA8mEP3vagsvuAorzpEvriDI/LqFeh7+ooRDtgKhVaF/EWFgTKLkVBcEm8wPQEW62e+nwAOPTWtVeNxaeMWmMIbtz+R9VMWlbPGmP4O806t7wBjiU7Dx31ubT7qzB6+cenMTsQKFQcMhxz6BiB32zJIRVOMdhQkStoeHExiBjIduhIjxIEif1YJa5sEqLkU3/hnkHWechRjiw7Dx0fowTLYbBjPZh2cv3VsQdNs2DYeMA4Gi3Rt791jiDpS7H4RPIERUYkQ0ZrIppMHhoUC4ihKU/E8Z/FPOvLBcUJPYjdDYA+Ph5SQj+GQdtu3vYxBeqYWSvLfLVHq0ewGMMKFXT4B1+l2gZ9+ekFoCuYgakCZHpDBkCSuBuIX39LhXaurvGQsaYJXVrg9o8LdJ4zSFPMIQv44drcAm3KzdOD+f+h046ci6RSrTTnBD2BQiDiCwmrJFFIxQyJ0z8+JZOIElhZLxu4HE01vj8HEFqHMQVFjh/oB2wjZpguB8H2CIg7AxJxqGLbU+u7MPD3IUCgjy1HWmnowMQhrs9ZM66iDQyBCuvfDuzVUU4UCOlMfJw05UcDetpuO7wzB8U3xaNBdaETygbTCe0xTy+KxGoasHkoI1Z9kN9yA5N3L1NQLl70fInRFOQ/fdUmApCkDthAESbgIGgRcRhRahhkVmhQP3cBhKTr/ew+l3yEuxo9gLXETMLUxA/7R3a2KrkqfXlwuXN30Xs+w1Do8EYjUWwmYiTsADQBgMDEDzuAWqtsSmTsstO432WsOUXVbwhHfLYrzqwjPRWZ0EjsQP3c3Fi1F1IEDFA8Lppm/CcRcAERvCS+AVCQSRjQ8WNQHDOWKQQBbiQhij882Btg+LTfBq/nkCyrZJdgONBY4XecNkxQA+aCnVwMkzN0cHXsQCRE5fMJ08e1dBA4JBO0SnZAmrxC/DBkYGgzl2cMABBKdQgTmD+v6dgWlWaqot8n1w5RLBE97thPEwcwsDSP+wey8C8BgLQC9f+vNUoiCBUIsxA7WTeJ1ghIwTuAmcTkAuhkLGFgqiEvxGrPz0X3oowPPX2A+0GTL756H/22d5P0XDBrWFmzuWsAodducMvZrvnogcJNipTD/F6DmWQIEAZa8Y61UBA7IxCI+J5o8HuT0qNf0rvCI8f42VMf29kPaRWV3BBoZjdv6Tj5qTweB2UYQIyBAgFFQrwwAyWIBDUYgAuuuwAT3NnnocHt5MQ6AdsTUdHA5VoF9BX944yYrA7o2Y2c9Dx3tpmnyLnP92n3idmyu/nSMBol0cADYhF670sqPPkQI9py5SE/PZ81cDMIEnAps3OhJ0Wmh6/LXgy8ZMb7AZpr873lcFKiX0l3bYet4POO24J8feIjEhnrx9BcnI6yfbwYL1SrwIh/cHjFQMDYwSNTYx1Z5g4Yge3R1StCg0/e4cbEVM/hrLjVv24MbnmT9NAEDfycHPl/49ufsSkvLkXZkDEqjJSIGAbc5jceqG5IWcHjmAPB7TV6nU9Puz7LiSze4sgmY/eR9sfLqe9UNOPMqRj0+ePN7XRZgAESlPPpWh1+l/FSkw4KdWuZGhBw/jsaGmMG4Xjf4kfVbslswUyyGfDWr+AvCFYLJ+lsTqdPper5Lq4n3s5OB7hPDksR0D5T2Ogd1/1uvmogNAeoAIGZ4YOo1ra8igT4vdEnlp2znJrqBtqPl9sPFhFg3DJmXW2Q4IZRtIr5+8fEcgKCeS7aGz/ySDJyaCBy0f0HD0IfEmGjFIiig0XebQx8VuCbwEtkXJZreA5u8DT2STuW2Rqy8NAeXCW3gixw5ATCEjR15l/0FAjUQZChgPkOaDiiGEM1yC+vSdIYs+3G22XCMmu6wdx7cDD9Xlh3PxxoGAxE44+2pJOeaiI0+wCIzAYAzLQdaNnX8OHODABDSwN3SXVXjs/SuwPFcHQnYpZ6OwUmIxyf65PQcHPZU651MX3zMnHH9GJpx/c1PwKAbAUJ3hqvG4FlePwrO5cpb7a3i30PR7Z8EuWybZGbQJMf8H3Pgsm4a7jy5E8PPp0tNHI4DT7bzOO3n2rt8HE+Tq6x5dRhkECIGRhqcBQEk9H1cLXX/QYNeVbLYdMP9iBHxnNB1+jsHtl0F5KHG6nYwF5ewHYTJnh17OjjeXEuqtbTQyFSEQR5TDDsRK8fXQ9Z9su5LdvREwR0wY5r3mjc0BXNo9vU4sOfvK1yec7sY2iFjojtx9azWlJgB4JCIPpkuiy5q0/FfcxeLgKl6+Dza+ziXxvbEiEIAS7OGLl6EH2wHMJnH27CmIYIybe1IwLppLc8SDIXO0oemyA/2v2Lowl82TrA7ahZe/AD7TbDcVbujBBwXdcU8wOK0fQezEPHo3kuXlcBRKBSOSuX6VXLBwE13mtiy2Lshl06Ss5cJpPIlsoGem6yhFvv0BWQthMhkfhu478BNwRCqenfwWEEcJFBJGwJEHElc1S5OhEy12i7qSgortwuvR8Pexd3RlKvddZNsTDr3KsMeBfFW6SsVDxIBDAYzRFeZ2TwA44M+o94du21eLXaKu5HoxxQLhNqx8e8RQRw/X+NB1MK+nH9q1B2/KJoAogQlQ4YRNLx7LYQKX4QCO7gtxHtkj1NFFEncsvGXjJCuEdjrnBWAAvUOAsutz6N1/hu/hp3aZo2dUwvXnOIKHCVipnHx46kPlkvEEz3/avQYfLQe47J5kx/ClUHgCOMa7wHHIX+62pov31p5S0sgcfUhU6PqjXszTp3C6zvJTOMBCTQ9gUPPDoftWRo0v23olm90RAOVfBI6/EoLsyCs9/Lif6hxAPghPRgECasvs+judY3zf1NPw6YXng9L6IEd2CX08bOca2LF4KXaJ1dZgw2woiWyQp44XQ0P/oVPZ43PrrNecYTSaSISDAEZNXfr/kf4NrTetMlalm28P7VapmqO/BrhYJozyEpzui3gI6jirTQ9nwuvvpMGqxAR7FwF/CiIonC7S+IGAgUujMTI7Nnuybf4qgj3tHW+xa3gpjkQ22JsiK6luhwLIn4cKVSUCBE6AOA6gVLtM+2MHLTq986eaVv1QhHvaO9xi2XDQjCORDfCgnU2hBr1895fhgPAgUdq5DAI4g41ArnG9EbgAtU0n9HBcxWr+HMe097SVU7LZLSj5+xH2ptDKz3Td4ivl5TkZ72AZiPZcQeq8PchUvrMYMEU3Hk9vSYlaaY1+vxHHtbEJKjYOr0Ax8Z2Hpqhz7Od0EJrooPz9EFPuDWUTb14XOIOz/CR/azL0uf0lbHwVxoUoiyp2Dq8EAezOomncPqNvdbf07z1d5PPZ80//0U5gekCvKY+q5oJTvXL0n2BeV3rwxo5i6/AqAJk7z9gDHX/bCeHmm+1idVzDAX9M0YujhzMqFUSwSCTqUe/WEdsyFSxH/4rirk8IyhVv7/BFAPgXoeMvv+MOHW2euXMNyCk2QGC1EZIdruRb2fnxY1lXxXL0K0CL3cNzyeOXIuhU7AJX3LeX5u6QnRcpeJWPl2EAGdIPkPe27tHGoa6rZTn6VQjLrAsqlg9fTJ+PRAwYuxX2cG+u/mj8g1qmEHC0gE5R9nZCtqLlYwDS2CTXCCoWDKNbt/W+CL6xu117+8dnjk0x4K8XouNsPmznHi093k5GAypb/so5CLLXiNmjnA3D6FaF+Y0IvLEMNGmaPj4+m3vm9v2zpY397aO7w07Z/j7Cjd+dg7vYNxnqqrPpJ6bDnptOJhpPjo5ub4vt6OjkpOdh9bZmvKqlpUuLKpYQt51PGicj7PR33wFL/xRFkaKlpWu6RFCxhjgYJZ7IBntgtPhr5PgD8tlrxFwbmx3IV0Xg6R/A4i+R479Qn+4u0ZWrWiWuT2H63Xic8R/Q46+IYAdJI8eXwU13L+6YlLWOuJFuYjr09I+qLKN/pT2kmLs+Yd3whiBAdYkPEXyhyjL6FdJFznsyY4c08AHUBqLvg89/DxQT2DFAd5V1UcVO4kvPJQtVDvJZBB1Hfw3YkBs7iq3EbcuIJqaDT+NYpWqljfcCUcus20sceGQT06FPTqfCMvrK2USvc5HKyi9WR0cTINpaBQd/r+B/i1KWnubQjC8oGZ3dwyMBoHFvjxigfwIaRanSxp8nqlg/tDkQMS5FKPEIp6Wn36OH1kvkSEZnBa3bGly6kNzO5TigIkyJfRkYevFFJaOzo3jD+QQT0+EfAaDLafmpAc8WaILqzkmWEG0NwCwL80sRC/Q38PDRovj0VXLxBWWvsYZoe1uAZVmYKOJBBXK9dVVa1q2lI4bLF+tg5SSRh7Lh2PuiSH1dPqgAfZlWDBenu1s9GW2Q7E/yC0yIvwXnUwMiFUPU/Dj7ii+dQwYfjpRXNXmvBvSvWGIEpUn2Ee2+TMQ0oFFKiWYVN+CHi10UtV7i4vw4GyijjZCks3QSzTIREF/CeBVadj0VuDakLTQBHkX4kxEb9A+wdHWgXwUSY2NMxSKaAI9hbxW384G/+CdUul0TNQmKMRLD/DjLatzq+SqFaAJcxF3Pa9dbA1eGtLFGDEZpJI5XWJvPT6tBIMzaOhZ+sZ14o5AQjaQSx6vnJuYeLSpBj48QWJTVlUzx1taIFy9QKJT/EVi++OJ/Fo30Zu7Et5dGpB8iYoX+EkyATxcVIdnN3IlvM41IPsQRXvivwBhVhObIbeZSfMtrxGAolHshGF7or1HNeC//Z05JbeZOfAtsxMJCElDNFWFmi6qQzGYyxLezssgH1WUyLwTDDY3jiFAXkjl3jQt7e7emwhPecuxvROzQ36tniX5vltR54oX/rresqfDFQACtPU/qhd2YGQ9Q9N3JZ0gmC6Ji9Lgqq3UWorpE1oXdVJS/+noXRK2XuB7DhspRR3Xp1pOPKih//vWiOiTlaKJi7JpkcdHmQIyVxAvBqGQ+m/+fLmpDf9Ag4WguxLCzQgRirNQI0VhRKUv0VQmvcNHl2e5WVUobMVaNMoKnTtKlQiSf1oUYNlcIggvDeBFbTLjsdkiYNhiKcba7nTYDfkOzbAuvs0V9ZAfa5VC6Q+tmonhrbQZ8sG6urAu1KmDK2U/r9Cv6smxp4l3cPKzFNgM+KMyWCirJ88WiUiTV7DiBa6zbZLwpEDQFXoUQ/fW3ySWXrRZJlLrGjelx9lyIYO0C+TZSoXwT4CezRb1IGq2b0+PsuAlz1WbpoHoT4P/pryK1wYphF8zsMqv2QAhdlJYIrIUgNKTSIF0IxJl1nx5noVnRUd7HHvf/E5UYKoOkF4g0s9do+wZRSlnAXQgSZsxBgkR0UpjZckrqgktXygH+rEjPduf/slaTqcANM6vPKliXlgEcKmU/n15l0HKJQLPtk+w32rGBRMgPRzzS30qtZRBuT44Tv8S63WY1FIgK6TqYVMobU2XQ2qF1IXeN/WYlSqlAiKK/kbDy7b8tRzxC/vPvgg0C8sTbZXnkRaWpUyBEY33SzXUfiyIm4er5d+J2Am3TUWZzIIhWNbq4UWhOK/8gVa3Di0246CVu67C2HW0TpSwscm2j0LzSxD/KVFMZ5LucfyfL/mfstbSzgrYpqUCIor8uylJjFa54uTfZ3TIcLKiONrgFbg3cDvPtv++oMQtXvFzbMIV9OFhQWOIieB2u79sun0vPLoR7uTGa1agMRs9TIURRuf8fXbRXGszt8JJmNGswS10QFFc1ugGezcf/SbTmH/s77NUGSa/DS/pMdLaZB1TCnFoFg3Oa+Ftx7tXxiU6N4mBR18Q17u4c1lacMRcEF88WD8bd/7qvKKCvv0vGGsYhchAXMtHZgEqBY7gErp/En/ibfyjG6JsZL3Q9HsA8hA3ixuw4S1ApsiIWauDaXxge7utCw8P9/RPdDwYoAMQM4o7WulRWRxsFQX9QTsRMd5e0NqZyfbMWQ9PFgTtaS1MZFFq1EISdfif4hgTah0qhFa2FBd1q4jczZScqhVa0FcLRQDQNOdVaf2nqxFa0FJLesOhaVZDW7sskL7aideCg5t7p9PaiU1VwpTHWfU7pEMhRq5YnWZG0tSi2MpDWNYit5r7WCh0zCKqptA5CQ/NwII3WWpwyJ5ZGF+ke1IuXBq5orUrKbAkE09pW/QK3awlZtbZbkxkFU+GCHkPfp0MQw/P1rm1+xrJ0Em6+SKug95rLm5+xLMcUPG/uPG2CL8dQc+e+EFiZTuIp1eT7fqRD0K3m7vl31qaTC+ajaS2CrjVZJsdZl2fYu0A/rUPwz+7UirnetPbmGDoKzxcDhOffWW39N6Sf8HKnl9sruNm1Y2gQJFw+/84OdYr0Ej7vgtfOrH1K9RGdhGFSeejs0F3ThPqj7a6XZTqGJsInBHt1mepu+1ZCjdQujmVtV6rnhOAB3YE3u+tl556Qd1hz4FhVcOIaO7aiefAJsTniLeHKPTqop5jLZO1aKqcd4ZDmwM9KdylsFmk2eW2DhLtz42zXSXN6BkeLzgfpMjfOLq6c1BxrtIoZxOqt6Bd8QshMd9u3olvwiIBBLOTKz+sabCxnrWEqpHUKDrm3Gqt1Ow9eo/zj8ul3dm2uOl2Ce5ycfmchV/QIPhX7gi+WcqXaiZ/RHHlsYj2Z3l6ujFW1B6KfFnoyvS08bU53YKC3nLJWNH1cc3xQYr+/l5Pp7Wj8vub450jPv2IWSxp/HumRZi6bPVUch63rkv2dSHdQxbYu2d/WHhjsLKeUI6qMZe1qPK5B7iNB1rLGMf2Bo/+nZY1cpD/ov1rWiDQIfu+Uc+TsavRH0Snmzf+uRVC3qvHftAi+YlUjEWkR6j/lHH9gU+O/RKeaN7+qR5Drt6nxDT3CRYsaKU2CvD2N/+uPipqkaU/jTzpxKnlquv5vFouP6RH41rT1HxWLmqSjZEvjD/UJoiE7Gn9W7KToFPLUdCe6IKVHGqEdnTO+2AV1LVJO/M+EFR25G/RIKUcWNP5XsRu0SOmghB3dr0cMc39c7sQJO7pfjxg+Ve5KFQt6znv3piYp5dB6TkmnS5B6ply2okX/gDZBlwhlC7r7W8UeSWvgyXKPlLCah9AlONahs6PFQC9IaQ1dLzRqN+u0SEep1htq/dayTpsgV+6VvmUx6zRJR613lActZZ02QakcA562lzPY6BHDpzpgQasqAxoFtZhQTtjJCek0ieHRcldYzgGrRe2DctU2jhAj6YyosdnYxUWr4HjMKCds4uh6BbXYka7Yw/t8jx0pzfJPuWYJ82CfA9R1RhYbizl4oq+oWXDUEcpP91vBHvoFdjP/76JD0hKol61m/lZR38BODtYfFvUM7GWuPF90jse0DMq1QVt3yIGiANT1DMplz9aNr2mQE4Lyn1q4ZieK2gapLrCOQ/xZX1HfICcI5bRVa9VfLXYnLeNYFkahPav0+op6B2lxXLNklYmOmFoI1nDI/mRRMKV0BJ7thC3s1P+tvqJo1LUPyuWszVrprOkg1EWjXLNVK/3eQLGojeBGxVKNo50gejirtaZ7HFNll6g6arfOjNNCiWxs3dD9XkdNO8FNOvHVftvTvtoRW1/BtZEsTkUiGaNGDyWycV9RsTE13+qcFqepUC/LQCeyCcvSPzaNTgolCaVtybD9XQ/vay5IRLXQduyqeCc6NboLqbJkVKt+ddBSjFsMu/RpMUhI6Y7n8fvtwr7R5PNFkaSBVl6XlJ4OvzpoFfbpNJRlpvSJ5KjV90x+5atd+/Qf5Hsm37PyZtENemGX2XA6Dn6ZBNl1Bwj6E93OnyeBx7QGSBwgGLTonqbXi5D8mXyb7aB/RcChfU0W6olOUOuy0YYZ9Lqu0aYFUS+TpFo4apHNjO/+NL0uRKpeJksnvIoNdjygxz6N+A9levpPB22z1LGaUE2caraWe6Lj/HkMpLHc3N4vlZ0V12CgXE6Hg/bVWfRGA+nR8FtftbLOpteVSNPGaOj92ZDVtf24EzoSdA8GnEjaYQu59pM/Ie8xDRGLqu2QZZYsPnxe36MWeoOWWtJ4sl11fWIp/fan7LUuDYgqmcMBPR7Zt926kim9h1y2kqzJ/yz9aL9tt1e5RDLSd/jdLrdr/gTCZ+ltrHrx1QEth//cfQ8ANWqHA+y5g/5Rn26b+N7Tj+2DMo30tPzz4CwrpbSdpvoMud5XEZYhZaw32NPhAKvQ9FvVlBbDRGznkLi3zcheE83Ziq5RnxsYqCa9r44mBiuDiYSXjPp0BjIxb3S3+rR4336b8uaOJP7sW+GJVJ8Q9KXCbEz/k54I9QUSDr/aqyfSDh8/RGHyq6NDFudNmxlMjHrfSoZRFA0MDPRwDGBgIBVVw6T31UTFyc9mlVBXQMRP80OJ0a9+KxuGYfVEB1XDMExmOw86DVm/v0OuYp+WSBw/lrW5qTKgI5C3upEd7NMQiWwydjeynoZAwvJG9oR+QNb2RkU7YMz6RjbUDRi2v5HQDcjY38ie0AxIWODwNENiuiELHP16Abls1gZvagVMWOHwtAKGrXAktAJ+3wpHtk/KhWBGPtlJcRgCOxxVKfHO/6OT4jAetMPhfUNGfDdeQ9YOR0JK3NgVcWQs6/+PTPNYvIbdFuc3RN4Wp+FFLzARr+EPtjh3REbjNPzJFmciZhjHa/C2OAlIIV7Ds17gY/Eaoi3O7z8aMFrjNCAfjNOwKAY+EKdht8bJQO6K05AUAy/GaWiKgffEaRiscTyQf4nTsCkGxuM0eGucv340+HJvjTMT3aiI0xD0Arl4DdEaJwDdqLghPkOxx4lAhaVvi8+wKAYmro/PsFvkjEC3aNQXI9ZrOa3guNyfKzAWptp4xcC9CozEfCrBLXIWHB9XX4wD1gyMVnAstqy+2DPTDIxi4LfUFy+e6SW0RU768KLdM83AKAZeVl8MQZvj4whFLTgKXVFfPMcCNdOqFhyLTakvYrzqGsaVFyP0D59YtMgZeL08orzYY1x1AzytKDcqL37HbHvFqBjIqS9Wpm/Xv7HJ2Xhu0Sgvhhg33YDnuUWjvNiYvuAuioGJUeWFZ/qCu9vkzB9czDFGVcPvqC8OfN/QNNyrvCjQvwR2/2GTg7MS1tcDLloHYCfFAPAicLkHXLTdB5k0DR9QXqzQzjlpNjk4K94jyot2oOtfN1BovTzSAy7a7gDNmoZKD7ho+3vAaxpSyotnaOOis1XO9QOLcNC4aBXGEbW43wN6AaJSlO/KiwfVIS0dU9HsZpWTaG7RSItjX1KHtHRMRbNeL1CSFw8qBiZFw9ukxftQA6sQNqkFgEpLJ+TF7aiBraDeFA2jEmIk14l3qQIGqnPX91EtOP7+uzJi4uVbR6JjN8MGtQB8Vg1kmhsVMjYees0t0YO4Qc2Q93qGPinxiOd98X3pYbX47S/NeoaylLjX8+64XRlwD3Vmp0arnLdGpPAO3MAe8PUMvyUlPuF5XloVMB7p3TI1w8uy4q00ADaushLbw7RoBu6NyAHQIGoWeEM13jMqBipSYuI13k2gQdQs8Duq8Z6iGEhJicc7esAjE/15bioBZhntcSlRwo+N6F/coGZISYoEerxlwVQ0uysGbpQUB9BjRp6aqASQdahzkmLKTfBB9Edq1jKUblALEHNevLrh8bdJiWhKGj5G4mBcUAnNYETqOJu4Xk68BT8K0f5a0QzcsdyikRNvw4+FqA92UTLkJcWN+HFH5KoRms2G1Fl6r6QYx49E1DeTlAwflxO5tDpgOcaqZCjLiQcZQCPWZ2v6oNls0I+YvyUnHmIAA5GsGWjG404GkInl3zdYMxj1Ai/LidsZwEbkr7BmuVjmDMbjFgbgieXl7vUB0EvAFSnxiTQDmJHl32FjOkwvkJISj6gEMrZ7y2YrHGiRrnEp8T4OEElAFceHqBYchf6ulLidBYyc6+tURbNRL3CjlHgHC/gNka/VAcwi2iUpcSwNHEArbM9UbYJFMfA2CfHYgzzgjlherqkYviIjood4QCIy6AU3p2JAuVEhI+5UCjxRu1ExEA3H7TygUcCWnkx6gYKUuAU5eJnyI7Z5VKsdDlMlSp+MKKWRg5cpX7A0VcODTGBDln9HDaoRvUBZRvwGE/DI8nKF5UaFVnD8/QMy4k4mcG84vB0OUwX5XTLidtUAVHH8s17gRRnxDiYQkfXZki4w00o9IlUkxLE0FxjNRtQL/IuEeJANFEz9dKbi+FHVUGUDC6V+OlTR7GKf00zGe9nAndF4oxi4UUIksIOX9TJQ3d9IqoZ3qAUy1bxus8/JHLdoJEQuzQYakQBSM6sYeJt8+AQfGJDNYQK1skkvMCEhHuQDGakPtqgFNbPRg9yokA99fGAzGkEv8LsS4k4+4JHcaQO1dMQ2kt4rIW7nA/dIey1JFaixgda4+piEeAcfCEh7LStGjY1ioCwfcrfwgYikqQI1NtAa1L8lH0ppRjASyWpBjU2M5uJB9OAVgo9QsmLgZfnwECdYEFCrQ3gbnWIs3ssJvkZALW7xrBioyIc7OUEyGEExkJIP7+YEK9J/GVWgxgaq4WxcPrwDPXCV2gr09K9oBr4rH27hBIO5WKx0EsaNCukwluYEGQH09O+NYiAnHz6BHzTDbgv01+V3ioFjN0iHB1nBDfEJHkqy0mmYm9AjHR5hBfcIoL8uTTEwcb10eC8rCEgGvcCAcYtGOoywgogkKwK18VCLIl/zuJMXFCJvtQtfHefzLxBe0agGEtRe/lsrnY3nFs1//gvjGPcOXnCnW4Ba/PzbsaUYLxAmZI02vcCN4kbFsSUIpTQvSBiAztZY6cwUji3FGC4PViRFufB/75ZQedBVZtCQ3Q14RzG7rhYckXz9p4clFA8ygwGjcQbobI2dHiD8PMaLhowk6QVGBve4a8qPMIMNSdMLFAYRx0PM4IaB55yFYmDk8V5mMCPJeoEFwXLpEJBseoE7BG94b+UuZhCR/TFyUwNuy0ErXP2Ox53cYKRYYCM6Z6EWHJ1aebybGxQiQbfQeNzODRakhXS9QCMeNtPl8eUOSVEtvL14SACY9SGSpU7+YONOtTDzGOcGDUlSLcSnWC8PBiSrWsATW1HcCG5OcYNM8UiKaMxdKzg6tVw+bEiyFmjGA1TB2eWD1zUQ20c6XB7MSLxaIFbgBeB8icI8/xv0Au3yIRqKHNWCo1P5MifqBUrlHeW2C4SCZFQ0eIIeGyVCUQLNbGIqIJ8vIO6QLATUgmM0Eci72cGEZFILJGCnOc4XCKl/mL8vz2qBhUiFOoBVylckqx5oBiNPK+z+/oGoCaAhD/lNr/A75Ao7GBjwtAtEW51MtPd5gXzJSDa9QiPyXnawIfE64B7iMz9fZiIj7MAjmdVAM5uAtdQ3osq0R9jBjCQogmY28YyIEqkqCXi5L7teYL6EvgQmRQn00jexBWZIleb3soNoJJK1TuwfpGmZT/CDguRODbg5hTvGFSRjaoRJq7AjVdGXbmEHC5KkBtyowB3jfsdsA9I72MEdkqYGzLTijnGJSYUdJCSDWiABr/82gqs1/6waQCoIntUCA5Ns9j8WeMHaO0gFwdFeZwWOnZihf3LZDuYFDclNBZiBkVKeK1eGTvN/ZgUZyawG1MbzjnFIvtKJ3QXVQehbbbxeICBNv/5utovgBBuzzFz/auO1gqFWpulXvwsynMD3DlEB0WqxcwO64zBjjsPjjGA2EM0WB3jU35kUs12bCgGiAqKsFvgd0/Rr0BX/Chy4/4lAVFiwWexEovnu/kl0xX8EDtz/RCTibXZ+Dbz+O1L8hshwghFJ61nNrM1OAfYWSMG4ZlFgBAXJ0PtN4lIKhlo3pOnXXHeMKw6yBlAbTyyf7ZGmX0vdkWIEdwhYynGK1U4yjwtObx7z3xcDRIUFi14gIE2//u4x/4tnL3JISGYFoDaeWD7710zTr+tj/gXPn7PZCf2qjVcLFKbp1/aYf8QzxzsxNCRRAXj9Tiyf/eb0GlwUHaj/D+d3MXpDQqzguKoFXpimX7cj/Dec1xjjJIXBODS1wHp6DS5K3bt/PBdE9fpZCrlniBUc/2i14wFHTLKZ8c9o0mGdPiNCrBCRLXd4x6MZZPbkH/+NjD/MwxCCV1P40+HUvfsXMOXROY/JaUrBTGvcgIRaQTrT/nd6Ya/H+GsZzL3Dq77g1YLIfHqNbFLdu3/5dyrbI742OFktwKzBhap7V6h7H6nCJoPAxFv/EC//jkzWp6uDwdfjJoPI5KZQWB4AGl5vQng9/yM7rbbBiGTWCiSiebCrlF5rpxikKzIoSIJW4NqvORGmi4wy2OMRJnMTdQCwLOgmgwm7fkRQBlcmRSfosQmVqH587Ze5u7EJi3lz3uAsOgFPqDtOM0saRVCO12GTQWJy1QR2YCjZ3B75XkYZpCeuqZubpATsrqMuiz8jVeMsMvBPvDERrKYhaYVmPAQZrtasSJ7KxRBBY9JUgl+xN2bnv3iWqzWNmupRQRFkJoMC6LYZWgb0wjw5WbsDVB8gmBLYm5l1wvrObPtyE8Hzkz97CWxMfNUBO5LyuFcmuUNAudxJAp7JXBWCYKqV+eGSVfcuPwlyJBNIYGYSej2VCiqhUyi8sXl9+kO78WBepPEaYV6fmbro5xPgb4lBArFviPZwd40wH6Gl+2I34H5eiwRGJqn2OlMI853JKIGXU37+EihMhmr3z3hH6JXZ1xSlqyLptOKDgwQWQqcP4GrfbRZ6XAEUZyNaHNsl8HwCNwlce4V6nWa0znXZhP7VtzwzeTkFAVtikEBCdMoIzh26JdjnQgBJpMWxrsBdsF6MzbXvghfa4Abin4eANjDQnLNaBdCgrLX2vagJptqgDN0A1L6TBZChbLXvUGZ7fCvieAxlE0A4iZuxCbX/16sl/o0Q16lHaq6D7wigcdmRj+d0UhzPJF2ywSN9YRRno/LMJ52qsZXP3C9nbrD/IwOl0NkrlZM+pQKNwJwmaGx8rdb/wlYqhJlK7ABobf3MJ1IJY7X8F/wOqj0OZeQzxhO5CaBQO/n1WitmIdjbS8R1kiL25Qzw5z8jnwUCWuV9sa5L5IV8uCRiPWbWYX5ksZ7++ZrPRCXATrJebWr5daR9vKby0k1dMKY1s5VPwnaq95V2GSR5OzqmLTxXobCkjmA2JYZPw+IrLpT12XLO3vdrQbYjEUvDM8aTmflkbB5MGCswLMNsLSugG/YR2pOeXIauQB6TRzwb95pKq7VCI+zndGHS2GNbxrOec/0bz61fzhfmRljW6aJbgdBYxmWuNMnTBfEEsHn0qVZ0hF1c7A48NzjP51yawBPHXulU2Dovlhe29Chd9hzMTGc8KyeFTwG7L3Ot9FCSt3Zjusrdl+B8w8oyin6VUl1/xDOBudVabfQI33ahw+wSprQl0lnP+3SNJ5Hdi1uriDCmLVjMaufw9wBvYr2nScop0Ari1I/QA5kg55duep2t3Ev1YvZBfsZezvxATffNKuPJaPdfhyoo7MNs8V6qF6LChmXEbMcT4lmCeG5sd56vVVRY1meLNaaKCyV2QzEVSzwvjHQCu88H5idOJi3tcnlzOyFGaoooU+mJzouUz9aedp6SYuwqyuqO8K1UmWHr6hQHVu49iblGseJZ4H0ykqrEMKbNQi1EL1SIqymt0Tn3qJfxJDhhqVVqhBUaY7opbliL5fSx3D2jYP38Xrpspqx1HRF8eogxwURWGw9njOeGkU7ut7mKnSUgOcLa1JhxihMe7AH5SmfmD+KB29HfS+u5WF7I+0OMmSaYD60BzipGXaun1TYYY7cv4RGD9quGQIpWmonxCGc4m4yn9NopoF3uID2iMmRF5qoxQSi3g6KC+D0XOudnRM8gaDv6aNJXFE282s8xtU4hngrO4gmdEDsVNMrtBRj6aBWd/O9kN8fUcYgdhyvtwnoj7Xm+IJ1NyCibyKWaICyvwU7UImsI0sEhQcaWAc7eASudWUovuc/JECefVqG4N0lM3Xuo/rThDsCNtKcUQc+7juBj7CXSGr6C71upBl2i6YUNcIYu9N3jmfq8bTymXihptgG1yJpuCX0wLhFOJz/EEQNOcIzR3AvV7ks6pKtJptL6KkqVe+SFTohdCNLxwjrt16dqBScdbtuwTvK/S1l71Bra5+fRBmeJXbDSCeJ6HDBkgGpim/S2U8x+a+t0lZhdO079uqaWifbQQHuKEZyJCnj71Mnuh6mYaMH2yynw29DSdF2KANmxfKZbBjqJ8xq6Al2YbcazSu0S0OBzS9drGYVfNprtRN02s/dbbi2l6/VaCiq9gp8JhkD9VvKbKJduRjqb/F71DvPN+5xbWw9+c5fC+d3NlbpRujtN6cnQbpak+3Lvjgw+5zy0h7Cmd6GQdkT5ruTXO6lYLAaJISE/sYmw/b3SeY5RjOCMVPFTAv309CHc/KNQjJmCRA80MNSN+rOWO/Wrf8fTid2wQmCep6xRwQQ5tweVs6ccwRn6HzNoHIaey713BtyYyozH1z7DTd9wo3btUJPl1s3IgPq+xlndTCP16Ns4e3YkiKdfXXFF2bxe+572SOe5K1Y8vufKaDc1lVqt9ZVe1n2MUZDgTG5SclMzhJ1spSVhtMx2JYiB+1NMSkZqGwHmPGNHSKg2PuLxAA3sCoZ5RxhFxzN0xxVPHKt2WghtpGuZmTBOVHQmyKdBOsldOS3V+srX5R6iJEEZ/QiZNtW0VEvEU2KUJCjFG+kxeXWCn4R0+/dyHAmus498PKvBDJpE/rAzQyXMY6FomZUkKKvThJbXWYfEDLukXvkfEWxdsgog4xpBtWmRGDHziNEyK0kwnh/KB4B77ZZrk2FmAeXQx279lpdAZjrjbPenC2bbyauEXu7dYxQlOAvtdsCSnpXFNu5ddihBQjH0tVuuEvDc1qTO2mObDI1xG0VSlGAnn88ncLOWvHbgeUhFenfQDBRJUYJblN0Tz6WpBfHgm4T+olni+TSiJL6gQJbfL6D7q/LIDqC77jRBJGUJthj7jFIoSmiH8tp5N07RXWu8QiXZim1TH8OURauUsx8KxNqKKR83QiRlCS5dXU6Q0TpZiz+iP8gUcpjupVygSAoTjB2FQUyDo2388naZQgnYnY70EMmuBcWctzQ5nS2yBZteNl9Cd6cjBwIvMUoTHKJhXrXWvVnxyQ7Rvkk0Yxbkd9QQo0DBzn6osv6jHzYFu30pD+HGhQrZ03fPKujCQpPXv4DTYIuL/q+BL9c/3vfIgxNf6EYTSeL3rbFD3WmVQIxRnOBb5gvXaQj+sM3orz9rt9tXB+F2iz9Y0S1/Gfjyxx+Z+EIsJI7BptzESL7pI8tElBs2WXhPCY3lhN/Irwa8is28TPqXh7rbIqmUTjPeB4gWG3mCYzRnVzx/CqeFRwb+q5V80vyX+7r2weH14MKxqC19kIS911X2dHqYGLCMD/lX6vf2i6EjpO91pBgtNqEPhv5JnQ/kKdnTORFfrtjD/jFovhhLq5sS3C3/zpgt8jTZjJ2fvDSZC18+dXCa+fGKDazxetcM4lCOPXRd6ATRfidxQ23mq7X45dOnjjKO+mzfZ/D97fi1+kHHmkFaymXoIcd9rpAtvWxAzHpYGMXs++XTw7Yuw71ftoHthVQHe1YSukfQAtdLXz1KJDM74j4XwXkBZ1/At3WvlOVpeUc21E6wf3OqvAwH2VNfSvsqYDb31RfPRVKhu24FEnZv7MFefv53WB3soQLpN0+fISNiSewZzBRjNErEl3BmsI5L5PmvTo8RQ4NdOCfpst+5VzXlhZaquLrovk9NgsN1RMYCFizcWkeivTR7/C94MC/dOmJr7/a+cwWmKku/bQk9awcepoU89fU96pYsfjYHTPiUNAcDpgTpI+jCWe8rUUxUz6Jbm5YRQaCEiS/b1lfF1tNdXW7vQnoI1+v1Wjrozu1SynVKa8vbbSb1vBiCOUbBq3XgeLuxDT30m3sp5aCvvFsbcp71Qo8LHYTbk921jX2PlbLe5ypMBtVv7tu787wTQn4XHv0uRI0UQqno9a5azsL4VnowpIpZl71aix58NciUYux1VWe+RNyrlh53xrw06VQM8eZnPTrVRijYz0hsU3+stVYR0pJ6Y6TpPua91ipDWlRvjOzKTKofH94MoUVmJNnDeVVliB12Ejui/AAppFn3xcrQSSeud2XKq95LE5QyYwZbUHh7CZtL7P6o3Su6pTbWiptTZrwFRbcEnINmqi+ZvgeYhKBUhLcjuayzapPf9ooMc4yYGbanAYNS4/sz0zbDcxA6fKwYenj25MCYMpEttWutSjLi+DAPhO+D0B7/USTCbh1/QzvPzBw+Qo/FmCDOED38Wuv0GjRYDDqOFm5SRmPSrMFijJCiUQax8TJc9N32azGPc9SCzDK/fpiNtlNbfDidjzO0URGyhu3UB0uOv607zAM7LqRurhH1ul8SOf7W9tNUI97lx25vvd4F3rve1vHTVGO4yXAd/LoPsyqy77IWmf0Ri38pvWSDX4UOjNAUo5iXpruKHw4HOarYScRLcLLqJz9A5lYhL8nJem1znX6RP47OxbxEJ0uoE68sbpSu7NvgInvA7kh76li8ettWay03OVX/iiGG0uvwrJO2mbmdieGJ0XGryUrmBc+7Tm/OIYA4nC8l626uKROFc6ZgOXJDNgwipaysxnSkCV5U3/zHgyAv0ihhSe+te7lm2z4TZO+bNHsdq/V6q2ReyLtpYmrxknNHjmaOmKRknj5RHyvvpvbIDvndgspKNvghdVmEXtxN7THBgq5Kds7rVKqZQhkMcbDM706wlFSygTXmF95rrTf3qRoqjPv6fr+FyRbjU1ry/k27v9vBZK5dkwLYNQxmizGUI80+dRmhbvylCm00WczjImaXWMTyqo+Wymq+DGuYJn0l0r8kg7GWxsmYOdVzNlqyybpPJuzG2naLZg23nBZjRd7sem7FSHW98mxuNX7X0UjnZFb969Uwx70yPci+FwYIz6J3XoM5jnRLavkW3ivZLX5Yr8Ug52eznT/JHbwpJ6T3vkluMsJ32S15NrnDNGWZUhuyn8N79fExGoQ/JDyDHf+NliMPks5T9/qwPRXWlJ54UGrKYejwydVZDt7d2lrO3l8Atw/x4BnhGVp79IjwdH1mcfQp4JmOPpg27dhDR3NK2A7+QarC0Yr5xBAusVvZ6R+FE58EHnUenP84/3H+4/zH+Y/zH+c/zn+c/zj/cf7j/Mf5j/Mf5z/Of5z/OP9x/uP8x/mP8x/nP85/nP84/3H+4/zH+Y/zH+c/zn+c/zj/cf7j/Mf5j/Mf5z/Of5z/OP9x/uP8x/mP8x/nP85/nP84/3H+4/zH+Y/zH+c/zn+c/zj/cf7j/Mf5j/Mf5z/Of5z/OP9x/uP8x/mP8x/nP85/1DYR;" parent="1" vertex="1">
                    <mxGeometry x="370" y="418" width="110" height="110" as="geometry"/>
                </mxCell>
                <mxCell id="10" value="" style="shape=image;verticalLabelPosition=bottom;labelBackgroundColor=default;verticalAlign=top;aspect=fixed;imageAspect=0;image=data:image/png,iVBORw0KGgoAAAANSUhEUgAAAJQAAACUCAMAAABC4vDmAAAAdVBMVEX///8giP95uP8AgP8Aff8Agv/I3f8Yhv8NhP81kf8Ae/+fw//p8v/h7P8AeP90tv/2+v94r//w9v9Dlf9us//T5P+kx/9doP+51P/b6f+pyv/C2f+wzv8vjf/O4f+JuP9Pmv+SxP+Tvf9opv+Fvv+eyv+r0f8QQk6QAAAOq0lEQVR4nO1c6ZKiOhSWDiEBQVlEQERosfv9H/GGnAQCCYszTc+fe6pmqlpZPs6+4eFgpuBxr7Oksiq3iZ556s8c9ovkP7MKI0wIsdg/ihFJ2nv4LxHFeXJieKwxEfsUOf8MU55gahkJ47b4J5CcxJvySCF6ioLfx1TTHhKhlGJBgzCxlf8ypNRF/c2RGz3vThoEaXl7tpUtRUq86Fc1vqzEnSm2okJ1AqFfZuxDIJT9on/IpTbZzdXwdVATAQtXv4YqF4pDreuMfIJI2CVNfkndHcEn1C6wwUmw4FX8G5hSS2AySW6gMBOo2l/Q9lDoOC3Xjnx6oHf1/qAiwYDH+qE1uA28e8xxABNS+eTPqU2EQNn3FiAIT9GnIGJ/V7n5vg0c/dwX083mz972H5SUpy12k5oODyrw7btaYJyA5fW+oJTRhuLIdOecKzveVdfvHIN96z+ohkQBJaYADALc1VlxDDTrFcjB1kAEt7r7fpDJY/w4BScujOEORw6KIiJD3V07J+u+I81+oGpgzPDBkXKNuVV9XpBMFT7lWkWMdvATFPKnxtEUVHQIGk8qPJ3aP/BwOSb9BRU86tlK9i1BMTOTzGJZy9iDP/HYifwwOZ3tEVfJDQZQBz86EQkrUs8qMT9rL/vjak3VOyqgmKE10mlhpCh84HL72yvb47EYqzozAnWIn0jm50pqEDYdB70NAfyPiF8dq1Y/BsW4kknvYB/7D9vuIFt3Fj9DrpazTEEdwjuW6Xn/Wa0x+CeJM4Gqpa8GiskwAmZ5vQ1y89st/AEH1FBiAMWMlKcGQ3ZzRYaDfox45MMrnGJRmx83gOJGux8oLj41YBhAFaJgGMxtX/Fx66Oqv9ZAxbUHXoHQ/rOI7qnocHU1ik1BlUNkHpIrHjHtvboduhzGoILWlmHZG9KbkGer3l5pQs5jn1pcqqDC4xCTG8WZpZAZ7hVmHjy0WuaA7DS2TPXoUT0r52ftVmb5CQ8gSsnXg/JlR6NLisdMaXc1PhHFSKaDyi2p4Fr/LuR6hvcKfcwtQtU3+HTuF0mbYSE5SuupmHilOJL5D1MIhcPgcm5QOPQJS6IlKGB7NJt+/oME3Y2hPVf0nc/uzpWhh3bnZ9h79jigzlO8ZdYXfsQzts4hs9i3xdHymwzNHd8VosOJsV8FRdmOat5RyrWKuv2T+5VHCMFebSwMHA6ZVLtiklqFFcV12qytzcYVQzWI9u6aBUJaW4J+DN0NvFvN11MJT++tu+jY5Vzd00f1JJqeaC2V9Bs4cLekRaUwA4NDzWLf3hHZHtqxC6SQb4mmdbXAAznksvfKzTVUYppAPD2scApvsvr7jSa6oECmc9TK9IwyvPVNhVXF+0mKZeJLiGc9y0G5wvQeIZntkd1qdTOFNR5GoNht2vp5PT6jLKlQHw2xpUeeoLxfb/fyXScROjk7Ly/WQmiZoKEzTCjGCGNKhmkt0YZc6TVDJxsxsk+kvW+duYV5XZ08m51oe17ydBaBxXU/AdWJ4moSW5zWUmbz7CmqaMtAPqwTjNXrkuS2CMuvLZsYEBFsNxNvkWYeJdOjvNWBfHikaHoHYrvLqhpfEzLZTej+zh7jhwmfxMjURU/HqGiQ6TStNtEovbZi7MDUyvZoUt+nZ8SZ3V+P5c4se+6f3tNyeoXy/nlJJ29lVQRXq41BGNCQqD7mRazfRATm7lq0SrKoZTZKpfEuDE6vkk2Mzcy+o7aperFQg2WPyYEiZwZ8LP0/supcMDHI697nz/nXm8BE7ewuPHT4ODZigE3sFV4BqLl6UyQLlBxHyalfiyIImc8rhYbj8dAuLOUzVsvdCQBFEmNG/AR9MuQUjhCrZ9J2X0hOHzWFNVyRJhtAmRvApRg5mzZMwkak8AZbgjKJGBX6LjK6xexXgCKV4cYw3p1RnLCZlmySYHg5Nz7PwbKsJe8rQJm06s4vTudMLIQKzZuKFurq+TUDMMzF5F+CstBUgEJAeNbXQQ2msYq3j+ZMoCPeyrFOSyskEhTBE50FjTIoW1iIhUKoVqsJq3h3lbg6f/0URBbQJYMfgWIMH98/mptgtchzuUn7IIjxw/gwDtdnhGXlCSBw5WY+HiigJgkL3PE4PYHvwVCY0UWGLjv4TX0afmdxgECDPoB+z7yvktYH2u4OGHwo8jUjAXuHaWbOG3Hjwp53LPS5ZYmHySzUVAvlmwAl1wGQ3d7Twvf9GDYGrMnhsfBB0Hzz+WmnwFeoMTa57xAvKcgPBq7zSgWgkrLPkClikZcRH3vJdmQpV08aucMEf/JGKklU4t+fQPl9GfjkXgZKBUQjNyeg3EPhDlkTX5CFvhF3vL7r2afO7cQSk+yRiNpWyxYxV6njyT5xde7js/BdKTSdV0Ed4sjTt1ER1zFu+t0IRe569RsX7cwCq9WBCjooiPnenk9SqMV0HWEO1OHwyBCePDO3ltDlnsfLswmf5kFx44PWL8qEPik+/g1QrBjKWFXTlTWysuHiEw2I/jMl7kjxDQR/0w7UA2KgzO+ViQ+Ib74dp4I68JqoTSq+dD2Y9kNloNpzO0CYIyPqPvE6Nxa2anKvxkIYZMx3nSegumv5fsCIK6d4mnwoS0YpMLgE7xEoBC6BIxCJBPBJjc9ro00dlKAYnCf4+FLKYMSnQ8mVDY/Oa9U5VN+ApqrjCrmD1TKADaAOXGZUxLAcJDgpFcAsx2IA8xfxWPJqxKdDwGU8VxcsguKBjcqw6XQSROP7x/zieJz0QkCWwT1sUaf3YwcPm5HJfO4yDwqGAb3NlOzak7z4CWo3CY88DesfhhkonWz1xMD0hU7TPCjY4SOWvHpcTvgtpDCNFmJ40ucuaTnJGKDxelrIh+dBiW3H2SeCPRh9ESaGqGnNZSaQpNNmHtMSqAPENFtLqYDquVxb5PauWWcKMpnGvAkqF2HFhCqMRKNdl4JM7hOTgMRK9fL+xRKooe2uZa6+6FF6JsApeDVa6QXNDfhEyWKfahGUCCPdHHd0kfgmmhUzDywSRK3tk8oxLFluJiyDCizZkmiufdFSHOWbG7iZWYyr5QFW1N8+zPsB+mllkLEMqkfVtaaq9ni9PtsK962g+YJEoiIU06y+Xo91QvvJMF0bZKyAOgRDRkowQkjp/XnZwgLhc3hbSJwn/ybrA581UJ22G19GomR5QudU2HSahZr1Hu46KFZI6S1b4iVr08luT1NP3mfGsG+DYobc4BG7mJ5smbkFbYXUfJkidwukjaBYohzhk427Riy2T+S5dccyuDYnD/HzkHfKtDbvX4HqKC6PEaNr+eZKQHGr2Wn1/Y3387aD+kX6H9RW+h/UVnoHlB8URfD+okIYd62ld2wWauv1hZb41jZuxShpoplXkowUfH++Xq8P9u9z+0y16EARsoLo3nioixn8H7btdpuzCvKPy+X8AXS+XF4bcYku4tIh4d2dvrOM8WroY5f++rh8jOny8b3paWZamwOl/dsi44gcrTx12fNoDGvLJmulrfSP6U5VLm0eJsafUy5JOm9gVqS9kTGium+4YNsjlcXicj/yRPOpQvBSVOny8eL/S2Z9rqKC2nDu9V6Z1lLsRo4fMwpylhCLzH22ceJLTOcPZnRxGIZxUL7O8sPXGqpgshY/oqcYGtqN6gbiqyvLFbO6xwLT+ZKrM5LiW3DrvMor2B+0TIeJJTD9neVQLA4RYuTwp8D0Of1WSvX8vQLKgWGKIeP24V1I7Bo02gH9x6YeYQkMuRjuHH6J79ayK5jbYd1UoWdJzY0k2Aqfdqf4s4j7mgd+OfDqtZIXizaINkaGNwK1/pMkCFBEl/vXeVFCwKsZyAO1QhKx8ePZs2H5GE27CYHQp7nTQtCrywooYAkfDigEL98tjVUTPsSarvF+wz3n/X0KrFqLU2IEjl1VUtA8XNqpTGHRYszKEIS3VIJx45xnpaRIrAtUitpW01cnNRJvV47ttgA1X9oZEoesZgyy4W27udAs2F+Xb9r46bApFssZMnB4Mo36XmdD+OLyW43MoVwsIqipuRAfIBv4unZxv1ZYJgwHcBTacvboSlw2K7b1veEYTtGwx+OdrKbNoPPMv2ts5rspdEuO3Wa25YFYec+17/MWZZ7fP1bUvCOHc/NrHVT4VOZ9RDSTYDzOpIQtRGiXycceC84UC18Lgxgh4pJlAiLmXpZjW8GPWtX0jtJMW1fjTihsKT4efJez5Iq6sUdEAS53ZSJX8NWkaRmUD9C3gGJ5L53kvTCEbGg3KouoV3Z5Q2dtOQKzBFCQYRRKVreSm8RvgGJ0y7DKLljeiTCO/LIi3biaxaTkEWQUHAGMo0Drg3c59doK6hAWzwThbkBq9W6KAaEuMwBu+0znq4paiGt3oy4YfDONkjq1HG7f0CnlpPJ2hDQZfFDN34WApRank7DY1wp5buNJ60vzPC/BBy3vW4L1/cFeecALQgpyyFmYk9VLkFlEvNkGv13gjWT1o35KI5iwLLYRjwo3JUGGt6gv8WtTnmcieKFzMfYlhtgHKd556Y6PjbHPQDDLwAtXhxSeTHIQzoZFhYEjNjh0neDXShZeDwNGaXtQ5XlF1Z3ztnhspLXXnmrzKpq/4j/F9+c/wiTeMSJzU3HYGjGsPULqOSeeEOqvy5/+skAtth+NjJYTSt0844/ZCqvHtF6OzpF49Wk6weckNpaNKfxDVJxfhmVBUaeu5DZLVMBQhqDp9CJokcifjfHkJiq/15THzofA9CeOU1Iuf0DBOgb9Y4dBJPbmiTXz7o2s2y+fyvsWcSrbHmbJbqbbSeYLVvvMu5+uuz8zuflN7LkHDvuuy+Xz2yn82C+c75fsol3eDMUayR9mY/kwFj/z1w84F7pmklcMVk8yrflLPnXkzLw3QpC75P5kJ0Oj8+Un3oSLI2pYcsPW2pta6csE6/L5Q79zVzanMbcIPmXrMT7OL5Ne7PlyXn6f5y0qIpf/GimvcxBuZt4z1cj57Bvp58vl4+uHf+PAf9yjzK0sN6vzxxs/0+On+VeXFby+8mL6JP8BhzDU1IVltyUAAAAASUVORK5CYII=;" parent="1" vertex="1">
                    <mxGeometry x="290" y="203.25" width="90" height="90" as="geometry"/>
                </mxCell>
                <mxCell id="11" value="&lt;font style=&quot;font-size: 14px;&quot; face=&quot;Times New Roman&quot;&gt;&lt;b&gt;Push updates to a feature branch&lt;/b&gt;&lt;/font&gt;" style="text;html=1;align=center;verticalAlign=middle;resizable=0;points=[];autosize=1;strokeColor=none;fillColor=none;" parent="1" vertex="1">
                    <mxGeometry x="15" y="392" width="220" height="30" as="geometry"/>
                </mxCell>
                <mxCell id="12" value="" style="endArrow=classic;html=1;fontFamily=Times New Roman;fontSize=14;strokeWidth=3;" parent="1" edge="1">
                    <mxGeometry width="50" height="50" relative="1" as="geometry">
                        <mxPoint x="90" y="392" as="sourcePoint"/>
                        <mxPoint x="90" y="292" as="targetPoint"/>
                    </mxGeometry>
                </mxCell>
                <mxCell id="14" value="&lt;font style=&quot;font-size: 14px;&quot; face=&quot;Times New Roman&quot;&gt;&lt;b&gt;Web App repository&lt;br&gt;&lt;/b&gt;&lt;/font&gt;" style="text;html=1;align=center;verticalAlign=middle;resizable=0;points=[];autosize=1;strokeColor=none;fillColor=none;" parent="1" vertex="1">
                    <mxGeometry x="30" y="181.5" width="140" height="30" as="geometry"/>
                </mxCell>
                <mxCell id="15" value="" style="endArrow=classic;html=1;strokeWidth=3;fontFamily=Times New Roman;fontSize=14;" parent="1" edge="1">
                    <mxGeometry relative="1" as="geometry">
                        <mxPoint x="127" y="247.25" as="sourcePoint"/>
                        <mxPoint x="287" y="247.25" as="targetPoint"/>
                    </mxGeometry>
                </mxCell>
                <mxCell id="16" value="&lt;b&gt;Pull request&lt;/b&gt;" style="edgeLabel;resizable=0;html=1;align=center;verticalAlign=middle;fontFamily=Times New Roman;fontSize=14;" parent="15" connectable="0" vertex="1">
                    <mxGeometry relative="1" as="geometry">
                        <mxPoint y="-1" as="offset"/>
                    </mxGeometry>
                </mxCell>
                <mxCell id="18" value="" style="rounded=1;whiteSpace=wrap;html=1;fontFamily=Times New Roman;fontSize=14;" parent="1" vertex="1">
                    <mxGeometry x="540" y="173.25" width="470" height="130.12" as="geometry"/>
                </mxCell>
                <mxCell id="19" value="" style="endArrow=classic;html=1;strokeWidth=3;fontFamily=Times New Roman;fontSize=14;" parent="1" edge="1">
                    <mxGeometry relative="1" as="geometry">
                        <mxPoint x="380" y="247.75" as="sourcePoint"/>
                        <mxPoint x="540" y="247.75" as="targetPoint"/>
                    </mxGeometry>
                </mxCell>
                <mxCell id="20" value="&lt;b&gt;GitHub Action&lt;br&gt;&lt;/b&gt;" style="edgeLabel;resizable=0;html=1;align=center;verticalAlign=middle;fontFamily=Times New Roman;fontSize=14;" parent="19" connectable="0" vertex="1">
                    <mxGeometry relative="1" as="geometry"/>
                </mxCell>
                <mxCell id="21" value="&lt;b&gt;Test pipeline&lt;br&gt;&lt;/b&gt;" style="text;html=1;align=center;verticalAlign=middle;resizable=0;points=[];autosize=1;strokeColor=none;fillColor=none;fontSize=14;fontFamily=Times New Roman;" parent="1" vertex="1">
                    <mxGeometry x="750" y="143.25" width="100" height="30" as="geometry"/>
                </mxCell>
                <mxCell id="22" value="" style="shape=image;verticalLabelPosition=bottom;labelBackgroundColor=default;verticalAlign=top;aspect=fixed;imageAspect=0;image=data:image/png,iVBORw0KGgoAAAANSUhEUgAAAgAAAAIACAYAAAD0eNT6AAAACXBIWXMAAAsTAAALEwEAmpwYAAAgAElEQVR4nO2dBbQmxfH2C9fF3d2DLu4aILj7QoK7O+ziGhyCJCzuGtwtSHANzuIuC1lcvm8qc98/l8u971R193T19Pv8znkO53D2dlf1Oz1TM91dRQRAZzB3oeGtjQCNYMZCTxSayNoQAAAA7oxa6MpC/6/QUca2gGawP5XXy32EoBEAABrJcIUupfJmzhpaaBRTi0ATuJV+vWZ2M7YFAACAA3vRrzfyluYxtQikDgeNn9Ov18vXhWYytQgAAICKuQp9R78PAAZYGgWSZxb6/TVzr6VBAAAA5IxY6Bn6/Y2cdYKhXSB9NqXer5v1LY0CAAAgYw/q/SbOutPQLpA+x1Pv1807hcYwtAsAAEAFk1C52a+vAOBTO9NAA7id+r52DjG0CwAAQAWXUN838JYmM7MOpM771Pd1802hqe1MAwAA0BdLFPqFqgOA5awMBEkzAVVfOxeaWQcAAKBXeOPfs1R9A2ftaGQjSJtlqfra+bnQvFYGAgAA+D17k+zhzzrVyEaQNpz0R3L93GZlIAAAgN8yaaH/kjwAuN3GTJA4/yD5NbS8kY0AAAC6cRbJb9yst2zMBInzGMmvoacJdQIAAMCUmQv9SLoAgDcK4kw36M4IVKb91VxHG5hYCgAA4H9cQ7qbdktzWxgLkoUDSe019DKVm08BAABEZkGSHfvrTUjtCrqzLrldR5taGAsAAJ3O/eR202YNNLAXpAtn+XO5jl4lfAUAAICorEbuD3/WJfFNBglzFblfS382sBcAADoS3rD1PPkFAE9EtxqkjM/19GahkaNbDAAAHciW5PfwZw0rNFxsw0GS8Cf878jveto6utUAANBhjFbobfIPAFhTRLYdpMlM5H8t8TU5SmzDAQCgk9Ck/K0SigIBxnc/SUuoMQEAADXByXs+onABwLZxzQeJsg+FuZ64lPBokW0HAICOYF8K9/BnHRfXfJAogyncNbVrZNsBACB7Qr/9s66N6gFIlYcp3DX1caEx45oPAAB5E/rtn/V8VA9AqnxOYa+rveKaDwAA+VLH2z/rW0JFt05nEgp/XX1SqF9MJwAAIFdCbdLqTVNG9AOkx1JUz3W1X0QfAAAgS+p6+29p6XiugATZjuq5rj4l7AUAAAAv6lj7766t4rkCEuRkqu/awokAAABwpO63f9bR0bwBKXIb1XdtcV6AUeO5AgAA+VD32z/rqmjegBQJlVa6L20TzxUAAMiDGG//rGdiOQSSg6+xX6je6+utQiPFcggAAHKgzp3/3YWqgJ3LfBTnGtsslkMAANB0eN2U109j3JxZk8VxCyTGJhTn+nqRkG8CAABE7EDxHv6sJeK4BRLjUIp3ja0XyScAAGgsvF46hOIGAH+O4hlIjUsp3jX2NGGpCQAA2sLrpTEf/qwjongGUuNxinudrRrHLQAAaB78hvQcxQ8ALo/hHEiOoRT3Ovt3HLcAAKB5rEnxH/6sJ2M4B5JiIrK51paL4RwAADSNh8jmpvzfGM6BpFiUbK61e2I4BwAATYLfjCxuyC1NXL+LICE2J7trbbH63QMAgOZwF9kGAIvW7yJICN74aXWt3RzBPwAAaATzk+3DnzWgdi9BSlxBttdb//pdBACA9LmW7AOAQ2v3EqTEU2R7vV1Zv4sAAJA2sxb6mewDgEvqdhQkxVdke73xNT9j7V4CAEDCXED2D3/Wo3U7CpJhUrK/3lh/q9tRAABIlakK/UD2N2LWFzX7CtKBaz/4XCt7FNq40Pee7XxLOH0CAOhQ/kr2D/7umqBed0EicO0H12vkzUIjdLWztUc7LR1eo58AAJAkYxf6ksI8uIcVWrvQYZ7tLFSrxyAVjiL3a+Swbu1w6mrf46ufFRqzLkcBACBF9qQwD3/eTLVWV5v8Zva0R1ub1OcuSIiryP0aWalHWzMU+sajPdautXgJAAAJwiV/36IwAcApPdr2+bw7KLyrIEGeJbfr45dC4/fS3n6O7bX0TqGRg3sJAAAJwm/aIR7+rxUao0fb4xT6zrG9i2rwFaQFf7b/mtyuj3f7aJMD2pcd22wJX58AAB0BV98LEQCs2Ef7Nzu290hQL0GKTE7u19uDbdrdwKNd1jNUBicAAJAtoYr+XNemj8Md2/w0mJcgVZYm92vu4jbt8sPbN7Dtub8AAACywvXtvLv4E//0bfpY36PtcUM5CpJkK3K/No6uaHtlj7ZZd4dxEQAA0mN2KjdS+QYAJwn6cW17/hCOgmQ5ltyvjb0E7d/v0T6uPwBAtpxL/g///1J19rTxPdrfMISjIFl46cj12viLoP3FPNpnXeHvIgAApAU/tDn1qW8AIKnaNzy5Fxg6yNdRkDQvkvu1t6awjzs9+viJUCQIAJAZR5D/w5+zpo0t7O8zxz7O9/ISpMyI5Je/fxlhP8t49MFCkSAAQDbwWX3XB3J37a3o83XHPtod9QLNhrP2+Vx/iyj6esSjH84sOJGzlwAAkBA7kP/D/71Coyn6fM2xn4+cvQSp8yfyuwb7K/pazbOvw37fJAAANAs+H/0S+QcA2yr7dQ0AWGO5OAqSZzfyuwbnVPTF1/1zHn19QrqAFwAAkoOTm/g+/LluwEjKfl2XAFjzuTgKkudM8rsOZ1X2t7Fnf1s5eQkAAIlwC/kHADs69PuGR38bOPQH0ocT7fhch9rd+bzp0CcQfYGQHhgA0FBmJv/EPx+S26fQDzz6xFHAPOF9JD7X4iwOfW7n2ecKDn0CAIA5p5P/2/8+jn375BzAUcD86Ef+wegcDv2OTuV6vmuftzj0CQAApnBZXs7a53PDHUryc//dGdmz34cd+gRpw/s6fIPRuRz79smBwUGLdu8BAACYsgf533AlWf96Y0LPflEVMD82Iv/r0XVz6GTkl4DoTMd+AQAgOiOQ3+Yn1rBCEzj275vwhTWeY98gTQaR/zWxsEf/F3j0+zWV9S0AACB51iD/m+1fPfr3LcjCWsCjf5Ael5D/NbGcR//zePa9n0ffAAAQjbvI72b3XaHJPfpfz7N/1iYe/YP0eJz8r4m1PG2416Pvd0mfCwMAAKLCO6V9d1v/w9OG3T37Zw3ytAGkA5+l/4r8r4kBnnas7tn/Rp79AwBArfyd/G+0rrutWxwfwIaLPW0A6cBfk3yvB9ZOnnb4psV+3LN/AACoDd6oxJXMfG6ytwewI8R676MB7ABpsDSFCQAOCGDLLp42LBrABgAACA6X6/W9ya4UwI4HA9jxRQA7QBpsQ2ECgJMD2ML5MYZ52HBlABsAACAo/HnzVfK7wb5EYXKff+xpR0uuxxBBWpxAYa6HqwPZc7aHDT8Vmi6QHQAAEIQQVf+2DGDHWAHsaMnn3DdIh5sozPUQalloLk87jg9kBwAABOE68rup8Vv7qAHsmNfTju4aEMAeYI/vl6mW3g9ok88yFafIHjOgLQAA4MyUVH6a9Lm5DgpkS4gcAC0dHsgmYAfXhfiRwlwPfLzVpTZFb/imJt42kB0AAODFIeR3M+PKfRMHsuUAT1u66/JANgE75qRw1wNrkUB2jVLoIw87ng5kBwAAOMPZyXzrrPsm/ulOiCOALT0Z0C5gw8YUNgDYJqBtPlUCQwYjAADgxDrkf1OdN6A9LwSwpyUuZxziVAKw42gKGwCcEtA236WzCwLaAgAAau4gvxvqQwFt4c+qP3ja01OTBrQPxOdGCns93BfYvus9bOGlMxxVBQCYMD355/0PWXTHt+Jab1o8oH0gPm9T2OuBS/OOGNC+VT3t2TOgLQAAIIZL9vrcvD6hMEf/WmzmaU9v+nNA+0BceMe+b4Dam+YOaCMHE+962PJaoeED2gMAAJWMVuhT8ruRHhPYphBFgHrq6MA2gngsRuGvB1boI3iHe9rzx8D2AABAWwaQ302L38xmCGzTfZ429aarAtsI4rEd1RMADA5s57SFfvaw59rA9gAAQFseIL+b6M2B7RmByl37oW/2zyrt4GptyyWohQrNl4mmEP4Wp1M9AcBLwv413OlhDyc6ko4JAAB4MSP5r62uEtimOTzt6UvfkW7T12s12QH9qn2Fv4VvkNpOkwltkLKhpz2HBLYHAAB65Ujyu1m9ReUbe0j+7GlTO82ksAMBQP1aT/hbfFGjDRsIbZDCKYs/8bCH6xSMFNgmAAD4Dfzgfof8bp771WDXGZ42tdOaCjsQANSv+QW/w5Q123CWwAYtJ3natE4NNgEAwP/BO459blK8XllHcp3HPe1qpwMUdiAAqF/jC36HlWu24RWBDVr+4GnTnTXYBAAA/8el5HeTurEGm/pRuIpvvelihS0IAOrVl8LfYe8ItkwutEXDvz3s4X05muUqAAAQw4lVviG/m+baNdjl+1WiSk8pbEEAkMZvcWEEW+pIErWTp01H1GATAADQ9uR3c+LEQaPUYJdvIpUqcc516aZFBAD16mrh7/B0QrZo4OWN7z1s4qyCoTfYAgCA1+dJVshKat2pIwFQT80otOXlCLZ0so4X/AZ8bPO7CLbwcsTIAnu0+BQIYq1Qg00AgA5mdvK/Yc5Tg138ReHbALZVaTWhPY9GsKWTtYPgN5gtoj3LCuzR4lti+6IabAIAdDDHkd9N6Zma7Kor33tPSY8u3h7Jnk7VSoLfYP2I9pwgsEcLB7Wfe9jE+3TGrsEuAEAHwmuKnGjE50a5a022DfK0S6pLhfZcEcmeTtUsgt+g7j0h3fWywB4XzvK0a8ua7AIANJTRC61I+p3Cy5DfzeiHQhP6m98r//K0TaoXhfacGsmeThQXzJGUj74psl3S/SEaFvW06Q6HPnehMsviBJ62AwASgOuE96fy8/Vd9OvGKG0SE9+3kes8/egL/sxZ5/n/7vqp0BgCm3aLZE8n6l3B+DMfRrarjq9bw5HfiRKeF9qg+/Kuv+VAixNrcSls3uMgCboAAAkwSaF1qXxo9/XZXpMxjPOLf9pHO1Jt6OlTX6zhaZdWCwlsWj2yTZ2k+wXjP4WBXbcL7HLhEE+7tlb219c+H95TwF8U9qGyGuPwHj4BAALCb8H8IDyN5EfQzlW0v6Kwzb7EXx3G8vCvHad52qbVtgKbQpyWgHrXeYLxtwjA+BrvJ7BNy0yedmmXAXYWtvtRoUsKbUFlzQUAQCT4jDOvDw4q9CC5fQIfpOjvbIf2u+ufbm6KiH3m/kyBTbzPwrdUMtS79heM/6FGtmkKRml40sMmvjdo1vPXdOyH98fw3hc+KltXsA9Ax8JvAnz+mdfSOfmI781KmsKU1yF9d/8PcHW6ghk87XLRw0LbXjewrRMkSSMdewNgS5qvahr28bRrM0Vf83n2xeKggzfmDiy0CJUvLAAABZwOtLWOP4TC36yWE9qxoGc/vPt/PJcBELCHp20u+ppkaVavNrCtEzSHYOw/MLLtC6onzfW05PdF6UpFXxN69NOXhtFv9w8AAHrANw4+andUoceo3IVb581KWjHsMM9+blGPhJx7PG1z1WwC2w4ysi1nSY4AWmwA7K5VKuxzxScFtyZdMX/x8y32VaU3C51D5XFDSVlnALKEa3/vTuVDkt8sY92k+G1iNKGNj3v2VVcyknEp3vG/ntpCYN9qRrblrDcE4+66hh1KFwhsdMH3a9fyir5i7qvhoI5feI6k8gWoji8oACTDn6i8Sfiuq/voI6Gt/DnQ50uEdgOSho097GrpJSo/22r/7iyBfVMFsA/6rW4VjPsxxjby23YdZ+an97TrZEVfd3r25SN+EeIXop0V9gLQGCwnV0uPCm31fcjepxkYJZd52sbFgyancle59m+lNQ3e9bQR+q0kOffvT8DOuk4DPOdhk+TrSYtzPfoJpf8q7AWgMXA2PuvJdZXQ1gs8+zlQMzAK+A3L9yRE6y1+Roe/5YyAYwrsvNTTRui32qhivDlhVcyltL50WYWdrvjWN5BsoGR8kw+FEAIAkCV3k/3kkrxJ8WYg393Ukqx5LoTI/te9oIzLcszSAju3C2An9Kuq8u33T8BGFu96H73CVhfm97RrX2E/W3r2E0IIAECW3EP2k2s3gZ1ze/bBb+iS43IuXOxp22M92nOp3icpDTyHp53Qr+J9K8NVjPeOCdjZ0noVtrrA/n/sYdODwn5W8OgjlBAAgCy5l+wnlySZim/yEU2tAQ18euErT9t279Gmy4PjBoGtvjds6FdJSjH7BoYhdbXAXheu9LCJl64kxYFm9egjlBAAgCxJYZPSAgI7fZcqjtIOjJC1PO3iUw2T92jT5WsHByEjCey90NNeqJTk6OWQBOxsic/S11EbYAdPuwYI+hjHs48QQgAAsuQBsp9cU1TYyBvcvvfsYx2HsZHgu7Hu7l7a5KWKoQ5tLS6wd0NPe6HyxMY4FeM8XQJ29tTGFTa74LusJN0A3CobbiUEACBLOEe25cTiN+CqN9dVA/Qzt8PYVMGByTBPu/oqj3qLQ1uHCGzmNMg/edrc6ZLsqk9h41pP1VEimMvw+mTq4y9XkmQ7b3n0EUIIAECW8EYcy4n1scDGECV266gItrmnTfxVo6+6BAc6tCfdVJVC7oemirNWSoLJFI9ccrA9jcB2LU972rWCoI9HPfvwFQIAkCUPke3EkiSxedWzjy/VoyLjXk+72pUlXsqhPc50OLbA7vU97e5kXSgYX95s+WECtvYmyVciLb5JsE4R9HGHZx++QgAAsoTLyVpOrPsr7PNNOcp6z2VgKuA1Xp+KaKwN27TP57Zd9j1sIrCdP7lanQbgIIU/5/Ib3W1UvimfUejoLnEO9n261Pp//AXoH1SWnuYlK9eUyb56jWQB1h+MxlYiHvvhBT5o8E13PETQx82effgKAQDIkkfIdmLdVmHf9gH6eNVlYCoY5GkTr32OUdHHrQ7t3iS0v87Sxfyp+XUqv3Dw6YtNCy1K5WbPkLkYeFlnrkKrU3mUkoMELhZVR/W4FwpNKbTrgBr6D6kVhX5IGRjApqqsgNcF6MNHCABAlviU9Qyh6yvsuz5AH6EDAP7E+4anTecK+vmLQ7s/kKyk6YhUBgu+Y/s5lUshpxbaisojnVWBTd1wkDEzlUc0ubbCRYWeILcNm+zfQNJl0nvGoZ+YulLhiwTfHB2sqkRWLsmxQgoBAMgS68017XZUc81w3yQ7rA8dx6Yvlgtg01KCfviomctDq6+TBT3hpQDO5y45csjpie8pdCaVb9srkfyNOBU4cJuGyjdgDlZ4PZzrwPPDhb9E8TozB5znUxk4/JFkuRW6w4GH5XySiJeWJAl4pOwbwKaHKvq4NkAfPkIAALKE09BaTqwr2tjmm/63pW8cx6YvrvG0hz+PV6WRbXGGQ/uPK9pn+O2Wcwhwchsue8pH2PjtealCc1I9JyhyZRDZziepemaf9OGkAPbwslG7L0f3BujDRwgAQJbww8JyYt3cxjb+TO1SGKc39XXcTgu/9f7oacteiv64SNDPDn2s7O4icIS/WIW6XuvWCwH99j0FwHq8oo9nA/ThIwQAIEt4bdRyYlWdAjg2UD/zO4xNb/iWQOWvEZI1+u5c5NBP1SdVEB4uD2w5l7RaOJDfIZYRd6ro450AffgIAQDIkifJdmI9VWHf7IH6aXfkTgq/4fme75Zs/uvJDFRu7tP2tZpDX8Ad6yO1Ma7FnvA+Et80vfz37YJi3ofhcv2HFAIAkCW+Wbx8JdmgF+IN4xjtwPSC7xse5w2Yy7Hvvzn0N4TqqQMPfg+ffrCcRy7imgYTePo9fwA7quoBzBLYbxchAABZksKRpapNZiFyAdzlMDY98d0wKT2j3xu8a9sl+c2RHn0COU2tsniAp987B7BhlYo+1qzBb60QAIAssd5cw5q3wkbewPetZx981M0nA1qIo3+LefTP7OrQJx/5qhpf4Mck5F+t0krvkv6oY3du9Oz/Ayo3+7Zjv5rHQCIEACBLniP7ybWewM7LA/TjUxHQt4BO1WZHCXyjftGh7/8UGi1A/3UyaqFxe1HqdjMDyX4O+ch1fwyv//tWwzxO0E8KhZUQAIAseZ7sJ9cRAjtXCtCP69nnEOucKzn23ZNlHfu/gHS5AaTwGvLsXXZxHQIeY95vcVahS6hMB3w3lce8OCMj7/ng7Hqum7q+6fp7rmXwele79xa6oau/s7r65+x0m1FZaY7TzIZMfNMd3hj6gaMvqegxR99dr8Xuml3Qz3sRxqBKCABAlvB5YOvJdY/ATk7v6nsjuFE5Ni2u8uyXTzqEfPhe7GgHF9XR5uJnu6em8kG6C5WbEfmB/jY177M328vHybhsMtcN2JvKkxIzUvVn6L7YOAG/QuiPDr77lul+VNDHDEbj0VMIAECW8Odh68nFnxElN2DfqmOcVngU3fA4J+LprvWVfVbBa86u1fD4bW8ZKt9ce2uXMwLuUOhsKm/QXzv20zRxcMDLYfylZJeucRiz3Y/QhXUtjVC6T+Brd3i+fuTZ5/aCfrZIYGxYCABAlrisKdeh/gJbZw3Qj/ZsvG+Ws1cobAW8Fr4nI/hTOn+Z4E/o/ODzXcvNURz48fzgREy8tLEk/fbEyoIJ2BhSmk2qy3v2xZt6xxX0MziBcWEhAABZwrXVrScXa1ehvb7liy9UjM08VJ7d9+nvz4r+NPCJButCTp0ovh5epnK/wUMJ2BNSt5Occz37ulzQBy8/pbD+z0IAALKEb2bWk0tz89nWs58vqdxxLuFmz754eaWOt/8W8xX6ydNGCOoufrOvgpdGJBUk20myKbZ/AuPREgIAkCX8idp6crF4DbafwF7+bOibE2B1QT+LB/BpLUE/PWlXEa03TglgJwS1xLVBqjas7uTZB7/VSwLjQxIYj5YQAIAs4aNZ1pOrJekD03dd/jpBHw949sFLFdqd/4tQuUt9RsXf8Jp0Kp9JoTzEJxv6gh/cr3m2f3Sb9rtjXaekuxAAgCzxncwhJS1OsqJnP7yOO1ub9kMc7VpK6EsLLobSepBz8KBZOlg/gL0Q1BLv7u+rOE+ItLyz9NF2d7jstu/+m5BCAACyhJOpWE+uljhJjOTBx//mXc++zu+j7XHIP7HLLQIfenJNjzb2Vf79bZ42W4iPGPIXKD6JwLvtsZ8hHfW2WZaPjvrmDXm4l3Z7Y8cExqC7EACALBlC9pOru5YR2n2UZz+ciW6aXto93bNdPjo2j9CHFlv20g6XSJW8KbXghCm+eyPqEO/t4HXlwYUOovLrCtehn6QXH3gPyKkJ2AyV2qLH77NvgDa3IRm+S3ChhQAAZMmbZD+5uussod0hSoTe0KNNfjD5Jv25RGh/i2mpvLn01hZn3NPsIzjI03Zf/Ujl8sXJhTansvaCttAMH29MIT01VP6erQ2zXMbaNykU554Yh6rhz/++8zC0EACALHmL7CdXd31C8odGiHPYe3a1NXGAseC33emFtjP8cK8qMtRuQ1ZPOMthzMROnFmRlx4OLrQ06U8w9MXJEX2A2ovX4TkQ/TJAW9LgeI8E/O4pBAAgSzinu/Xk6qkVhbZvE6g/Pu8fYi+EpLJZd7YWtMn7EcZWtLkU1bd5ipdNuKohf2lYiOrLcZDiAwDy1wok47EEbO0pBAAgS/jYmfXk6qnBQtv5c+I3CdjL4k2JkjwGLfgzp/St6lRFu8x5Af0aQmWugVVJlhs/BL5pjqH0xC8aw1M1qRT/6SkEACBLfHfT1yEudCPN1ndJAvayNhDa20KTZZB3x8+raJtL337q4cszVCZh0W5mDMVuAhuhZklS8ps5MAFbexMCAJAlqSaRWU9o/woJ2Hq30NYWmzv0wVXnJG9QLf6ibJ8LA+1Duj0MdeF7wgNKS7wkNRPJSKU4WU8hAABZ8j7ZT67edKPQfl6HtlzG4HXxdkmFejJZoc8d+5IeoWJ4g+H9Fe3xzXYQ6Y4bxuAesr/+oHD6F8lYIAFb+xICAJAlvklv6hIfQZpY6MMRhnYeL7SxxfUefX1G5ed9KbNTGaB0b2MIlalY51baHQsusZtSBjjIX1uSjNMSsLUvIQAAWcLZ96wnV1/aTegDf160eGjw8olm499GAfocrOiPOZLKrzwnUZnnQFufIBZsF2805DS01tcdFE6cO2AsqoazDH6SgL19CQEAyJKUb7hPKfx40MC+DRX2TURhbnAc6Cym6JdzKmj2DtQBL9NMRWUAwns21u0SH4PkHAKclvlNsr/eoPDqLaVwb6yRgK3thAAAZMnHZD+52mlOoR9bRbbrTqFdLXwrGHbXs4VGVPYfCz6ayemcOcESn9DgfQacIMn6OoJstCzJuDoBW9sJAQDIkpQ/u7H+KvSDk+XEygnADzTNxrk/1mDD7or+64RLF/PmxEsprcJSkL3eJNnXp/GorH1hbW87IQAAWcIby6wnVzvxHgVpauCLI9kkPdPMcD6DV2uwgdPwTq6wIxScwGgAlZ/tU0wiBaWjQ0nGdgnYWiUEACBLXI+kxdRqQl+Wj2DLkEKjC+1hDqnRlssVdrjCm/P6Uxn0/KdGX6C8xHtVpDklUqv815sQAIAs4ax71pOrStcKfeHPjXXXNpAGI8w0VH+JXml+dQ28aW8pKovypFYsCmqG7iMZvDm0Ccc+EQCALBlK9pOrSnyWXXr+vc6cANcLbWgRY0niZSqrAPrCD33evHc2pb8vBEpfW5CMfRKwVSIEACBLQpT5jKFdhf7UlROA3+SnEdrAzFeTHb3pIIVd3eHP+4tQWewn1YRQUPM0jOT5MZ5OwF6JEACALOHNZNaTS6JnFD7VkRPgREX/zF012NCX+PTDzArbuMjPsYSz91A94g2iEmZPwFapEACALOFo3XpySSWtTrd14H558kvTEjNLGIzNw1R+xu8LrlcwiNIttgLlo6VIhmUKb60QAIAsaVIAcIrQp9A5AQ4T9tvi1kjj0VN79bBjLiof+s8a2QN1nt4gWbpp/jdNyhuBAABkCefqtp5cUnGNe+mGt1Ab8DhPwtjCPpn+RmPD4gJKnJTnuEKvGdoBda4GkYyFE7BVIwQAIEtiZQ/RF90AACAASURBVM8LpXWEfq0QqL99hP21uCTyeEBQKuJNr9OSjFMSsFcjBAAgS+o+px5aNwr9CpETgAslaZL+TEDppzSFoLp0D8ngOhYpVyHtTQgAQJY07YHFn7knFfrmu8looLCfFrsbjAcEpaIBJGPpBGzVCgEAyJImVmrbW+ibT04AXhqRJh9q8YLReECQtfgBOSbJOCEBe138AyA7+I3aenJp9ZLCP9ecABcr+mBmizwGEJSSziU5ryRgr1YIAECW/Ez2k8tFCwr9c80JsJKw/Rb7G48HBFmKc19ImDUBW12EAABkSVMDgDOF/rnkBOB9Edr8+o8YjwcEWYnP80vO/jN7JWCvixAAgCxpQiWu3sRVDEcT+qjNCfCssN0WvPbZxKUUCAqhg0nOfQnY6yIEACBLrCeWjzYS+qjNCfCxsN0WyyYwFhBkIf6COA3JGI+aGygjAADZwZ/trCeWj24X+umSE2AiYdvMQQmMBQRZiIteSdk4AXtdhQAAZAc/GK0nlo/47WMqoa/anACzC9tlrkxgLCDIQpuSnMsTsNdVCABAdnD1OOuJ5asDhb5qcwL0F7bLPJXAOEBQbHEp8TFIBmf/+yIBm12FAABkB09K64nlK2n1MUaTE2BRYZvc938TGAcIiq1zSE7Tiv/0FAIAkB0jkf3ECqHFhf5upWhzSWGb4yfgPwRZaDGSs18C9voIAQDIjpHJfmKF0LFCfzU5ARYWtjl9Av5DUGy9SvIvb8xtCdjsIwQAIDs42Y31xAqhQxQ+S8v1SvcA9E/AfwiKrWtIDn9pHJaAzT5CAACyY1Syn1ghtIvC51OFbc4lbG+5BPyHoNh6gOTMm4C9vkIAALKDa91bT6wQ2ljh89XCNmcVtrdGAv5DUGy9THK2ScBeXyEAANnBR3isJ1YIaQr3PCxscwZhe5sk4D8ExRYf6ZPy9wTs9RUCAJAdnMPeemKFkLQyIPOmsM1phO25VhuEoCaLc2rwJmIJORTKQgAAsqMf2U+sEJpe6C/vWv5e2OZkwjZ3T8B/CLLQ5CTj4wRs9RUCAJAdY5H9xAqh8YT+Tqhoc0Jhm6gDAHWq5qFqcllmRAAAsoPPxVtPLF/9RGVNAwlzK9odW9jmMQmMAQRZiKtsVpHLV0YEACA7xiH7ieWrTxX+rqhoV5rj/LQExgCCLMQbYKvg4Fy67JayEACA7BiX7CeWrzTHkbYUtskbnKRfFc5LYAwgyEK8/0VCDsWyEACA7OC1c+uJ5auHFP5K1+uHKdpEKWCoU3UUyRicgK2+QgAAsiOHQjY3Kvw9Q9jmh4o2b05gDCDIQv8gGTmclEEAALJjArKfWL46X+HvdcI2X1W0eX8CYwBBFrqBZKyagK2+QgAAskNzLC5VnaDw91Fhm08p2nwygTGAIAtxgh8JsyVgq68QAIDsmJjsJ5avDlT4+66wzfsVbb6cwBhAkIXeIBlcdOznBOz1EQIAkB2TkP3E8tX2Ql95V/+PwjZvFrbJSIMKCMpNms2ybydgr48QAIDsmJTsJ5av1q/B18uFbTJDExgDCLISVxSV8FACtvoIAQDIDs53bz2xfLWc0Nf5FG1KdzczPyQwBhBkpWlIxlUJ2OojBAAgO7iYh/XE8tW8Ql81O5FPErY5SgL+Q5ClFiAZpyRgq48QAIDsmILsJ5avphb6qinbe7iwzRzyKECQj1YhGfslYKuPEACA7JiS7CeWr8YU+jpI0ea+wjanSsB/CLLUFiRj8wRs9RECAJAdTX+A/aDw9SxFuzsK25w1gTGAIEvtQzJWSMBWHyEAANkxNdlPLB9pUvbeoGh3c2Gb8ycwBhBkqeNJxhwJ2OojBAAgO6Yh+4nlo+cVvj6haHdtYZvLJjAGEGSpC0hG0wuPIQAA2TEt2U8sHz2g8PV9RbsrCNtcPYExgCBL3Uoyhiv0bQL2ugoBAMiO6ch+YvnoWqGfIxb6SdFuf2G7myYwBhBkKf6yJuWNBOx1FQIAkB3Tk/3E8tG5Qj+1+Q5mELa7fQJjAEGWeofkPJiAva5CAACyY0ayn1g+Olbo5wLKdscTtrtvAmMAQZb6nsrP+xKuT8BeVyEAANkxE9lPLB9Jz+tr1up/KTSCsN0jEhgDCLLW2CTj3ARsdRUCAJAdM5P9xPLRVkI/t1O0OVTYJnNqAmMAQdbiL4kSjk/AVlchAADZMQvZTywfSY/rHapo801hm8x5CYwBBFlrUZLR5HTACABAdjQ9k91SQj/PUbT5pLBN5uoExgCCrLUmydgmAVtdhQAAZMdsZD+xfDSn0E/N5qO7hW0ytycwBlCaepfK64PXvTkN9d+ovA7fTcC20OJCWxLWScBWVyEAANkxO9lPLB9NIfTzYUWbVwvbZB6J7O9rhQ4qtHChfl02DF9o3K6x4NTEAwodU+i2QsMi29fJ4rHmmvebUVlkqy94x/xShf6dgM2hdGAbf7uzdAK2ugoBAMiOpufnHk3opyYByd+FbTIvRPKTbz6cc2BEhW3MyIWWoHIPxIuRbO00PUvlJtNWQCZlpEKXJGB/CJ0i9HmuBGx1FQIAkB1/IPuJ5apvFH5+rWj3OEW770Tw83Mq3+xDMF+hEwt9EsHunMVn3/nhvZhu+H/HqBQviKxTlwr9nSIBW12FAABkB6+hW08sV0kzkPVTtru/sF1maM0+ck6CPyrskTI6lW+tr9Zsf27idNK8pj+Vfsj7ZOME/PLVXUJfR0/AVlchAADZ0eRPcs8IfZxB2e72wnZ5LVdTX8BF1wttcYX3D2xI5dFH698zdXHdidmcRrk9vIz1QwL++ehZhb/fJGCvixAAgOyYm+wnlquku/UXVba7obDdMSL4uKXQFl/4IXQAlTc56981Nd1H5abLOtGUqk5RHyh8beopCAQAIDvmIfuJ5aqrhD6upWx3RWG7k0bwcR2hLaHg8tAPBbK96eIH1fp+wynmxkg+1SX+giGtB/BMAva6CAEAyI55yX5iueosoY+aNMCsBYXtxqijsI/QlpDwSYPDqP7ljVT1Y6G/kn5Xvw+X1eBHbEkLaN2XgK0uQgAAsoN3hVtPLFcdJfRxoLLdmYTt9o/g431CW+pgXSp3u1v/zjH1AJUnY2JzraO9KUk6b25IwFYXIQAA2cHHy6wnlqv2FPp4hrLdCYXtxkhqwqcA5hDaUwcrke4IZVPFSXx2onJTpAV3CGxMXdJ6ABcnYKuLEACA7FiA7CeWq7YQ+qjN1z+SsN3VIvmpyUxYB3wMsem71NvpnkLTBRstNz4g+3Hw1RpCX/+WgK0uQgAAsoPXu60nlqtWF/p4j6JNzSTfJEFf64KDrV/I/jcPqe+ofOuXbl6riyYfxe0uaWnuYxKw1UUIAEB2LET2E8tV0ixsml3H0uRCjHZzoY++pPqPolVxOtn/5qHENRXmCzs8TkxEZfVJ6/EIIWkCrQMSsNVFCABAdvBDxXpiuUqalOVtRZuahCZ7R/aX1+L3pTK/vwWcK+C9ChuboFsLjR14bDTwKYtFCh1OeaVkPlHo/04J2OoiBAAgO/hGZD2xXDWJ0EdNRbz7hW0yhxv5/VGhU6lcm59AYa8vYxV6JaAfFuLP/rOHHhgqgyO+HnknPG+sXY7KUxScyGl3Kj97X0llwp+vEhiHOnSRcKwGJGCrixAAgOzQZslLSZI34VGUbWpS756cwBiweNniX4WuKHRSoaOp/FLAOQR2o7JWO4szHK7bRpt1+7esnQsdUug0KvdR5HQaYFjXuPEXHw76busav97Ex9bu6NLjXeICPq9T+QbfaUcl+xKPoYQ1E7DVRQgAQHbwOrr1xKpzMmqz9Q0Wtktd/9Z6HCAoFfFeBgnLJWCrixAAgOxYnOwnloveEvo3m7Jd6Tomc1UC4wBBqUi6gbapR48RAIDsWJLsJ5aLnhb6p/3CMVDYLnN7AuMAQamI91dImDkBW12EAABkx1JkP7FcJK0EqE3Ws7OwXebhBMYBglKSpH5CjCJadQgBAMiOGOls65C0EuAAZbubCttlXkhgHCAoJUkyKsYoo12HEACA7GhqAPB3oX+7KttdTdgu81YC4wBBKYkTi0loYqVJBAAgO5Yl+4nlomOE/h2qbFeaXZAZmsA4QFBKWpVk/DcBW7VCAACyo6lHcvYT+neKsl1pKVjOH9/EtxgIqlObk4yPErBVKwQAIDuWJ/uJ5aKthf4NVrY7ubDdfgmMAQSlJs56KOHNBGzVCgEAyI4VyH5iuWhdoX9XKtsdXdju5AmMAQSlpsNIxn8SsFUrBAAgOzifvPXEctFyQv9uUbT5g7BNZtYExsBXPxd6mcqUtljOqF+cfphPjnyQgC11idNGS3g8AVu1QgAAsmNFsp9YLppX6N+/FG1+JGyTWTCyv1zRkKsP8pLNnFRmcOQTC5zv/0Yqk7Bo2uPAaIpu/vAXjSsi+5Sy7qGykA//znytLUNlLYWjqCzoo21vEJUFg1pwFc4mvgVX6WKScX8CtmqFAABkx0pkP7FcNK3Qv6cVbb4qbJOJuXeC3xyr9iZwXfl/CNt7k377MGoxPJUFb6x/W2vd3TUW7eCKf9JA4B99tMEJcT5LwN+QuqVi3FrcmoCtWiEAANmxMtlPLBdJ67m/rmhTml6YWSeirw8o7JJUKDy6zd83uTpkKO1ZMcYtOKGNJBlUu6OlRyTgb0g9Ihy7axKwVSsEACA7/kT2E0urH6k8hidBc9zoX8I2mT9H9PdlhV3jUPVywPZt/p7ffHMq++ui4yrGuDsbCdqbus3fNzURV1+SXqsXJWCrVggAQHasQvYTS6tPFf59o2hXWs+c0WYY9NUCCtuer2hr/4q/13w1yVFvFhq5YoxazChob+42fz9LAv6G1MfCcTs7AVu1QgAAsoMzd1lPLK2GCH0bUdnuNcJ2mYMj+3yjwrZnK9qqyqL4fmTfUtRWFWPUYjpBW0u2+ft5EvA1pKRf5yRLVakJAQDIDm21vBT0rNC3cZTtXihslzk+ss+/FFpDaNsnFW3t1OZvJ47sV6r6sGssqpCUm56hzd9vkYCvoTWWYNyOSsBOrRAAgOxYnewnllYPCX2bQtnumcJ2GYtPmLxjfMoKu0ataOP7QlO1+fsmfhGqS7wkVHUaYL2KNh6v+PszE/AztKau8Jk5KAE7tUIAALKD3yqtJ5ZWtwt90ybrOV7YLnO5ke8c/PR2hK/FSNQ+qc/eFX5db+RXqhpUMV7tAmjeTDl/m7/ldNJfJOBjaLXb89BizwTs1AoBAMiOtch+YmklXaufT9nuIcJ2GU2GwdC6gcr9DX1xYy9/w5uzqta1Z6YyO6D175uatm0zZuMX+ryXv+Ejpf3bDXbBbgn4VoeWrvCb2TkBO7VCAACyY22yn1haXSD0bRFlu1Vvx915MIEx6Guz1ZhU3mD5vD/v+Oejnu2+GlBXW5ZBTcrioGi9NmM3E5WftHm8+XTI/FS9EY6TAFXt1Wiq1q7wndkuATu1QgAAsiNmQptQOl3om/aMdbvz8T15LoFxGFxoBIXN7RiUgD8pi+tEbOA6uD3gYEyTorpp+otgDLZMwE6tEACA7OCqetYTS6uqY2wttGmOBwjbZd5OYBxYV5H8zHpv8Ca33LLR1SXeWyE9HtgXvGRwbwK+1KldBOOwWQJ2aoUAAGRH1S7mFHWQ0DftBsd1hO0yQxMYh5Y4VfCkCttbcJGbnN9E6xAfx+RMge32YPQGB1qbUN6VAFuqSjTFbJiAnVohAADZsT7ZTyytdqvJt5WE7fL6bmqb5Th5z4pC+zmrIG8k/CUBu5uqe6hMAlQFBwobF3oxAZtj6QjBuDRx6REBAMgOXte0nlhaST/Daj8zLiFst18CY9CXeCMfl64dqYfNnBNhh0KPJWBjLuKaC38tNHuPseZ9GXNRuSnwvQTsjK2TqJom5h9BAACyo4mf4jYU+ra1st15he1OnsAYVImXKB7v0ocJ2JO73uoa66eoLN9sbY+lOElWFU2sQooAAGSHpJpZalpV6NtOynZnEbY7WwJjAEGp6mKqZvkE7NQKAQDIDt6YZD2xtFpG6Js221i7nO3dWSiBMYCgVMUnU6pYKgE7tUIAALJjU7KfWFpJ1+oPVLY7jbDdPyYwBhCUqq6lahZNwE6tEACA7GjiedxFhL4dpmx3CmG7TcydAEGx9E+qZoEE7NQKAQDIjgFkP7G0WkDo27HKdqVn6f+cwBhAUKq6maqZNwE7tUIAALJjc7KfWFpJd+sfr2x3AmG7uRZxgaAQ4jLKVfRPwE6tEACA7NiC7CeWVnMJfdN+ARhX2O7ABMYAglLVnVQNlgAASAAu3GE9sbSSBgDHKNvtJ2z3rwmMAQSlKskSwMIJ2KkVAgCQHU2sylVVZ73FUcp2q0rmtjgngTGAoFQlOQWwWAJ2aoUAAGQHp9W1nlhaLSz07Uhluz3T5/bFFQmMAQSlqsupmiUSsFMrBAAgO7TpclPQkkLfDle2O7yw3VsTGAMISlUXUDVLJ2CnVggAQHZsQ/YTS6vlhb4dqmjzZ2GbzEMJjAEEpaozqZplE7BTKwQAIDu2JfuJpdXqQt/2V7T5g7BN5vkExgCCUpWkHPAKCdipFQIAkB3bkf3E0moLoW+a8/q/FBpO2O47CYwBBKWqXamalRKwUysEACA7tif7iaXV7kLftPsbpKcAhiYwBhCUqri+SBV/SsBOrRAAgOzYgewnllaHC33TVjqUJALijYI/JzAGEJSquFhWFeslYKdWCABAduxI9hNLqzOEvq2lbHcyQZtjJeA/BKWs6aiaJiYgQwAAsmMnsp9YWt0k9G0pZbvzCdqcIgH/IShVfVdoBKqmifU0EACA7NiF7CeWVv8R+ja9st21BG3OloD/EJSqpHPzkARs1QoBAMgO3rFrPbG0+oZkO/ZHpXJ3v7TdYwVt8kbB/yQwBlA4rUjlcdgvE7Cl6ZJkAWSamE4bAQDIjiZ+imNNLvTvI0Wb75Hs8yUvFfyQwBhA/uJgsvWbz1zo1QRsarJ2IRm3JWCrVggAQHbwkTrrieWilYX+/VvZ7vrCdg9KYAzq1jVUBjt8OuKUBOypQ8/3+F3HL3RvAnY1VdJCXW8lYKtWCABAduxB9hPLRQOF/p2sbPc5ktUEGLHQIwmMQx3it+KNe/jLb8marylN0fX0e0YudF4CtjVNX1E5L6qYKgFbXYQAAGTHnmQ/sVx0g9C/dR3aXk/Y9kyFvk5gLELqE+r7Le7cBOwLrbP68JX3mOT61aMuXdbHWPZEm58jFSEAANmxF9lPLBfx26hkI+CkDm2/QeUGQglNTKTUbkz/0MbXJuaMqNLRbfxljknAxqZo3YqxbHFxAra6CAEAyI69yX5iuUpybp9x2bV/kLBtDkKauKGppz4vNEeFr02s4FalfSp8ZgYmYGfq4i9hYwjGkpdXmppKGwEAyA6+AVpPLFcdLPRxX4e2+YY2pbB9PpHweQLj4SpO3rKkwM8ckyBtLfCbaXKgHEPnCsdxxQRsdRUCAJAd+5H9xHLVw0IfeRngR4f2pWuazIYJjIeLuK6B9OTDiJRfHYR1hL4zmvLSnaZ5hWN4fgK2ugoBAMiOJt/U+GE0rdDPfzq0z0mElhC2z1yWwJhotafCP+aTBGwOqWWV/h+RgM2p6UHh2PUrNCwBe12FAABkxwFkP7F8NEjo5wqO7T9NsuRAzHhUJhOyHhOpThH61Z3nE7A7pKRvrt05KQG7U9IqwnFrYgGg7kIAALLjQLKfWD56k2Tn9pl7HfvYQdg+w6VQNemHrcRJfqSBTXfuSsD2kJJ+QeoOb/w8OwHbU5B0GY55KAF7fYQAAGRHDhntVhT6uohj+5wjXrohkDk9gTFppweorGngwiUJ2B9S4ziOAwedFyVgv7WWE45X/wRs9RUCAJAdA8l+YvnqboW/LnsBWHeQLO8AM3qhlxMYl97EmQ7HFfrRGycm4ENIjeQxFvwFpYn7PkLpdsVYXZCAvb5CAACyYyDZT6wQWkjo7+zkXshngLAP6rLH5eRBnRpSaDKFD73hcqQyVf3kORYMn2u/KQFfYut7KosnSZiIyqOm1jb7CgEAyI5BZD+xQug6hc+u2d0+KzSJop9DDcejpz6kMnWxL1sk4EsoDQswHgwvp+S2N6JKxynG5/AE7A0hBAAgO1J6SPmIN95JvwLwJ/ohjv1cI+yD4XPz2mqEdeidQrMo7G7H6gn4E0qfBBoThrPg3ZOATzH0dqGxhOMydqEvErA5hBAAgOw4jOwnVijxLmPpOv1KHv1IiwUx01NZJc1qTIZ02RCKnNIBvx1wXJhRqKwuaO1X3VpNMSZNzjPSUwgAQHbk8nmupdUVvl/l2AcXzZlA0c9WRmPxIpVpikOygJEvdeiVwGPDcBBwbQK+1aWLFGPBX0VyKiGNAABkR26ZzV6icmOWBN4Q55rD/2JhHy2uizwO9xeaUGmjhNki+1Gnng08Ni146WdwAv6FljbwbXKa8d6EAABkx5FkP7FCa3+F/wM8+llb0Q8/jD+I5P/fSR4EaZkykg8x9O/AY9MdXoriYlVNSAollbRmBMP5FZpcIKs3IQAA2XEU2U+s0OJKftMoxuBGx374VIDmEzvvO6jzgcDH2nZT2OPCuDXaH1v3hh2aXtmE8jgCd73S79yWFlkIAEB2HE32E6sO/VMxBvwQd92pzMe/pKmImVNr8pe/LkizsvkwUk32W+jWwGPTF/NTmbLa2l9X8dzQ5I/g+dTkoj99CQEAyA7XM/FNkGa3/gCPfvZS9MNnxv8T2E/+gjGRwgZfvg1sv5WuDT0wbRi/0M01+VG3/qL0NYesf70JAQDIDk7oYT2x6tLHpNsI57oUwFnRNFXl5un6G1//+EG8M8mPPoYil5LAl4YemAr4S9FOVD5IrH2X6hbSXV8LUl77HroLAQDIjuPJfmLVqcsVY8GfLl03LvGRu9EVfe3j6dedFC65j5YhQhtT1wWhB0YIVyC8Q2ijpYYWmkLhFwc4jyRgd11CAACy469kP7Hq1jqK8djMo58zFf3wzfI2hz4+6LIx9lt/d57rxa4m6tzQA6OE92w8Tfbj0Je2UPqzYwI21ykEACA7TiD7iVW3OA/++Ioxca0YyFpD0c/Ehd4XtstvY5y2WZqCtU64Brz1bxpC54QeGAe4oiCfFEjtzfkmpR/8peDLBOyuUwgAQHbkVt61L2kS90xK5RE/l354fVyzY3ppKo/v9dUe28HnyV3r1tfBvWT/e4bQ3wKPiy+8j+RYKhMUWY4L7/rXZpDshBTICABAdpxE9hMrljRpgjfy6IfXdzVHA/fq8fe8uY+LDnHiFc2+gli4LF2kqFNDD0xAOIjkpSteouMaFzFzCQxQ2rppRNsshQAAZMfJZD+xYok/t4+nGJtrPPraT9EPw/UCeEc/rwv3U/5tbG4g+98yhE4KPTA1wjUGFqeyeBdnMGz31chHNyjt8smh0TQhAADZcQrZT6yYulAxNrxG73rk7cdCiyj6ahKuRZRS0/GhByYivKdll0IvULjx4BMwmuUr3oh6S8D+UxcCAJAddWWmS1lrKsZnPY9+3qQydW5uXEL2v2EIHR16YIxYl8JswNtU2a9VlUsrIQAA2XE62U+s2OKqZpoEQVd49HW1op+mMJjsf8MQOjz0wBiyMfmNhTbX/zSFvvLss2lCAACy4wyyn1gW0jyYOVjwqWu+vaKvJnAW2f9+IXRI6IExZE5yHwc+aTKpoi/e4Hq3R39NFQIAkB18FMp6YllpY8U4re3RD+/qn0vRV+rksm/koNADY8ieFGceMDt79NVkIQAA2cHZ66wnlpW0m5581r55s9Zoir5SJpf00dqTGqkyFbnvxL9O2deMVJbbtv7tLIQAAGRHLp9zXcUV2qRpdXnn9QcefZ0s7Cd1jiD73y2ENFUcU4UzCd5Dbv5/WmgSZV8POvaVgxAAgOw4m+wnlrW2UozX6h79cJW05RV9pcpAsv/NQmj30ANjgE8Av6Gyr709+spBCABAdvyd7CeWtYYVml4xZj71zt8jXV2CFOFP59a/WQg1PQDgPQyuvmt3/c9K5V4W69/MUggAQHYgACjFu5ql6Xv5bP97Hn1pShSnyB5k/3uFUJMDgA2o/KLk4jcnt5pY0deIhR537CsnIQAA2cElUa0nViraWTFuf/LsS7vzOiV2I/vfKoSaGgDMQ34b8TZX9newR185CQEAyI7BZD+xUhF/4pxNMXY+wRNvwNIkI0qJXcn+twqhJgYAvHz0Bvn5vYqiv7kLfe/ZXy5CAACy4zyyn1gpaTvF2PnkBmANVvSVErmcA29iAPBP8vd7W0V/+wboLxchAADZcT7ZT6yUpHk78v0Uzmu4yyr6SwUEADZwDYsQfh+m6NOnLHZuQgAAsoOr41lPrJQ0t2LsQiTEeaXQqIo+U2BHsv+dQqhJAcDohYZQGL8HK/pdPFCfOQgBAMgOBAC/lWZd/rJAfTYtJS3XNrD+nUKoSQHAMRTO7zsV/U4dsN+mCwEAyI6LyX5ipSLeBCjNCsiEyorGN5aJFP1aw/skrH+rEGpKADABlbkqQvn9oqLvkQr9FLDvJgsBAMiOXGq7h9CryrF7K2Dfxyr7toQ3kVn/ViHUlADgSArr9zBl/+8G7r+pQgAAsuNSsp9Yqegexbhx0qAfAvbNXx+mUPRvyTZk/1uFUBMCgLHJvdBPO42jsOGhGvpvohAAgOwItY6dgy5SjNukNfR/mqJ/S7h2gvVvFUJNCAD2p3p8n0Nhw+U12dA0IQAA2YHJ/auOUozbAjX0zzeYfgobrNiS7H+rEEo9AOD9KK9RPb6vqLDjuJpsaJoQAIDsuILsJ1Yq2lExbqHOZPfUlgobrPgz2f9WIZR6AFDnETzNdZZL3gdfIQAA2XEl2U+sVLSGYtx2qsmGhxU2WLEF2f9WIbRX6IEJzDlUn+8DFXbUFew2TQgAQHZcRfYTKxX1V4xbyHPZPTW7wg4LctkDsH/oa3TBigAAHSBJREFUgQnIaIWGUn2+n6OwpX+NdjRJCABAdlxN9hMrFU2iGLc6j0/up7DDglzyABwcemACshrV6/stClsmqtmWpggBAMiOa8l+YqUgrng2vGLcHqjRFk2mNgtyWRM+NPTABOR0qtf35xS28GbEb2q2pwlCAACy4zqyn1gp6A3luA2p0RbOCTC60p6Y8OY5698rhI4MPTABqWv3f0tfKO15pWZ7miAEACA7rif7iZWC7leMGX8pqLtG+goKe2KzN9n/XiF0XOiBCcQMFMd/zZHTuyLZlLIQAIDsCFFfPAddphiziSPYM1BhT2x4j4L17xVCJ4UemEDEKrY0s8KmwZFsSlkIAEB23ED2EysFaXLxx9gVfaXCntjw5jnr3yuEUs28GKtC57IKmw6NZFPKQgAAsuNGsp9YKWgXxZitEcEeTcW22BxC9r9XCJ0ZemAC8QLF8X+AwqZcjn76CAEAyI6byX5ipaC1FWNWVxKg7uISrKMpbIpJ6Op0VvpH6IEJAG/+/JHi+H+Awq4VI9mUshAAgOxAAFBqIcWYHRXJprkVNsWEl0usf68QuiD0wARgQYrn/98Uds0W0a5UhQAAZAcnBLGeWClIU4r3okg2raOwKSYnkP3vFUKXhB6YAGxL8fy/QWFXv4h2pSoEACA7biX7iWUt/uQ6gmLM7o1kV6rFak4h+98shK4KPTABOJ7i+f+k0rbPI9qWohAAgOy4newnlrXeVo7Z65HsOllpVyzOJfvfLIRuDj0wAYhZnfNjpW3PRLQtRSEAANlxB9lPLGs9pBgvTov6bSS7rlPYFZNcKkhqkj/F4hGK5/8vhUZV2NbpJ4YQAIDs4Lzz1hPLWlcoxitmYZSnFHbFJJdloydCD0wA3qe4YzC9wrYzItuWmhAAgOxAik+iExXjNU9Euz5X2BWTf5H9bxZCL4ceGE9GLvQzxR2DJRX25ZIB0lUIAEB23EP2E8tams12dZdp7amxFbbF4lmy/81C6N3QA+OJRdndjRX2bWJgX0pCAACy416yn1jWWk8xXjtEtm1OhW2xGEL2v1kIDQ09MJ5MQ/HHYB+FfUsY2JeSEACA7LiX7CeWtRZVjNcRHv0MJv0u79UUtsXiE7L/zULox9AD48msFH8MTlHYN62BfSkJAQDIjvvIfmJZa2rFeF3g0Q9neeNKgt8o/mZnhW2x+I7sf7NQ0uyCr5v5KL7/1yjss9ijkJIQAIDs4KNQ1hPLUnxDG0kxXnc79sMP/ZG72rhY8XcnKGyLAftg/ZuF1ARhh8eLxSi+/48qbXzPwMZUhAAAZEcuO7pd9b5yvF5x7Kf7mfMtFH+neUOLgcVGtTo1Xdjh8WIFSv/6j5mnIDUhAADZ8SDZTyxLad+ANJ/vu6v7m/w0ir/Tpmutm7nI/jcLKU0RqLqJfcKEpf0CFjNTYWpCAACyg7PgWU8sS12tGKsJPPrZqls7nE3wC+HffaawLwZ/IvvfLKTWCDs8XqxPNmMwtcLGvxrZmIIQAIDseJjsJ5alNLugfd5+F+/RlubLy1gKG+vmL2T/m4XUtmGHxwsOEi3GYBGFjbsa2ZiCEACA7OjkNT3W3oqx8nn7nbBHW+co/nZuhY11cwzZ/2YhldImywPIZgw0eTDWNrIxBSEAANnxb7KfWJbaSDFW2zj28WkvbWlu9hob64Yr6Fn/ZiF1Z9jh8YKrP1qMgSYT5vxGNqYgBAAgO3gTnPXEstQSirE6zLGPB3ppa1PF3x+hsLFuOH2u9W8WUhycDRd0hNzhEx8WY6D5CjKJkY0pCAEAyI7HyH5iWUpzDOw8xz7O6aWtpRR/n0pZ4Fxv/tMEHCMfXiAb/zXVMDlYyikRlEYIAEB2PE72E8tK2nrorqWTe/vEOoPi719R2FgnS5H9b1aHUjgKOGKh78nG/weVtr5mZKe1EACA7OBz5tYTy0ofKcfqJcd+Vu6lrbEVf/9TodGUttbBOmT/m9WhZUIOkiMzkp3/byltvcfQVkshAADZ8RTZTywrPaEcq2GO/fS1zKB545tHaWsdcOlY69+sDqUwtquQnf9cFGkEha3nG9pqKQQAIDueJvuJZaV/KsZpXMc+OHPg8H20qcmrvonC1rrgpDnWv1lo8TLQ+CEHyZE9yHYcJlPYerixrVZCAACy4xmyn1hWOl0xTn9w7OOFNm1qxv5Iha11YVGtrm69FnSE3Pk72Y7DAgpbXY/DNl0IAEB2PEv2E8tK+yvGaSXHPm5q0+YDinZuUNhaF2NQuR/B+ncLKU0QWCfPk+04rKWw1XUuNF0IAEB2PEf2E8tKmynGyTVN62lt2rxN0c7HlMZ59dyqR2rS4NYFLy9xUR7LcdhZYe8cxrZaCQEAyA7rNw9LaXZ/H+LYx55t2tQmfplBYW9dsD/Wv1soPRJ4bFzhUyLWY3GMwl7NCZachAAAZIdV8pEUNJNinM517GPtNm1epGwrhY2AvGHOtSRyaloh8Ni4wpkercfiYqXNQxOwObYQAIDs+A/ZTywrja4Yp9sd+5ivTZtnKdtqt5wQk6PJ/rfz1WXBR8Wde8l+PO5T2tyJS4cIAEB2uCa3abo+U46Ta6A0Xps2T1S29bjS5rrg8sScPMb6N3TVEGr/u8RkpEJfk/2YvK60+6YEbI4tBAAgO14m+4lloWeU4/SVQx9fVrSpPU/9A+m+WtQJb56zSl3ro88LzVXDeLjC42g9JizO76/ZZHpmAjbHFgIAkB2cZ956Ylmo3fG8nrhuenq6ot39HdrUVC+sG97fwFnkrH9Lqfgkxfy1jIQ7nN/Belxamkhht6acdS5CAACy41Wyn1gWOksxRrM79lFVxW8Xhzb3Vdgdg+WoXE6x/j2rxGWvp6lnCLxIKQ+HJiXyZgnYG1sIAEB2dGplr4MUY/RHxz5OqmjXJbfAPQq7Y8Flgi+gNJMEfUhloKXJdR+Lqcl+fLprVYXtSyVgb2whAADZwZt/rCeWhTZXjNFfHPvYpaJdl7co3gcwlsL2mExbaCCV5WV5rb1lM9c84KRHhxVajcq0yvNSefb8F9KPwcFUjsE4VD6I+BjdPYXe7+qXc1tcUmgjSqOKYl/sQPbzoLu2U9g+fQL2xhYCAJAdb5D9xLLQsooxGujYx+oV7W7q2K4mbWvq8DKJxvdUTkKE4BaynwfddYTC9lHIPnthbCEAANkxhOwnloU0SYBcC7XMWdHuJo7t/l1he+rwW7rG98NszAwO11X4luznQXedr/Th/QRsjikEACA7mnye21X82VnzafhWx36qPtVv7Njuu5RGXYAQzEo63ze2MTM4rr99nbpL6cMjCdgcUwgAQHa8TfYTK7Y+Vo6RS72ETwXtat9+uyuls+w+cGphjd+r2ZgZHE0hqFh6SenDFQnYHFMIAEB2vEP2Eyu2nlCOkUve86cE7foEAPspfUiV4Um3EVCzdyNVJqc0T0wMU/pxfAI2xxQCAJAdvEPbemLF1rWK8enn2Mc/BW1v6OHD8wofUodPNkj9XsjIxpBwLgfrOdCXxlb44ZLHoslCAACyoxMDgFMV4zOLYx9nCtrewNOP/go/UkZTXbBqY2UTSLkA12wKP9ZMwN6YQgAAsqPTdvKy9laMz7KOfRwoaHt9Tz9SqQ7oC396lvq8oJGNoViA7K//dlpe4cu8CdgbUwgAQHZ8QPYTK7Y2VIyPa8rTLQRt+wYAvNFwFIUvqaKpJ/AnIxtDcQ7ZX//tNEDhywQJ2BtTCABAdnCqVOuJFVuLKsZnP8c+JG9S6wXwZR2FLynCAYzG3wE2ZgaBUyandva/p/ZX+pRCKeNYQgAAsuMjsp9YsTWVYnxOc+xjVkHb6wbw5QaFLykyI+n8Ta0YkgbOtGd97VdJu6z0YgI2xxICAJAdn5D9xIopPn41omJ8tKlqW5Lk6/fdBNjyZ0aFP6mxEun8vd7GTG/GpN/WR0hVmhMyTIr5DOoSAgCQHU0o5RpSbyvH53GHPoYK2948kE+SEwepwql9Nb7yQ3R4E0v92I3sr32JHlX65Zomu4lCAACyo9MCgAeV4+NySuIFYdvbBPKJ15UnVfqVCveT3t+5TSx1h784vUn2175E7yp9OzgBm2MJAQDIji/IfmLF1KWKsRmJ3Cqe3SZsP2Qilb8p/EoFDlpcMuIdY2GsB1xm1/q6l4p/jxEUvm2RgM2xhAAAZEenBQDHKcZmKsc+zhW2v1dAvzibXtP2AuxObr7yV6vRDex1gdf+m3bUdjKFf8skYG8sIQAA2eGS577J2lkxNgs79iEtWXtQYN9uUvhmDX9deZPcfd0qusVuaPc4pKD5Ff7NkIC9sYQAAGTHl2Q/sWJqTcXYrOPYxzbC9g+vwb/1Ff5ZsiX5+fkmlW/XKTNzoe/I/prXanWFj5zHQVPMqclCAACy4yuyn1gxpcmf77pGL81Wd1wN/nFeB80nXAvGpTD5J06IbbgCPqlwN9lf7y7aXulr05Y4XKXdIAlA8mxCnbUMMJFibI517EO6S/2Umny8h3QbuWLDeyRC+Mkb1jSfq2MScn9HbB2u9PXfCdhct+4tNIVyXABoBFNTeYFbT7K6xcflhlOMyyWO/UwgbP/sGn1NtVDQAArrJ+d1SO2LB+8d0ZQ4Tk2Dlf5emYDNdYmDTD7qmHJADYA3/MmS31qauGYp1UvKMbnPoQ9NkHF+zf4OVPpbN0uSrvSvVE8W6hfRj3bwpriPyf5a99HtSp//moDNdeitQospxwKARjNXoefIfvLVoVuVY/GaQx+vKdq/LILPJ1MamfP4rbjO/Sa83j5ONG96Z3ZqTsKfdnpe6feuCdgcWlcXGk85DgBkwahURvUuSXBS1lmKMeC3eJfKbfcq+nCtM6DVHWT7mZxPJtTx5t9TnIFx2kg+9WQ5ymcvzRdK39dKwOZQ4ut0W6X/AGQJJ/ngNVbrSRlK+yl8d611frGij5i7xD+lsvZAzK8BY1C5FyHmMTE+XbByDOe64EBxR2r2mn9vGkMxBv0TsDeE+MvHHAq/Acge/qzquhkuNW2o8Hsuxz40aWqfNBgDLvaynMJGF/ihyDkUXjfwryW+ZjUnPlzgh8W/DH2sU5qskhMlYK+vuKDWaAqfAego+OHZhHKm7bSwwt+VHfvQZBq0fEBylcNNSfemVwUnhdmY3Coo1iFOGTyo0IQBfWQmL3Q85ffW311LKsaDA74YSzx1iO9payt8BaBjmbLQnWQ/aV2lWQffyrGPtRR9pFCJkbOb8dvyZuRWUXDsQqsVOqfQJwn405v44XQGlTu6XY9zDdf197xxM+cHf0sbKcfn5QRs1oq/3kyl9BOAjoZvhFzb3GWDnKXYXs369yDHfhYUts/j+GMC49JTnO3shkInFdqDyn0D63aJvxhwlrijqHwQ8qa7pm0U5SDlvEJbF1q80Ph9/D4TF5qXykCQfW360T6t9upjXPrijgRslorP9h9KZZlmAIADvP75NNlPZqleVvr3d8d+Jhe23894PKBfxfUw+FPwO4WGUPOC2zp0Iun4RwI2S8QB7lJK3wAAvcAV3QaRW0332LpN6dutDn1oaqlPaTweENROV5COQQnYXKXrqe8vPgAAR3hznUvSnJjS5ABgXJIhvaNo/w8GYwBBUj1IOv6cgM19ibObcmEvTRpwAICCsah8yFpP9r60v9KfLxz6eFjR/mIGYwBBUg0hHcslYHNvepHkxbkAAJ7wkRpOOmM98XtKs6t5dMc+rlL0sYrxeEBQO31PujfmmRKwuacuoLDHXAEAAvi4Ha+5W98AumtRhf0zOvZxsqKPjYzHA4KqpMmfwOnDY2Z8bCdOyby+wnYAQGD47YGPWg0j+xsCS5MDYGnHPjRHp3YwHg8IqpL20/lHCdj870LTK+0GANTErIWeINubAm8C0uQA2NixH80yw4GG4wFBEmlrKjxqaCufwDmEcLYfgOTg44JHkt1xwVeU9u7t2M+Sij5OjzwGqejDQvcVOp/KGzbvHv9joWULzVdozkLTFZqm678zdv1/1oqFBhQ6mMoNpw8QzuzXKU6CpOEqIzvfpHJTLQAgYfi4ID+MY98gtDkATnHsR/Pp8ZrIY2ApPlLJSx51lOodmcrr6m/U3Hz0qWqg4ndgTjCw8XIqC5YBABoA77A/leJuGDpNaeMVDn2wP5pqYo9E9D+E+Ob+hsPfcbrgWJ9leZ/HfxxshHrX2brh/1+K8Fi2cQ2LLZT2AQASgT/5vkVxbha7Km27z6GPT5R9xPI9lDj/P5d91Za/5dSrMddlByntg/rWTbqh/98R4Bh2PUblsUMAQIPhSnLnUv03jFWUdr3k0MfTivb5hMT3EfwOqVaOAy75e6Hybw9TjI0PnF75bYVd/BY5qNBKVG4UtR7j1PSUavSJ5q/ZHi48dQyVyz4AgExYtdAHVN+NYxalPS5ZAG9UtD9Bjb7Wpe4BDgcwB5BuGYfLBY+tGCMNvMmUPwdryhHzl4zpurVxt+JvO0Ufy4b//5i4RlveozLbIAAgQ/ih6LL2XiU+eTCKwg7+ty77E85Q9NHEOgCcz6FnZrh1Cn2taIMr7h1O4c5pj1toZ9Ivp/AJgp5vkRcp2+gE8TzQzB2+Puo4lcFFfCZQ2AEAaCgbFvqMwt083lD271qlb29FHysE9C+mekum1J/KtzNtW7zMwg9izrkwG1WnbOV9BFNTmaRpPypPdvyg7JP//fZ9tB9jKaqJmqaP8eqLkKd8+FQH/14o4gNABzEJhfsacLuy7/6O/ayn6GNAIN9ia8k+/Jmi0JMB2ucvBHxk8PEeGlLoR8+2eXlgqT7sZy5JYHxT1CJtxqw37gzUL19Psyv7BgBkxGpU7iL3uZFoPs0zf3LsZ0FFH/t6+mSlXdr4xG/wdSzhhBDvX6jKQfB4AnamqHUrxq0nvl9SONDjZaKRlP0CADKEywzzQ5x3ALvcUHZX9uda13xiRR8nO/ZhrX9W+MWfanm8fd/WQ2owVednmJTcr6/cpT1CO8ijL14W0gTSAIAOgVN9cm1v7U1lNWU/+zn0wWuVmnVKq5SpvuINXpIKcQtRmQDI0lZeTthMYCtziLGtKeto4Ri2+ItDH7zZkLNvjq7sCwDQQfCO5ENJt/lrNmUfJyrabulFZR9NywLYXdIz/aN0/VuLXP1XUrmPRAIHNJ8b2NgUDRaOY4vlle3zCY5llX0AADqYOUiWkY4/RWuOMTHnCdrtqVuUffjua7AUf+3ofn6+Cj5VwQ+RGIWg+JrQFoU5P4JdTZb22p5Z0TaPfV25IQAAGcOf3PnIYLvMby84tOtSpOdMRft8nM2qKmIocYa4qmN7PeGggesJDA1sC6/dX0dub5GbBLYlRz2pHFP+jF+VR+OjQmsq2wUAgN/BN5xB1HtCmssc2rurl3aqtK+i/akc2k9R/Jnd5Xw2/16cQIh/G5eMiywOoLgUMG9Qm9LBBmZRQvVAid53GNuP27THaaQl+0gAAEAMPwgupd++fezn0M5jpL9JbqhofxGH9lMVn53XLrF0Z/hCcxXajsqTETcXeqLQ61Q+RPi//BXnXiqXEfanMh1sP48+Gf4NsO4vEy+jDa8c396OVL5K5f4AAACojQWofDvlt8SFHP7+ZdLfJBdWtL+eQ/sp6/5C4yv8t2YD0qUvhvRv7N2X0bjg0oGkK5UNAABejEf6NxfGpSjRpIr2d3doP3XxZ+K1FWNgAZ8KGEz2Y9VE/UE51idR+YWFv+po8mMAAIAp2nVhPuamWQt3OWbYFPFmvBkUYxEDfvPkpYOvyH58miptFT5eohlV+TcAAGDKCKS/Ob6s7ONKhz6aJF564b0YcyrHJTRcPY4LNLU7JQLJtIly7AEAoHHwm7z25nibso+HHfpoongz5n2FtqV4ewQ4gFuCylwOFgmIctUeit8AAAAaizaP/anK9pucBMhVnLnx1kL7ULkxc0TlmLWDKxHyxr6LKWwZaehXHSv+NQAAoMFo3xx3VLSdQxKgEOKd4Q8V+geVQcEaVJ7Ln5XKTWMjU5khbtwu8SbLeQutUmirQkdSmaHuowR86QRdQAAA0AHww0lzc9ScbZ5S2TYEpSDOzwAAANmj/Yw8laLthZVtQ1AK4hoLAACQPc+Q/MbICWU0RwDXVbQNQanoWQIAgA7gCpLfGJ9Str29om0ISkVDCAAAOgDe1Ce9MWqLDR2saBuCUhEviwEAQPZMRPKTAIco2z5V2C4EpSLO58CpfQEAoCM4gGQ3x42U7V4mbBeCUhAfs1yZAACgg+CNfYOo+gY5r7LduwRtQlAKur3QZAQAAB3KNtR3cSBO6DOGsr0n+2gLglIRL3/tTLrTLQAAkCWcne4J+v2N8mmHtl7upR0ISkXPkb70LwAAZA2n8N2Nfpsl8GyHdt4ju5s7BPUl3uh3CqGELwAA9AnnqT+x0NBC6zv8Pf+d9c0egrqLN/r9iQAAAIjgYjXDO/wdCgFBKYlz/HNQCwAAoGasb/gQxOKNflyF0SWIBQAA4MDPZH/zhzpbLxSamwAAAETlR7J/AECdKd7od1ah0QkAAEB0uHqg9YMA6jxhox8AABjzBtk/DKDOEjL6AQBAAvyL7B8IUGcIG/0AACAhziP7BwOUv54nZPQDAICkGED2DwcoX2GjHwAAJMr4hT4j+wcFlJ+w0Q8AABJnA8JxQCisbiFk9AMAgEawOJVvbNYPDqjZ+o6w0Q8AABrHdFSWX7V+iEDN1H8IGf0AAKCx9Ct0Pdk/TKDmiDf6nVZoNAIAANBohiu0S6EfyP7hAqWtjwutSgAAALKC9wW8R/YPGShN3UHI6AcAANkyYaFbyf5hA6UjbPQDAIAOgZcE+Ib/E9k/fCBbYaMfAAB0IEsX+oDsH0KQjS4gZPQDAICOZfJCD5D9wwiKJ2z0AwAA8D9GLHR0oZ/J/uEE1SvO6DcJAQAAAN1YhnBKIFdhox8AAIC28CmBm8j+gQWFEzb6AQAAENFKHPQ92T+8ID9hox8AAAA1/Qu9SvYPMUgvbPQDAADgxViFLib7BxokFzL6AQAACMZmhYaR/cMN6lvY6AcAAKAWZin0NNk/6KDfCxv9AAAA1AqXiD2D7B94UCku3Xs6oXQvAACASKxR6DOyfwB2snij32pVPxQAAAAQmikL3U/2D8JO1O2EjX4AAAAM4TTCgwiVBWPpW8JGPwAAAAnBlQXfJfsHZM56vtBc0h8EAAAAiMUEhW4k+wdlbuKNficXGkX+UwAAAABxQRrhsPqw0MqqXwAAAAAwZL5Cr5D9A7TJuobKryoAAABAo+hX6EKyf5A2Td9Q+RUFAAAAaDScRvi/ZP9gbYIeKzST2zADAAAA6TFzoafI/gGbqvgY5RGFRnIdYAAAACBV+OE2qNDPZP/ATUlvFVrSfVgBAACAZrBcoffI/sGbgq4sNJ7fcAIAAADNYcJC15P9A9hKXxba2nsUAQAAgIbCGwSHkf0DOaYeKTRDiMEDAAAAmsys1BkbBH8sdDRhox8AAADwf3CaW3445rpBcEihxYKNFgAAAJAZOW4QvIDKpEgAAAAAaANvEPwn2T+4fTW00EaBxwYAAADIHt4g+DXZP8hddHehKcIPCQAAANAZNG2DIG/0G1RohBrGAgAAAOgoRqVmbBB8sdC8NY0BAAAA0LEsX+h9sn/Q9ybe6DdGfa4DAAAAnQ1vELyB7B/4LX1caLVaPQYAAADA/xiOyjS61hsE7yg0Wc2+AgAAAKAHfyj0HMV/8H9baGcqAxEAAAAAGBB7g+CzheaK4hkAAAAAKql7gyAHGCcXGjmWQwAAAACQMXGhmyn8w/+1QotE9AMAAAAADnAGwf9SmIc/H+8bM675AAAAAHBl2kL3k/uD/6NCq0e3GgAAAADecDrefQp9T7qHPy8jTGpgLwAAAAACwscFn6bqB/9XVOYXAAAAAEAmjFboxEK/UO8P/zupXDYAAAAAQIYsW+ht+vXBP5TKt34k9QEAAAAyZ5xCFxa6jpDKF4CO5P8D1f8MxVJW3WYAAAAASUVORK5CYII=;" parent="1" vertex="1">
                    <mxGeometry x="550.66" y="205.5" width="85.5" height="85.5" as="geometry"/>
                </mxCell>
                <mxCell id="23" value="&lt;b&gt;Test source code&lt;/b&gt;" style="text;html=1;align=center;verticalAlign=middle;resizable=0;points=[];autosize=1;strokeColor=none;fillColor=none;fontSize=14;fontFamily=Times New Roman;" parent="1" vertex="1">
                    <mxGeometry x="542.25" y="180" width="120" height="30" as="geometry"/>
                </mxCell>
                <mxCell id="24" value="" style="endArrow=classic;html=1;strokeWidth=3;fontFamily=Times New Roman;fontSize=14;" parent="1" edge="1">
                    <mxGeometry relative="1" as="geometry">
                        <mxPoint x="620" y="247.25" as="sourcePoint"/>
                        <mxPoint x="700" y="247" as="targetPoint"/>
                    </mxGeometry>
                </mxCell>
                <mxCell id="26" value="" style="sketch=0;aspect=fixed;html=1;points=[];align=center;image;fontSize=12;image=img/lib/mscae/Docker.svg;" parent="1" vertex="1">
                    <mxGeometry x="700" y="210.25" width="107.01" height="87.75" as="geometry"/>
                </mxCell>
                <mxCell id="27" value="" style="endArrow=classic;html=1;strokeWidth=3;fontFamily=Times New Roman;fontSize=14;" parent="1" edge="1">
                    <mxGeometry relative="1" as="geometry">
                        <mxPoint x="810" y="247.5" as="sourcePoint"/>
                        <mxPoint x="890" y="247.25" as="targetPoint"/>
                    </mxGeometry>
                </mxCell>
                <mxCell id="28" value="" style="shape=image;verticalLabelPosition=bottom;labelBackgroundColor=default;verticalAlign=top;aspect=fixed;imageAspect=0;image=data:image/png,iVBORw0KGgoAAAANSUhEUgAAAgAAAAIACAYAAAD0eNT6AAAACXBIWXMAAAsTAAALEwEAmpwYAAAgAElEQVR4nO2dBbQmxfH2C9fF3d2DLu4aILj7QoK7O+ziGhyCJCzuGtwtSHANzuIuC1lcvm8qc98/l8u971R193T19Pv8znkO53D2dlf1Oz1TM91dRQRAZzB3oeGtjQCNYMZCTxSayNoQAAAA7oxa6MpC/6/QUca2gGawP5XXy32EoBEAABrJcIUupfJmzhpaaBRTi0ATuJV+vWZ2M7YFAACAA3vRrzfyluYxtQikDgeNn9Ov18vXhWYytQgAAICKuQp9R78PAAZYGgWSZxb6/TVzr6VBAAAA5IxY6Bn6/Y2cdYKhXSB9NqXer5v1LY0CAAAgYw/q/SbOutPQLpA+x1Pv1807hcYwtAsAAEAFk1C52a+vAOBTO9NAA7id+r52DjG0CwAAQAWXUN838JYmM7MOpM771Pd1802hqe1MAwAA0BdLFPqFqgOA5awMBEkzAVVfOxeaWQcAAKBXeOPfs1R9A2ftaGQjSJtlqfra+bnQvFYGAgAA+D17k+zhzzrVyEaQNpz0R3L93GZlIAAAgN8yaaH/kjwAuN3GTJA4/yD5NbS8kY0AAAC6cRbJb9yst2zMBInzGMmvoacJdQIAAMCUmQv9SLoAgDcK4kw36M4IVKb91VxHG5hYCgAA4H9cQ7qbdktzWxgLkoUDSe019DKVm08BAABEZkGSHfvrTUjtCrqzLrldR5taGAsAAJ3O/eR202YNNLAXpAtn+XO5jl4lfAUAAICorEbuD3/WJfFNBglzFblfS382sBcAADoS3rD1PPkFAE9EtxqkjM/19GahkaNbDAAAHciW5PfwZw0rNFxsw0GS8Cf878jveto6utUAANBhjFbobfIPAFhTRLYdpMlM5H8t8TU5SmzDAQCgk9Ck/K0SigIBxnc/SUuoMQEAADXByXs+onABwLZxzQeJsg+FuZ64lPBokW0HAICOYF8K9/BnHRfXfJAogyncNbVrZNsBACB7Qr/9s66N6gFIlYcp3DX1caEx45oPAAB5E/rtn/V8VA9AqnxOYa+rveKaDwAA+VLH2z/rW0JFt05nEgp/XX1SqF9MJwAAIFdCbdLqTVNG9AOkx1JUz3W1X0QfAAAgS+p6+29p6XiugATZjuq5rj4l7AUAAAAv6lj7766t4rkCEuRkqu/awokAAABwpO63f9bR0bwBKXIb1XdtcV6AUeO5AgAA+VD32z/rqmjegBQJlVa6L20TzxUAAMiDGG//rGdiOQSSg6+xX6je6+utQiPFcggAAHKgzp3/3YWqgJ3LfBTnGtsslkMAANB0eN2U109j3JxZk8VxCyTGJhTn+nqRkG8CAABE7EDxHv6sJeK4BRLjUIp3ja0XyScAAGgsvF46hOIGAH+O4hlIjUsp3jX2NGGpCQAA2sLrpTEf/qwjongGUuNxinudrRrHLQAAaB78hvQcxQ8ALo/hHEiOoRT3Ovt3HLcAAKB5rEnxH/6sJ2M4B5JiIrK51paL4RwAADSNh8jmpvzfGM6BpFiUbK61e2I4BwAATYLfjCxuyC1NXL+LICE2J7trbbH63QMAgOZwF9kGAIvW7yJICN74aXWt3RzBPwAAaATzk+3DnzWgdi9BSlxBttdb//pdBACA9LmW7AOAQ2v3EqTEU2R7vV1Zv4sAAJA2sxb6mewDgEvqdhQkxVdke73xNT9j7V4CAEDCXED2D3/Wo3U7CpJhUrK/3lh/q9tRAABIlakK/UD2N2LWFzX7CtKBaz/4XCt7FNq40Pee7XxLOH0CAOhQ/kr2D/7umqBed0EicO0H12vkzUIjdLWztUc7LR1eo58AAJAkYxf6ksI8uIcVWrvQYZ7tLFSrxyAVjiL3a+Swbu1w6mrf46ufFRqzLkcBACBF9qQwD3/eTLVWV5v8Zva0R1ub1OcuSIiryP0aWalHWzMU+sajPdautXgJAAAJwiV/36IwAcApPdr2+bw7KLyrIEGeJbfr45dC4/fS3n6O7bX0TqGRg3sJAAAJwm/aIR7+rxUao0fb4xT6zrG9i2rwFaQFf7b/mtyuj3f7aJMD2pcd22wJX58AAB0BV98LEQCs2Ef7Nzu290hQL0GKTE7u19uDbdrdwKNd1jNUBicAAJAtoYr+XNemj8Md2/w0mJcgVZYm92vu4jbt8sPbN7Dtub8AAACywvXtvLv4E//0bfpY36PtcUM5CpJkK3K/No6uaHtlj7ZZd4dxEQAA0mN2KjdS+QYAJwn6cW17/hCOgmQ5ltyvjb0E7d/v0T6uPwBAtpxL/g///1J19rTxPdrfMISjIFl46cj12viLoP3FPNpnXeHvIgAApAU/tDn1qW8AIKnaNzy5Fxg6yNdRkDQvkvu1t6awjzs9+viJUCQIAJAZR5D/w5+zpo0t7O8zxz7O9/ISpMyI5Je/fxlhP8t49MFCkSAAQDbwWX3XB3J37a3o83XHPtod9QLNhrP2+Vx/iyj6esSjH84sOJGzlwAAkBA7kP/D/71Coyn6fM2xn4+cvQSp8yfyuwb7K/pazbOvw37fJAAANAs+H/0S+QcA2yr7dQ0AWGO5OAqSZzfyuwbnVPTF1/1zHn19QrqAFwAAkoOTm/g+/LluwEjKfl2XAFjzuTgKkudM8rsOZ1X2t7Fnf1s5eQkAAIlwC/kHADs69PuGR38bOPQH0ocT7fhch9rd+bzp0CcQfYGQHhgA0FBmJv/EPx+S26fQDzz6xFHAPOF9JD7X4iwOfW7n2ecKDn0CAIA5p5P/2/8+jn375BzAUcD86Ef+wegcDv2OTuV6vmuftzj0CQAApnBZXs7a53PDHUryc//dGdmz34cd+gRpw/s6fIPRuRz79smBwUGLdu8BAACYsgf533AlWf96Y0LPflEVMD82Iv/r0XVz6GTkl4DoTMd+AQAgOiOQ3+Yn1rBCEzj275vwhTWeY98gTQaR/zWxsEf/F3j0+zWV9S0AACB51iD/m+1fPfr3LcjCWsCjf5Ael5D/NbGcR//zePa9n0ffAAAQjbvI72b3XaHJPfpfz7N/1iYe/YP0eJz8r4m1PG2416Pvd0mfCwMAAKLCO6V9d1v/w9OG3T37Zw3ytAGkA5+l/4r8r4kBnnas7tn/Rp79AwBArfyd/G+0rrutWxwfwIaLPW0A6cBfk3yvB9ZOnnb4psV+3LN/AACoDd6oxJXMfG6ytwewI8R676MB7ABpsDSFCQAOCGDLLp42LBrABgAACA6X6/W9ya4UwI4HA9jxRQA7QBpsQ2ECgJMD2ML5MYZ52HBlABsAACAo/HnzVfK7wb5EYXKff+xpR0uuxxBBWpxAYa6HqwPZc7aHDT8Vmi6QHQAAEIQQVf+2DGDHWAHsaMnn3DdIh5sozPUQalloLk87jg9kBwAABOE68rup8Vv7qAHsmNfTju4aEMAeYI/vl6mW3g9ok88yFafIHjOgLQAA4MyUVH6a9Lm5DgpkS4gcAC0dHsgmYAfXhfiRwlwPfLzVpTZFb/imJt42kB0AAODFIeR3M+PKfRMHsuUAT1u66/JANgE75qRw1wNrkUB2jVLoIw87ng5kBwAAOMPZyXzrrPsm/ulOiCOALT0Z0C5gw8YUNgDYJqBtPlUCQwYjAADgxDrkf1OdN6A9LwSwpyUuZxziVAKw42gKGwCcEtA236WzCwLaAgAAau4gvxvqQwFt4c+qP3ja01OTBrQPxOdGCns93BfYvus9bOGlMxxVBQCYMD355/0PWXTHt+Jab1o8oH0gPm9T2OuBS/OOGNC+VT3t2TOgLQAAIIZL9vrcvD6hMEf/WmzmaU9v+nNA+0BceMe+b4Dam+YOaCMHE+962PJaoeED2gMAAJWMVuhT8ruRHhPYphBFgHrq6MA2gngsRuGvB1boI3iHe9rzx8D2AABAWwaQ302L38xmCGzTfZ429aarAtsI4rEd1RMADA5s57SFfvaw59rA9gAAQFseIL+b6M2B7RmByl37oW/2zyrt4GptyyWohQrNl4mmEP4Wp1M9AcBLwv413OlhDyc6ko4JAAB4MSP5r62uEtimOTzt6UvfkW7T12s12QH9qn2Fv4VvkNpOkwltkLKhpz2HBLYHAAB65Ujyu1m9ReUbe0j+7GlTO82ksAMBQP1aT/hbfFGjDRsIbZDCKYs/8bCH6xSMFNgmAAD4Dfzgfof8bp771WDXGZ42tdOaCjsQANSv+QW/w5Q123CWwAYtJ3natE4NNgEAwP/BO459blK8XllHcp3HPe1qpwMUdiAAqF/jC36HlWu24RWBDVr+4GnTnTXYBAAA/8el5HeTurEGm/pRuIpvvelihS0IAOrVl8LfYe8ItkwutEXDvz3s4X05muUqAAAQw4lVviG/m+baNdjl+1WiSk8pbEEAkMZvcWEEW+pIErWTp01H1GATAADQ9uR3c+LEQaPUYJdvIpUqcc516aZFBAD16mrh7/B0QrZo4OWN7z1s4qyCoTfYAgCA1+dJVshKat2pIwFQT80otOXlCLZ0so4X/AZ8bPO7CLbwcsTIAnu0+BQIYq1Qg00AgA5mdvK/Yc5Tg138ReHbALZVaTWhPY9GsKWTtYPgN5gtoj3LCuzR4lti+6IabAIAdDDHkd9N6Zma7Kor33tPSY8u3h7Jnk7VSoLfYP2I9pwgsEcLB7Wfe9jE+3TGrsEuAEAHwmuKnGjE50a5a022DfK0S6pLhfZcEcmeTtUsgt+g7j0h3fWywB4XzvK0a8ua7AIANJTRC61I+p3Cy5DfzeiHQhP6m98r//K0TaoXhfacGsmeThQXzJGUj74psl3S/SEaFvW06Q6HPnehMsviBJ62AwASgOuE96fy8/Vd9OvGKG0SE9+3kes8/egL/sxZ5/n/7vqp0BgCm3aLZE8n6l3B+DMfRrarjq9bw5HfiRKeF9qg+/Kuv+VAixNrcSls3uMgCboAAAkwSaF1qXxo9/XZXpMxjPOLf9pHO1Jt6OlTX6zhaZdWCwlsWj2yTZ2k+wXjP4WBXbcL7HLhEE+7tlb219c+H95TwF8U9qGyGuPwHj4BAALCb8H8IDyN5EfQzlW0v6Kwzb7EXx3G8vCvHad52qbVtgKbQpyWgHrXeYLxtwjA+BrvJ7BNy0yedmmXAXYWtvtRoUsKbUFlzQUAQCT4jDOvDw4q9CC5fQIfpOjvbIf2u+ufbm6KiH3m/kyBTbzPwrdUMtS79heM/6FGtmkKRml40sMmvjdo1vPXdOyH98fw3hc+KltXsA9Ax8JvAnz+mdfSOfmI781KmsKU1yF9d/8PcHW6ghk87XLRw0LbXjewrRMkSSMdewNgS5qvahr28bRrM0Vf83n2xeKggzfmDiy0CJUvLAAABZwOtLWOP4TC36yWE9qxoGc/vPt/PJcBELCHp20u+ppkaVavNrCtEzSHYOw/MLLtC6onzfW05PdF6UpFXxN69NOXhtFv9w8AAHrANw4+andUoceo3IVb581KWjHsMM9+blGPhJx7PG1z1WwC2w4ysi1nSY4AWmwA7K5VKuxzxScFtyZdMX/x8y32VaU3C51D5XFDSVlnALKEa3/vTuVDkt8sY92k+G1iNKGNj3v2VVcyknEp3vG/ntpCYN9qRrblrDcE4+66hh1KFwhsdMH3a9fyir5i7qvhoI5feI6k8gWoji8oACTDn6i8Sfiuq/voI6Gt/DnQ50uEdgOSho097GrpJSo/22r/7iyBfVMFsA/6rW4VjPsxxjby23YdZ+an97TrZEVfd3r25SN+EeIXop0V9gLQGCwnV0uPCm31fcjepxkYJZd52sbFgyancle59m+lNQ3e9bQR+q0kOffvT8DOuk4DPOdhk+TrSYtzPfoJpf8q7AWgMXA2PuvJdZXQ1gs8+zlQMzAK+A3L9yRE6y1+Roe/5YyAYwrsvNTTRui32qhivDlhVcyltL50WYWdrvjWN5BsoGR8kw+FEAIAkCV3k/3kkrxJ8WYg393Ukqx5LoTI/te9oIzLcszSAju3C2An9Kuq8u33T8BGFu96H73CVhfm97RrX2E/W3r2E0IIAECW3EP2k2s3gZ1ze/bBb+iS43IuXOxp22M92nOp3icpDTyHp53Qr+J9K8NVjPeOCdjZ0noVtrrA/n/sYdODwn5W8OgjlBAAgCy5l+wnlySZim/yEU2tAQ18euErT9t279Gmy4PjBoGtvjds6FdJSjH7BoYhdbXAXheu9LCJl64kxYFm9egjlBAAgCxJYZPSAgI7fZcqjtIOjJC1PO3iUw2T92jT5WsHByEjCey90NNeqJTk6OWQBOxsic/S11EbYAdPuwYI+hjHs48QQgAAsuQBsp9cU1TYyBvcvvfsYx2HsZHgu7Hu7l7a5KWKoQ5tLS6wd0NPe6HyxMY4FeM8XQJ29tTGFTa74LusJN0A3CobbiUEACBLOEe25cTiN+CqN9dVA/Qzt8PYVMGByTBPu/oqj3qLQ1uHCGzmNMg/edrc6ZLsqk9h41pP1VEimMvw+mTq4y9XkmQ7b3n0EUIIAECW8EYcy4n1scDGECV266gItrmnTfxVo6+6BAc6tCfdVJVC7oemirNWSoLJFI9ccrA9jcB2LU972rWCoI9HPfvwFQIAkCUPke3EkiSxedWzjy/VoyLjXk+72pUlXsqhPc50OLbA7vU97e5kXSgYX95s+WECtvYmyVciLb5JsE4R9HGHZx++QgAAsoTLyVpOrPsr7PNNOcp6z2VgKuA1Xp+KaKwN27TP57Zd9j1sIrCdP7lanQbgIIU/5/Ib3W1UvimfUejoLnEO9n261Pp//AXoH1SWnuYlK9eUyb56jWQB1h+MxlYiHvvhBT5o8E13PETQx82effgKAQDIkkfIdmLdVmHf9gH6eNVlYCoY5GkTr32OUdHHrQ7t3iS0v87Sxfyp+XUqv3Dw6YtNCy1K5WbPkLkYeFlnrkKrU3mUkoMELhZVR/W4FwpNKbTrgBr6D6kVhX5IGRjApqqsgNcF6MNHCABAlviU9Qyh6yvsuz5AH6EDAP7E+4anTecK+vmLQ7s/kKyk6YhUBgu+Y/s5lUshpxbaisojnVWBTd1wkDEzlUc0ubbCRYWeILcNm+zfQNJl0nvGoZ+YulLhiwTfHB2sqkRWLsmxQgoBAMgS68017XZUc81w3yQ7rA8dx6Yvlgtg01KCfviomctDq6+TBT3hpQDO5y45csjpie8pdCaVb9srkfyNOBU4cJuGyjdgDlZ4PZzrwPPDhb9E8TozB5znUxk4/JFkuRW6w4GH5XySiJeWJAl4pOwbwKaHKvq4NkAfPkIAALKE09BaTqwr2tjmm/63pW8cx6YvrvG0hz+PV6WRbXGGQ/uPK9pn+O2Wcwhwchsue8pH2PjtealCc1I9JyhyZRDZziepemaf9OGkAPbwslG7L0f3BujDRwgAQJbww8JyYt3cxjb+TO1SGKc39XXcTgu/9f7oacteiv64SNDPDn2s7O4icIS/WIW6XuvWCwH99j0FwHq8oo9nA/ThIwQAIEt4bdRyYlWdAjg2UD/zO4xNb/iWQOWvEZI1+u5c5NBP1SdVEB4uD2w5l7RaOJDfIZYRd6ro450AffgIAQDIkifJdmI9VWHf7IH6aXfkTgq/4fme75Zs/uvJDFRu7tP2tZpDX8Ad6yO1Ma7FnvA+Et80vfz37YJi3ofhcv2HFAIAkCW+Wbx8JdmgF+IN4xjtwPSC7xse5w2Yy7Hvvzn0N4TqqQMPfg+ffrCcRy7imgYTePo9fwA7quoBzBLYbxchAABZksKRpapNZiFyAdzlMDY98d0wKT2j3xu8a9sl+c2RHn0COU2tsniAp987B7BhlYo+1qzBb60QAIAssd5cw5q3wkbewPetZx981M0nA1qIo3+LefTP7OrQJx/5qhpf4Mck5F+t0krvkv6oY3du9Oz/Ayo3+7Zjv5rHQCIEACBLniP7ybWewM7LA/TjUxHQt4BO1WZHCXyjftGh7/8UGi1A/3UyaqFxe1HqdjMDyX4O+ch1fwyv//tWwzxO0E8KhZUQAIAseZ7sJ9cRAjtXCtCP69nnEOucKzn23ZNlHfu/gHS5AaTwGvLsXXZxHQIeY95vcVahS6hMB3w3lce8OCMj7/ng7Hqum7q+6fp7rmXwele79xa6oau/s7r65+x0m1FZaY7TzIZMfNMd3hj6gaMvqegxR99dr8Xuml3Qz3sRxqBKCABAlvB5YOvJdY/ATk7v6nsjuFE5Ni2u8uyXTzqEfPhe7GgHF9XR5uJnu6em8kG6C5WbEfmB/jY177M328vHybhsMtcN2JvKkxIzUvVn6L7YOAG/QuiPDr77lul+VNDHDEbj0VMIAECW8Odh68nFnxElN2DfqmOcVngU3fA4J+LprvWVfVbBa86u1fD4bW8ZKt9ce2uXMwLuUOhsKm/QXzv20zRxcMDLYfylZJeucRiz3Y/QhXUtjVC6T+Brd3i+fuTZ5/aCfrZIYGxYCABAlrisKdeh/gJbZw3Qj/ZsvG+Ws1cobAW8Fr4nI/hTOn+Z4E/o/ODzXcvNURz48fzgREy8tLEk/fbEyoIJ2BhSmk2qy3v2xZt6xxX0MziBcWEhAABZwrXVrScXa1ehvb7liy9UjM08VJ7d9+nvz4r+NPCJButCTp0ovh5epnK/wUMJ2BNSt5Occz37ulzQBy8/pbD+z0IAALKEb2bWk0tz89nWs58vqdxxLuFmz754eaWOt/8W8xX6ydNGCOoufrOvgpdGJBUk20myKbZ/AuPREgIAkCX8idp6crF4DbafwF7+bOibE2B1QT+LB/BpLUE/PWlXEa03TglgJwS1xLVBqjas7uTZB7/VSwLjQxIYj5YQAIAs4aNZ1pOrJekD03dd/jpBHw949sFLFdqd/4tQuUt9RsXf8Jp0Kp9JoTzEJxv6gh/cr3m2f3Sb9rtjXaekuxAAgCzxncwhJS1OsqJnP7yOO1ub9kMc7VpK6EsLLobSepBz8KBZOlg/gL0Q1BLv7u+rOE+ItLyz9NF2d7jstu/+m5BCAACyhJOpWE+uljhJjOTBx//mXc++zu+j7XHIP7HLLQIfenJNjzb2Vf79bZ42W4iPGPIXKD6JwLvtsZ8hHfW2WZaPjvrmDXm4l3Z7Y8cExqC7EACALBlC9pOru5YR2n2UZz+ciW6aXto93bNdPjo2j9CHFlv20g6XSJW8KbXghCm+eyPqEO/t4HXlwYUOovLrCtehn6QXH3gPyKkJ2AyV2qLH77NvgDa3IRm+S3ChhQAAZMmbZD+5uussod0hSoTe0KNNfjD5Jv25RGh/i2mpvLn01hZn3NPsIzjI03Zf/Ujl8sXJhTansvaCttAMH29MIT01VP6erQ2zXMbaNykU554Yh6rhz/++8zC0EACALHmL7CdXd31C8odGiHPYe3a1NXGAseC33emFtjP8cK8qMtRuQ1ZPOMthzMROnFmRlx4OLrQ06U8w9MXJEX2A2ovX4TkQ/TJAW9LgeI8E/O4pBAAgSzinu/Xk6qkVhbZvE6g/Pu8fYi+EpLJZd7YWtMn7EcZWtLkU1bd5ipdNuKohf2lYiOrLcZDiAwDy1wok47EEbO0pBAAgS/jYmfXk6qnBQtv5c+I3CdjL4k2JkjwGLfgzp/St6lRFu8x5Af0aQmWugVVJlhs/BL5pjqH0xC8aw1M1qRT/6SkEACBLfHfT1yEudCPN1ndJAvayNhDa20KTZZB3x8+raJtL337q4cszVCZh0W5mDMVuAhuhZklS8ps5MAFbexMCAJAlqSaRWU9o/woJ2Hq30NYWmzv0wVXnJG9QLf6ibJ8LA+1Duj0MdeF7wgNKS7wkNRPJSKU4WU8hAABZ8j7ZT67edKPQfl6HtlzG4HXxdkmFejJZoc8d+5IeoWJ4g+H9Fe3xzXYQ6Y4bxuAesr/+oHD6F8lYIAFb+xICAJAlvklv6hIfQZpY6MMRhnYeL7SxxfUefX1G5ed9KbNTGaB0b2MIlalY51baHQsusZtSBjjIX1uSjNMSsLUvIQAAWcLZ96wnV1/aTegDf160eGjw8olm499GAfocrOiPOZLKrzwnUZnnQFufIBZsF2805DS01tcdFE6cO2AsqoazDH6SgL19CQEAyJKUb7hPKfx40MC+DRX2TURhbnAc6Cym6JdzKmj2DtQBL9NMRWUAwns21u0SH4PkHAKclvlNsr/eoPDqLaVwb6yRgK3thAAAZMnHZD+52mlOoR9bRbbrTqFdLXwrGHbXs4VGVPYfCz6ayemcOcESn9DgfQacIMn6OoJstCzJuDoBW9sJAQDIkpQ/u7H+KvSDk+XEygnADzTNxrk/1mDD7or+64RLF/PmxEsprcJSkL3eJNnXp/GorH1hbW87IQAAWcIby6wnVzvxHgVpauCLI9kkPdPMcD6DV2uwgdPwTq6wIxScwGgAlZ/tU0wiBaWjQ0nGdgnYWiUEACBLXI+kxdRqQl+Wj2DLkEKjC+1hDqnRlssVdrjCm/P6Uxn0/KdGX6C8xHtVpDklUqv815sQAIAs4ax71pOrStcKfeHPjXXXNpAGI8w0VH+JXml+dQ28aW8pKovypFYsCmqG7iMZvDm0Ccc+EQCALBlK9pOrSnyWXXr+vc6cANcLbWgRY0niZSqrAPrCD33evHc2pb8vBEpfW5CMfRKwVSIEACBLQpT5jKFdhf7UlROA3+SnEdrAzFeTHb3pIIVd3eHP+4tQWewn1YRQUPM0jOT5MZ5OwF6JEACALOHNZNaTS6JnFD7VkRPgREX/zF012NCX+PTDzArbuMjPsYSz91A94g2iEmZPwFapEACALOFo3XpySSWtTrd14H558kvTEjNLGIzNw1R+xu8LrlcwiNIttgLlo6VIhmUKb60QAIAsaVIAcIrQp9A5AQ4T9tvi1kjj0VN79bBjLiof+s8a2QN1nt4gWbpp/jdNyhuBAABkCefqtp5cUnGNe+mGt1Ab8DhPwtjCPpn+RmPD4gJKnJTnuEKvGdoBda4GkYyFE7BVIwQAIEtiZQ/RF90AACAASURBVM8LpXWEfq0QqL99hP21uCTyeEBQKuJNr9OSjFMSsFcjBAAgS+o+px5aNwr9CpETgAslaZL+TEDppzSFoLp0D8ngOhYpVyHtTQgAQJY07YHFn7knFfrmu8looLCfFrsbjAcEpaIBJGPpBGzVCgEAyJImVmrbW+ibT04AXhqRJh9q8YLReECQtfgBOSbJOCEBe138AyA7+I3aenJp9ZLCP9ecABcr+mBmizwGEJSSziU5ryRgr1YIAECW/Ez2k8tFCwr9c80JsJKw/Rb7G48HBFmKc19ImDUBW12EAABkSVMDgDOF/rnkBOB9Edr8+o8YjwcEWYnP80vO/jN7JWCvixAAgCxpQiWu3sRVDEcT+qjNCfCssN0WvPbZxKUUCAqhg0nOfQnY6yIEACBLrCeWjzYS+qjNCfCxsN0WyyYwFhBkIf6COA3JGI+aGygjAADZwZ/trCeWj24X+umSE2AiYdvMQQmMBQRZiIteSdk4AXtdhQAAZAc/GK0nlo/47WMqoa/anACzC9tlrkxgLCDIQpuSnMsTsNdVCABAdnD1OOuJ5asDhb5qcwL0F7bLPJXAOEBQbHEp8TFIBmf/+yIBm12FAABkB09K64nlK2n1MUaTE2BRYZvc938TGAcIiq1zSE7Tiv/0FAIAkB0jkf3ECqHFhf5upWhzSWGb4yfgPwRZaDGSs18C9voIAQDIjpHJfmKF0LFCfzU5ARYWtjl9Av5DUGy9SvIvb8xtCdjsIwQAIDs42Y31xAqhQxQ+S8v1SvcA9E/AfwiKrWtIDn9pHJaAzT5CAACyY1Syn1ghtIvC51OFbc4lbG+5BPyHoNh6gOTMm4C9vkIAALKDa91bT6wQ2ljh89XCNmcVtrdGAv5DUGy9THK2ScBeXyEAANnBR3isJ1YIaQr3PCxscwZhe5sk4D8ExRYf6ZPy9wTs9RUCAJAdnMPeemKFkLQyIPOmsM1phO25VhuEoCaLc2rwJmIJORTKQgAAsqMf2U+sEJpe6C/vWv5e2OZkwjZ3T8B/CLLQ5CTj4wRs9RUCAJAdY5H9xAqh8YT+Tqhoc0Jhm6gDAHWq5qFqcllmRAAAsoPPxVtPLF/9RGVNAwlzK9odW9jmMQmMAQRZiKtsVpHLV0YEACA7xiH7ieWrTxX+rqhoV5rj/LQExgCCLMQbYKvg4Fy67JayEACA7BiX7CeWrzTHkbYUtskbnKRfFc5LYAwgyEK8/0VCDsWyEACA7OC1c+uJ5auHFP5K1+uHKdpEKWCoU3UUyRicgK2+QgAAsiOHQjY3Kvw9Q9jmh4o2b05gDCDIQv8gGTmclEEAALJjArKfWL46X+HvdcI2X1W0eX8CYwBBFrqBZKyagK2+QgAAskNzLC5VnaDw91Fhm08p2nwygTGAIAtxgh8JsyVgq68QAIDsmJjsJ5avDlT4+66wzfsVbb6cwBhAkIXeIBlcdOznBOz1EQIAkB2TkP3E8tX2Ql95V/+PwjZvFrbJSIMKCMpNms2ybydgr48QAIDsmJTsJ5av1q/B18uFbTJDExgDCLISVxSV8FACtvoIAQDIDs53bz2xfLWc0Nf5FG1KdzczPyQwBhBkpWlIxlUJ2OojBAAgO7iYh/XE8tW8Ql81O5FPErY5SgL+Q5ClFiAZpyRgq48QAIDsmILsJ5avphb6qinbe7iwzRzyKECQj1YhGfslYKuPEACA7JiS7CeWr8YU+jpI0ea+wjanSsB/CLLUFiRj8wRs9RECAJAdTX+A/aDw9SxFuzsK25w1gTGAIEvtQzJWSMBWHyEAANkxNdlPLB9pUvbeoGh3c2Gb8ycwBhBkqeNJxhwJ2OojBAAgO6Yh+4nlo+cVvj6haHdtYZvLJjAGEGSpC0hG0wuPIQAA2TEt2U8sHz2g8PV9RbsrCNtcPYExgCBL3Uoyhiv0bQL2ugoBAMiO6ch+YvnoWqGfIxb6SdFuf2G7myYwBhBkKf6yJuWNBOx1FQIAkB3Tk/3E8tG5Qj+1+Q5mELa7fQJjAEGWeofkPJiAva5CAACyY0ayn1g+Olbo5wLKdscTtrtvAmMAQZb6nsrP+xKuT8BeVyEAANkxE9lPLB9Jz+tr1up/KTSCsN0jEhgDCLLW2CTj3ARsdRUCAJAdM5P9xPLRVkI/t1O0OVTYJnNqAmMAQdbiL4kSjk/AVlchAADZMQvZTywfSY/rHapo801hm8x5CYwBBFlrUZLR5HTACABAdjQ9k91SQj/PUbT5pLBN5uoExgCCrLUmydgmAVtdhQAAZMdsZD+xfDSn0E/N5qO7hW0ytycwBlCaepfK64PXvTkN9d+ovA7fTcC20OJCWxLWScBWVyEAANkxO9lPLB9NIfTzYUWbVwvbZB6J7O9rhQ4qtHChfl02DF9o3K6x4NTEAwodU+i2QsMi29fJ4rHmmvebUVlkqy94x/xShf6dgM2hdGAbf7uzdAK2ugoBAMiOpufnHk3opyYByd+FbTIvRPKTbz6cc2BEhW3MyIWWoHIPxIuRbO00PUvlJtNWQCZlpEKXJGB/CJ0i9HmuBGx1FQIAkB1/IPuJ5apvFH5+rWj3OEW770Tw83Mq3+xDMF+hEwt9EsHunMVn3/nhvZhu+H/HqBQviKxTlwr9nSIBW12FAABkB6+hW08sV0kzkPVTtru/sF1maM0+ck6CPyrskTI6lW+tr9Zsf27idNK8pj+Vfsj7ZOME/PLVXUJfR0/AVlchAADZ0eRPcs8IfZxB2e72wnZ5LVdTX8BF1wttcYX3D2xI5dFH698zdXHdidmcRrk9vIz1QwL++ehZhb/fJGCvixAAgOyYm+wnlquku/UXVba7obDdMSL4uKXQFl/4IXQAlTc56981Nd1H5abLOtGUqk5RHyh8beopCAQAIDvmIfuJ5aqrhD6upWx3RWG7k0bwcR2hLaHg8tAPBbK96eIH1fp+wynmxkg+1SX+giGtB/BMAva6CAEAyI55yX5iueosoY+aNMCsBYXtxqijsI/QlpDwSYPDqP7ljVT1Y6G/kn5Xvw+X1eBHbEkLaN2XgK0uQgAAsoN3hVtPLFcdJfRxoLLdmYTt9o/g431CW+pgXSp3u1v/zjH1AJUnY2JzraO9KUk6b25IwFYXIQAA2cHHy6wnlqv2FPp4hrLdCYXtxkhqwqcA5hDaUwcrke4IZVPFSXx2onJTpAV3CGxMXdJ6ABcnYKuLEACA7FiA7CeWq7YQ+qjN1z+SsN3VIvmpyUxYB3wMsem71NvpnkLTBRstNz4g+3Hw1RpCX/+WgK0uQgAAsoPXu60nlqtWF/p4j6JNzSTfJEFf64KDrV/I/jcPqe+ofOuXbl6riyYfxe0uaWnuYxKw1UUIAEB2LET2E8tV0ixsml3H0uRCjHZzoY++pPqPolVxOtn/5qHENRXmCzs8TkxEZfVJ6/EIIWkCrQMSsNVFCABAdvBDxXpiuUqalOVtRZuahCZ7R/aX1+L3pTK/vwWcK+C9ChuboFsLjR14bDTwKYtFCh1OeaVkPlHo/04J2OoiBAAgO/hGZD2xXDWJ0EdNRbz7hW0yhxv5/VGhU6lcm59AYa8vYxV6JaAfFuLP/rOHHhgqgyO+HnknPG+sXY7KUxScyGl3Kj97X0llwp+vEhiHOnSRcKwGJGCrixAAgOzQZslLSZI34VGUbWpS756cwBiweNniX4WuKHRSoaOp/FLAOQR2o7JWO4szHK7bRpt1+7esnQsdUug0KvdR5HQaYFjXuPEXHw76busav97Ex9bu6NLjXeICPq9T+QbfaUcl+xKPoYQ1E7DVRQgAQHbwOrr1xKpzMmqz9Q0Wtktd/9Z6HCAoFfFeBgnLJWCrixAAgOxYnOwnloveEvo3m7Jd6Tomc1UC4wBBqUi6gbapR48RAIDsWJLsJ5aLnhb6p/3CMVDYLnN7AuMAQamI91dImDkBW12EAABkx1JkP7FcJK0EqE3Ws7OwXebhBMYBglKSpH5CjCJadQgBAMiOGOls65C0EuAAZbubCttlXkhgHCAoJUkyKsYoo12HEACA7GhqAPB3oX+7KttdTdgu81YC4wBBKYkTi0loYqVJBAAgO5Yl+4nlomOE/h2qbFeaXZAZmsA4QFBKWpVk/DcBW7VCAACyo6lHcvYT+neKsl1pKVjOH9/EtxgIqlObk4yPErBVKwQAIDuWJ/uJ5aKthf4NVrY7ubDdfgmMAQSlJs56KOHNBGzVCgEAyI4VyH5iuWhdoX9XKtsdXdju5AmMAQSlpsNIxn8SsFUrBAAgOzifvPXEctFyQv9uUbT5g7BNZtYExsBXPxd6mcqUtljOqF+cfphPjnyQgC11idNGS3g8AVu1QgAAsmNFsp9YLppX6N+/FG1+JGyTWTCyv1zRkKsP8pLNnFRmcOQTC5zv/0Yqk7Bo2uPAaIpu/vAXjSsi+5Sy7qGykA//znytLUNlLYWjqCzoo21vEJUFg1pwFc4mvgVX6WKScX8CtmqFAABkx0pkP7FcNK3Qv6cVbb4qbJOJuXeC3xyr9iZwXfl/CNt7k377MGoxPJUFb6x/W2vd3TUW7eCKf9JA4B99tMEJcT5LwN+QuqVi3FrcmoCtWiEAANmxMtlPLBdJ67m/rmhTml6YWSeirw8o7JJUKDy6zd83uTpkKO1ZMcYtOKGNJBlUu6OlRyTgb0g9Ihy7axKwVSsEACA7/kT2E0urH6k8hidBc9zoX8I2mT9H9PdlhV3jUPVywPZt/p7ffHMq++ui4yrGuDsbCdqbus3fNzURV1+SXqsXJWCrVggAQHasQvYTS6tPFf59o2hXWs+c0WYY9NUCCtuer2hr/4q/13w1yVFvFhq5YoxazChob+42fz9LAv6G1MfCcTs7AVu1QgAAsoMzd1lPLK2GCH0bUdnuNcJ2mYMj+3yjwrZnK9qqyqL4fmTfUtRWFWPUYjpBW0u2+ft5EvA1pKRf5yRLVakJAQDIDm21vBT0rNC3cZTtXihslzk+ss+/FFpDaNsnFW3t1OZvJ47sV6r6sGssqpCUm56hzd9vkYCvoTWWYNyOSsBOrRAAgOxYnewnllYPCX2bQtnumcJ2GYtPmLxjfMoKu0ataOP7QlO1+fsmfhGqS7wkVHUaYL2KNh6v+PszE/AztKau8Jk5KAE7tUIAALKD3yqtJ5ZWtwt90ybrOV7YLnO5ke8c/PR2hK/FSNQ+qc/eFX5db+RXqhpUMV7tAmjeTDl/m7/ldNJfJOBjaLXb89BizwTs1AoBAMiOtch+YmklXaufT9nuIcJ2GU2GwdC6gcr9DX1xYy9/w5uzqta1Z6YyO6D175uatm0zZuMX+ryXv+Ejpf3bDXbBbgn4VoeWrvCb2TkBO7VCAACyY22yn1haXSD0bRFlu1Vvx915MIEx6Guz1ZhU3mD5vD/v+Oejnu2+GlBXW5ZBTcrioGi9NmM3E5WftHm8+XTI/FS9EY6TAFXt1Wiq1q7wndkuATu1QgAAsiNmQptQOl3om/aMdbvz8T15LoFxGFxoBIXN7RiUgD8pi+tEbOA6uD3gYEyTorpp+otgDLZMwE6tEACA7OCqetYTS6uqY2wttGmOBwjbZd5OYBxYV5H8zHpv8Ca33LLR1SXeWyE9HtgXvGRwbwK+1KldBOOwWQJ2aoUAAGRH1S7mFHWQ0DftBsd1hO0yQxMYh5Y4VfCkCttbcJGbnN9E6xAfx+RMge32YPQGB1qbUN6VAFuqSjTFbJiAnVohAADZsT7ZTyytdqvJt5WE7fL6bmqb5Th5z4pC+zmrIG8k/CUBu5uqe6hMAlQFBwobF3oxAZtj6QjBuDRx6REBAMgOXte0nlhaST/Daj8zLiFst18CY9CXeCMfl64dqYfNnBNhh0KPJWBjLuKaC38tNHuPseZ9GXNRuSnwvQTsjK2TqJom5h9BAACyo4mf4jYU+ra1st15he1OnsAYVImXKB7v0ocJ2JO73uoa66eoLN9sbY+lOElWFU2sQooAAGSHpJpZalpV6NtOynZnEbY7WwJjAEGp6mKqZvkE7NQKAQDIDt6YZD2xtFpG6Js221i7nO3dWSiBMYCgVMUnU6pYKgE7tUIAALJjU7KfWFpJ1+oPVLY7jbDdPyYwBhCUqq6lahZNwE6tEACA7GjiedxFhL4dpmx3CmG7TcydAEGx9E+qZoEE7NQKAQDIjgFkP7G0WkDo27HKdqVn6f+cwBhAUKq6maqZNwE7tUIAALJjc7KfWFpJd+sfr2x3AmG7uRZxgaAQ4jLKVfRPwE6tEACA7NiC7CeWVnMJfdN+ARhX2O7ABMYAglLVnVQNlgAASAAu3GE9sbSSBgDHKNvtJ2z3rwmMAQSlKskSwMIJ2KkVAgCQHU2sylVVZ73FUcp2q0rmtjgngTGAoFQlOQWwWAJ2aoUAAGQHp9W1nlhaLSz07Uhluz3T5/bFFQmMAQSlqsupmiUSsFMrBAAgO7TpclPQkkLfDle2O7yw3VsTGAMISlUXUDVLJ2CnVggAQHZsQ/YTS6vlhb4dqmjzZ2GbzEMJjAEEpaozqZplE7BTKwQAIDu2JfuJpdXqQt/2V7T5g7BN5vkExgCCUpWkHPAKCdipFQIAkB3bkf3E0moLoW+a8/q/FBpO2O47CYwBBKWqXamalRKwUysEACA7tif7iaXV7kLftPsbpKcAhiYwBhCUqri+SBV/SsBOrRAAgOzYgewnllaHC33TVjqUJALijYI/JzAGEJSquFhWFeslYKdWCABAduxI9hNLqzOEvq2lbHcyQZtjJeA/BKWs6aiaJiYgQwAAsmMnsp9YWt0k9G0pZbvzCdqcIgH/IShVfVdoBKqmifU0EACA7NiF7CeWVv8R+ja9st21BG3OloD/EJSqpHPzkARs1QoBAMgO3rFrPbG0+oZkO/ZHpXJ3v7TdYwVt8kbB/yQwBlA4rUjlcdgvE7Cl6ZJkAWSamE4bAQDIjiZ+imNNLvTvI0Wb75Hs8yUvFfyQwBhA/uJgsvWbz1zo1QRsarJ2IRm3JWCrVggAQHbwkTrrieWilYX+/VvZ7vrCdg9KYAzq1jVUBjt8OuKUBOypQ8/3+F3HL3RvAnY1VdJCXW8lYKtWCABAduxB9hPLRQOF/p2sbPc5ktUEGLHQIwmMQx3it+KNe/jLb8marylN0fX0e0YudF4CtjVNX1E5L6qYKgFbXYQAAGTHnmQ/sVx0g9C/dR3aXk/Y9kyFvk5gLELqE+r7Le7cBOwLrbP68JX3mOT61aMuXdbHWPZEm58jFSEAANmxF9lPLBfx26hkI+CkDm2/QeUGQglNTKTUbkz/0MbXJuaMqNLRbfxljknAxqZo3YqxbHFxAra6CAEAyI69yX5iuUpybp9x2bV/kLBtDkKauKGppz4vNEeFr02s4FalfSp8ZgYmYGfq4i9hYwjGkpdXmppKGwEAyA6+AVpPLFcdLPRxX4e2+YY2pbB9PpHweQLj4SpO3rKkwM8ckyBtLfCbaXKgHEPnCsdxxQRsdRUCAJAd+5H9xHLVw0IfeRngR4f2pWuazIYJjIeLuK6B9OTDiJRfHYR1hL4zmvLSnaZ5hWN4fgK2ugoBAMiOJt/U+GE0rdDPfzq0z0mElhC2z1yWwJhotafCP+aTBGwOqWWV/h+RgM2p6UHh2PUrNCwBe12FAABkxwFkP7F8NEjo5wqO7T9NsuRAzHhUJhOyHhOpThH61Z3nE7A7pKRvrt05KQG7U9IqwnFrYgGg7kIAALLjQLKfWD56k2Tn9pl7HfvYQdg+w6VQNemHrcRJfqSBTXfuSsD2kJJ+QeoOb/w8OwHbU5B0GY55KAF7fYQAAGRHDhntVhT6uohj+5wjXrohkDk9gTFppweorGngwiUJ2B9S4ziOAwedFyVgv7WWE45X/wRs9RUCAJAdA8l+YvnqboW/LnsBWHeQLO8AM3qhlxMYl97EmQ7HFfrRGycm4ENIjeQxFvwFpYn7PkLpdsVYXZCAvb5CAACyYyDZT6wQWkjo7+zkXshngLAP6rLH5eRBnRpSaDKFD73hcqQyVf3kORYMn2u/KQFfYut7KosnSZiIyqOm1jb7CgEAyI5BZD+xQug6hc+u2d0+KzSJop9DDcejpz6kMnWxL1sk4EsoDQswHgwvp+S2N6JKxynG5/AE7A0hBAAgO1J6SPmIN95JvwLwJ/ohjv1cI+yD4XPz2mqEdeidQrMo7G7H6gn4E0qfBBoThrPg3ZOATzH0dqGxhOMydqEvErA5hBAAgOw4jOwnVijxLmPpOv1KHv1IiwUx01NZJc1qTIZ02RCKnNIBvx1wXJhRqKwuaO1X3VpNMSZNzjPSUwgAQHbk8nmupdUVvl/l2AcXzZlA0c9WRmPxIpVpikOygJEvdeiVwGPDcBBwbQK+1aWLFGPBX0VyKiGNAABkR26ZzV6icmOWBN4Q55rD/2JhHy2uizwO9xeaUGmjhNki+1Gnng08Ni146WdwAv6FljbwbXKa8d6EAABkx5FkP7FCa3+F/wM8+llb0Q8/jD+I5P/fSR4EaZkykg8x9O/AY9MdXoriYlVNSAollbRmBMP5FZpcIKs3IQAA2XEU2U+s0OJKftMoxuBGx374VIDmEzvvO6jzgcDH2nZT2OPCuDXaH1v3hh2aXtmE8jgCd73S79yWFlkIAEB2HE32E6sO/VMxBvwQd92pzMe/pKmImVNr8pe/LkizsvkwUk32W+jWwGPTF/NTmbLa2l9X8dzQ5I/g+dTkoj99CQEAyA7XM/FNkGa3/gCPfvZS9MNnxv8T2E/+gjGRwgZfvg1sv5WuDT0wbRi/0M01+VG3/qL0NYesf70JAQDIDk7oYT2x6tLHpNsI57oUwFnRNFXl5un6G1//+EG8M8mPPoYil5LAl4YemAr4S9FOVD5IrH2X6hbSXV8LUl77HroLAQDIjuPJfmLVqcsVY8GfLl03LvGRu9EVfe3j6dedFC65j5YhQhtT1wWhB0YIVyC8Q2ijpYYWmkLhFwc4jyRgd11CAACy469kP7Hq1jqK8djMo58zFf3wzfI2hz4+6LIx9lt/d57rxa4m6tzQA6OE92w8Tfbj0Je2UPqzYwI21ykEACA7TiD7iVW3OA/++Ioxca0YyFpD0c/Ehd4XtstvY5y2WZqCtU64Brz1bxpC54QeGAe4oiCfFEjtzfkmpR/8peDLBOyuUwgAQHbkVt61L2kS90xK5RE/l354fVyzY3ppKo/v9dUe28HnyV3r1tfBvWT/e4bQ3wKPiy+8j+RYKhMUWY4L7/rXZpDshBTICABAdpxE9hMrljRpgjfy6IfXdzVHA/fq8fe8uY+LDnHiFc2+gli4LF2kqFNDD0xAOIjkpSteouMaFzFzCQxQ2rppRNsshQAAZMfJZD+xYok/t4+nGJtrPPraT9EPw/UCeEc/rwv3U/5tbG4g+98yhE4KPTA1wjUGFqeyeBdnMGz31chHNyjt8smh0TQhAADZcQrZT6yYulAxNrxG73rk7cdCiyj6ahKuRZRS0/GhByYivKdll0IvULjx4BMwmuUr3oh6S8D+UxcCAJAddWWmS1lrKsZnPY9+3qQydW5uXEL2v2EIHR16YIxYl8JswNtU2a9VlUsrIQAA2XE62U+s2OKqZpoEQVd49HW1op+mMJjsf8MQOjz0wBiyMfmNhTbX/zSFvvLss2lCAACy4wyyn1gW0jyYOVjwqWu+vaKvJnAW2f9+IXRI6IExZE5yHwc+aTKpoi/e4Hq3R39NFQIAkB18FMp6YllpY8U4re3RD+/qn0vRV+rksm/koNADY8ieFGceMDt79NVkIQAA2cHZ66wnlpW0m5581r55s9Zoir5SJpf00dqTGqkyFbnvxL9O2deMVJbbtv7tLIQAAGRHLp9zXcUV2qRpdXnn9QcefZ0s7Cd1jiD73y2ENFUcU4UzCd5Dbv5/WmgSZV8POvaVgxAAgOw4m+wnlrW2UozX6h79cJW05RV9pcpAsv/NQmj30ANjgE8Av6Gyr709+spBCABAdvyd7CeWtYYVml4xZj71zt8jXV2CFOFP59a/WQg1PQDgPQyuvmt3/c9K5V4W69/MUggAQHYgACjFu5ql6Xv5bP97Hn1pShSnyB5k/3uFUJMDgA2o/KLk4jcnt5pY0deIhR537CsnIQAA2cElUa0nViraWTFuf/LsS7vzOiV2I/vfKoSaGgDMQ34b8TZX9newR185CQEAyI7BZD+xUhF/4pxNMXY+wRNvwNIkI0qJXcn+twqhJgYAvHz0Bvn5vYqiv7kLfe/ZXy5CAACy4zyyn1gpaTvF2PnkBmANVvSVErmcA29iAPBP8vd7W0V/+wboLxchAADZcT7ZT6yUpHk78v0Uzmu4yyr6SwUEADZwDYsQfh+m6NOnLHZuQgAAsoOr41lPrJQ0t2LsQiTEeaXQqIo+U2BHsv+dQqhJAcDohYZQGL8HK/pdPFCfOQgBAMgOBAC/lWZd/rJAfTYtJS3XNrD+nUKoSQHAMRTO7zsV/U4dsN+mCwEAyI6LyX5ipSLeBCjNCsiEyorGN5aJFP1aw/skrH+rEGpKADABlbkqQvn9oqLvkQr9FLDvJgsBAMiOXGq7h9CryrF7K2Dfxyr7toQ3kVn/ViHUlADgSArr9zBl/+8G7r+pQgAAsuNSsp9Yqegexbhx0qAfAvbNXx+mUPRvyTZk/1uFUBMCgLHJvdBPO42jsOGhGvpvohAAgOwItY6dgy5SjNukNfR/mqJ/S7h2gvVvFUJNCAD2p3p8n0Nhw+U12dA0IQAA2YHJ/auOUozbAjX0zzeYfgobrNiS7H+rEEo9AOD9KK9RPb6vqLDjuJpsaJoQAIDsuILsJ1Yq2lExbqHOZPfUlgobrPgz2f9WIZR6AFDnETzNdZZL3gdfIQAA2XEl2U+sVLSGYtx2qsmGhxU2WLEF2f9WIbRX6IEJzDlUn+8DFXbUFew2TQgAQHZcRfYTKxX1V4xbyHPZPTW7wg4LctkDsH/oa3TBigAAHSBJREFUgQnIaIWGUn2+n6OwpX+NdjRJCABAdlxN9hMrFU2iGLc6j0/up7DDglzyABwcemACshrV6/stClsmqtmWpggBAMiOa8l+YqUgrng2vGLcHqjRFk2mNgtyWRM+NPTABOR0qtf35xS28GbEb2q2pwlCAACy4zqyn1gp6A3luA2p0RbOCTC60p6Y8OY5698rhI4MPTABqWv3f0tfKO15pWZ7miAEACA7rif7iZWC7leMGX8pqLtG+goKe2KzN9n/XiF0XOiBCcQMFMd/zZHTuyLZlLIQAIDsCFFfPAddphiziSPYM1BhT2x4j4L17xVCJ4UemEDEKrY0s8KmwZFsSlkIAEB23ED2EysFaXLxx9gVfaXCntjw5jnr3yuEUs28GKtC57IKmw6NZFPKQgAAsuNGsp9YKWgXxZitEcEeTcW22BxC9r9XCJ0ZemAC8QLF8X+AwqZcjn76CAEAyI6byX5ipaC1FWNWVxKg7uISrKMpbIpJ6Op0VvpH6IEJAG/+/JHi+H+Awq4VI9mUshAAgOxAAFBqIcWYHRXJprkVNsWEl0usf68QuiD0wARgQYrn/98Uds0W0a5UhQAAZAcnBLGeWClIU4r3okg2raOwKSYnkP3vFUKXhB6YAGxL8fy/QWFXv4h2pSoEACA7biX7iWUt/uQ6gmLM7o1kV6rFak4h+98shK4KPTABOJ7i+f+k0rbPI9qWohAAgOy4newnlrXeVo7Z65HsOllpVyzOJfvfLIRuDj0wAYhZnfNjpW3PRLQtRSEAANlxB9lPLGs9pBgvTov6bSS7rlPYFZNcKkhqkj/F4hGK5/8vhUZV2NbpJ4YQAIDs4Lzz1hPLWlcoxitmYZSnFHbFJJdloydCD0wA3qe4YzC9wrYzItuWmhAAgOxAik+iExXjNU9Euz5X2BWTf5H9bxZCL4ceGE9GLvQzxR2DJRX25ZIB0lUIAEB23EP2E8tams12dZdp7amxFbbF4lmy/81C6N3QA+OJRdndjRX2bWJgX0pCAACy416yn1jWWk8xXjtEtm1OhW2xGEL2v1kIDQ09MJ5MQ/HHYB+FfUsY2JeSEACA7LiX7CeWtRZVjNcRHv0MJv0u79UUtsXiE7L/zULox9AD48msFH8MTlHYN62BfSkJAQDIjvvIfmJZa2rFeF3g0Q9neeNKgt8o/mZnhW2x+I7sf7NQ0uyCr5v5KL7/1yjss9ijkJIQAIDs4KNQ1hPLUnxDG0kxXnc79sMP/ZG72rhY8XcnKGyLAftg/ZuF1ARhh8eLxSi+/48qbXzPwMZUhAAAZEcuO7pd9b5yvF5x7Kf7mfMtFH+neUOLgcVGtTo1Xdjh8WIFSv/6j5mnIDUhAADZ8SDZTyxLad+ANJ/vu6v7m/w0ir/Tpmutm7nI/jcLKU0RqLqJfcKEpf0CFjNTYWpCAACyg7PgWU8sS12tGKsJPPrZqls7nE3wC+HffaawLwZ/IvvfLKTWCDs8XqxPNmMwtcLGvxrZmIIQAIDseJjsJ5alNLugfd5+F+/RlubLy1gKG+vmL2T/m4XUtmGHxwsOEi3GYBGFjbsa2ZiCEACA7OjkNT3W3oqx8nn7nbBHW+co/nZuhY11cwzZ/2YhldImywPIZgw0eTDWNrIxBSEAANnxb7KfWJbaSDFW2zj28WkvbWlu9hob64Yr6Fn/ZiF1Z9jh8YKrP1qMgSYT5vxGNqYgBAAgO3gTnPXEstQSirE6zLGPB3ppa1PF3x+hsLFuOH2u9W8WUhycDRd0hNzhEx8WY6D5CjKJkY0pCAEAyI7HyH5iWUpzDOw8xz7O6aWtpRR/n0pZ4Fxv/tMEHCMfXiAb/zXVMDlYyikRlEYIAEB2PE72E8tK2nrorqWTe/vEOoPi719R2FgnS5H9b1aHUjgKOGKh78nG/weVtr5mZKe1EACA7OBz5tYTy0ofKcfqJcd+Vu6lrbEVf/9TodGUttbBOmT/m9WhZUIOkiMzkp3/byltvcfQVkshAADZ8RTZTywrPaEcq2GO/fS1zKB545tHaWsdcOlY69+sDqUwtquQnf9cFGkEha3nG9pqKQQAIDueJvuJZaV/KsZpXMc+OHPg8H20qcmrvonC1rrgpDnWv1lo8TLQ+CEHyZE9yHYcJlPYerixrVZCAACy4xmyn1hWOl0xTn9w7OOFNm1qxv5Iha11YVGtrm69FnSE3Pk72Y7DAgpbXY/DNl0IAEB2PEv2E8tK+yvGaSXHPm5q0+YDinZuUNhaF2NQuR/B+ncLKU0QWCfPk+04rKWw1XUuNF0IAEB2PEf2E8tKmynGyTVN62lt2rxN0c7HlMZ59dyqR2rS4NYFLy9xUR7LcdhZYe8cxrZaCQEAyA7rNw9LaXZ/H+LYx55t2tQmfplBYW9dsD/Wv1soPRJ4bFzhUyLWY3GMwl7NCZachAAAZIdV8pEUNJNinM517GPtNm1epGwrhY2AvGHOtSRyaloh8Ni4wpkercfiYqXNQxOwObYQAIDs+A/ZTywrja4Yp9sd+5ivTZtnKdtqt5wQk6PJ/rfz1WXBR8Wde8l+PO5T2tyJS4cIAEB2uCa3abo+U46Ta6A0Xps2T1S29bjS5rrg8sScPMb6N3TVEGr/u8RkpEJfk/2YvK60+6YEbI4tBAAgO14m+4lloWeU4/SVQx9fVrSpPU/9A+m+WtQJb56zSl3ro88LzVXDeLjC42g9JizO76/ZZHpmAjbHFgIAkB2cZ956Ylmo3fG8nrhuenq6ot39HdrUVC+sG97fwFnkrH9Lqfgkxfy1jIQ7nN/Belxamkhht6acdS5CAACy41Wyn1gWOksxRrM79lFVxW8Xhzb3Vdgdg+WoXE6x/j2rxGWvp6lnCLxIKQ+HJiXyZgnYG1sIAEB2dGplr4MUY/RHxz5OqmjXJbfAPQq7Y8Flgi+gNJMEfUhloKXJdR+Lqcl+fLprVYXtSyVgb2whAADZwZt/rCeWhTZXjNFfHPvYpaJdl7co3gcwlsL2mExbaCCV5WV5rb1lM9c84KRHhxVajcq0yvNSefb8F9KPwcFUjsE4VD6I+BjdPYXe7+qXc1tcUmgjSqOKYl/sQPbzoLu2U9g+fQL2xhYCAJAdb5D9xLLQsooxGujYx+oV7W7q2K4mbWvq8DKJxvdUTkKE4BaynwfddYTC9lHIPnthbCEAANkxhOwnloU0SYBcC7XMWdHuJo7t/l1he+rwW7rG98NszAwO11X4luznQXedr/Th/QRsjikEACA7mnye21X82VnzafhWx36qPtVv7Njuu5RGXYAQzEo63ze2MTM4rr99nbpL6cMjCdgcUwgAQHa8TfYTK7Y+Vo6RS72ETwXtat9+uyuls+w+cGphjd+r2ZgZHE0hqFh6SenDFQnYHFMIAEB2vEP2Eyu2nlCOkUve86cE7foEAPspfUiV4Um3EVCzdyNVJqc0T0wMU/pxfAI2xxQCAJAdvEPbemLF1rWK8enn2Mc/BW1v6OHD8wofUodPNkj9XsjIxpBwLgfrOdCXxlb44ZLHoslCAACyoxMDgFMV4zOLYx9nCtrewNOP/go/UkZTXbBqY2UTSLkA12wKP9ZMwN6YQgAAsqPTdvKy9laMz7KOfRwoaHt9Tz9SqQ7oC396lvq8oJGNoViA7K//dlpe4cu8CdgbUwgAQHZ8QPYTK7Y2VIyPa8rTLQRt+wYAvNFwFIUvqaKpJ/AnIxtDcQ7ZX//tNEDhywQJ2BtTCABAdnCqVOuJFVuLKsZnP8c+JG9S6wXwZR2FLynCAYzG3wE2ZgaBUyandva/p/ZX+pRCKeNYQgAAsuMjsp9YsTWVYnxOc+xjVkHb6wbw5QaFLykyI+n8Ta0YkgbOtGd97VdJu6z0YgI2xxICAJAdn5D9xIopPn41omJ8tKlqW5Lk6/fdBNjyZ0aFP6mxEun8vd7GTG/GpN/WR0hVmhMyTIr5DOoSAgCQHU0o5RpSbyvH53GHPoYK2948kE+SEwepwql9Nb7yQ3R4E0v92I3sr32JHlX65Zomu4lCAACyo9MCgAeV4+NySuIFYdvbBPKJ15UnVfqVCveT3t+5TSx1h784vUn2175E7yp9OzgBm2MJAQDIji/IfmLF1KWKsRmJ3Cqe3SZsP2Qilb8p/EoFDlpcMuIdY2GsB1xm1/q6l4p/jxEUvm2RgM2xhAAAZEenBQDHKcZmKsc+zhW2v1dAvzibXtP2AuxObr7yV6vRDex1gdf+m3bUdjKFf8skYG8sIQAA2eGS577J2lkxNgs79iEtWXtQYN9uUvhmDX9deZPcfd0qusVuaPc4pKD5Ff7NkIC9sYQAAGTHl2Q/sWJqTcXYrOPYxzbC9g+vwb/1Ff5ZsiX5+fkmlW/XKTNzoe/I/prXanWFj5zHQVPMqclCAACy4yuyn1gxpcmf77pGL81Wd1wN/nFeB80nXAvGpTD5J06IbbgCPqlwN9lf7y7aXulr05Y4XKXdIAlA8mxCnbUMMJFibI517EO6S/2Umny8h3QbuWLDeyRC+Mkb1jSfq2MScn9HbB2u9PXfCdhct+4tNIVyXABoBFNTeYFbT7K6xcflhlOMyyWO/UwgbP/sGn1NtVDQAArrJ+d1SO2LB+8d0ZQ4Tk2Dlf5emYDNdYmDTD7qmHJADYA3/MmS31qauGYp1UvKMbnPoQ9NkHF+zf4OVPpbN0uSrvSvVE8W6hfRj3bwpriPyf5a99HtSp//moDNdeitQospxwKARjNXoefIfvLVoVuVY/GaQx+vKdq/LILPJ1MamfP4rbjO/Sa83j5ONG96Z3ZqTsKfdnpe6feuCdgcWlcXGk85DgBkwahURvUuSXBS1lmKMeC3eJfKbfcq+nCtM6DVHWT7mZxPJtTx5t9TnIFx2kg+9WQ5ymcvzRdK39dKwOZQ4ut0W6X/AGQJJ/ngNVbrSRlK+yl8d611frGij5i7xD+lsvZAzK8BY1C5FyHmMTE+XbByDOe64EBxR2r2mn9vGkMxBv0TsDeE+MvHHAq/Acge/qzquhkuNW2o8Hsuxz40aWqfNBgDLvaynMJGF/ihyDkUXjfwryW+ZjUnPlzgh8W/DH2sU5qskhMlYK+vuKDWaAqfAego+OHZhHKm7bSwwt+VHfvQZBq0fEBylcNNSfemVwUnhdmY3Coo1iFOGTyo0IQBfWQmL3Q85ffW311LKsaDA74YSzx1iO9payt8BaBjmbLQnWQ/aV2lWQffyrGPtRR9pFCJkbOb8dvyZuRWUXDsQqsVOqfQJwn405v44XQGlTu6XY9zDdf197xxM+cHf0sbKcfn5QRs1oq/3kyl9BOAjoZvhFzb3GWDnKXYXs369yDHfhYUts/j+GMC49JTnO3shkInFdqDyn0D63aJvxhwlrijqHwQ8qa7pm0U5SDlvEJbF1q80Ph9/D4TF5qXykCQfW360T6t9upjXPrijgRslorP9h9KZZlmAIADvP75NNlPZqleVvr3d8d+Jhe23894PKBfxfUw+FPwO4WGUPOC2zp0Iun4RwI2S8QB7lJK3wAAvcAV3QaRW0332LpN6dutDn1oaqlPaTweENROV5COQQnYXKXrqe8vPgAAR3hznUvSnJjS5ABgXJIhvaNo/w8GYwBBUj1IOv6cgM19ibObcmEvTRpwAICCsah8yFpP9r60v9KfLxz6eFjR/mIGYwBBUg0hHcslYHNvepHkxbkAAJ7wkRpOOmM98XtKs6t5dMc+rlL0sYrxeEBQO31PujfmmRKwuacuoLDHXAEAAvi4Ha+5W98AumtRhf0zOvZxsqKPjYzHA4KqpMmfwOnDY2Z8bCdOyby+wnYAQGD47YGPWg0j+xsCS5MDYGnHPjRHp3YwHg8IqpL20/lHCdj870LTK+0GANTErIWeINubAm8C0uQA2NixH80yw4GG4wFBEmlrKjxqaCufwDmEcLYfgOTg44JHkt1xwVeU9u7t2M+Sij5OjzwGqejDQvcVOp/KGzbvHv9joWULzVdozkLTFZqm678zdv1/1oqFBhQ6mMoNpw8QzuzXKU6CpOEqIzvfpHJTLQAgYfi4ID+MY98gtDkATnHsR/Pp8ZrIY2ApPlLJSx51lOodmcrr6m/U3Hz0qWqg4ndgTjCw8XIqC5YBABoA77A/leJuGDpNaeMVDn2wP5pqYo9E9D+E+Ob+hsPfcbrgWJ9leZ/HfxxshHrX2brh/1+K8Fi2cQ2LLZT2AQASgT/5vkVxbha7Km27z6GPT5R9xPI9lDj/P5d91Za/5dSrMddlByntg/rWTbqh/98R4Bh2PUblsUMAQIPhSnLnUv03jFWUdr3k0MfTivb5hMT3EfwOqVaOAy75e6Hybw9TjI0PnF75bYVd/BY5qNBKVG4UtR7j1PSUavSJ5q/ZHi48dQyVyz4AgExYtdAHVN+NYxalPS5ZAG9UtD9Bjb7Wpe4BDgcwB5BuGYfLBY+tGCMNvMmUPwdryhHzl4zpurVxt+JvO0Ufy4b//5i4RlveozLbIAAgQ/ih6LL2XiU+eTCKwg7+ty77E85Q9NHEOgCcz6FnZrh1Cn2taIMr7h1O4c5pj1toZ9Ivp/AJgp5vkRcp2+gE8TzQzB2+Puo4lcFFfCZQ2AEAaCgbFvqMwt083lD271qlb29FHysE9C+mekum1J/KtzNtW7zMwg9izrkwG1WnbOV9BFNTmaRpPypPdvyg7JP//fZ9tB9jKaqJmqaP8eqLkKd8+FQH/14o4gNABzEJhfsacLuy7/6O/ayn6GNAIN9ia8k+/Jmi0JMB2ucvBHxk8PEeGlLoR8+2eXlgqT7sZy5JYHxT1CJtxqw37gzUL19Psyv7BgBkxGpU7iL3uZFoPs0zf3LsZ0FFH/t6+mSlXdr4xG/wdSzhhBDvX6jKQfB4AnamqHUrxq0nvl9SONDjZaKRlP0CADKEywzzQ5x3ALvcUHZX9uda13xiRR8nO/ZhrX9W+MWfanm8fd/WQ2owVednmJTcr6/cpT1CO8ijL14W0gTSAIAOgVN9cm1v7U1lNWU/+zn0wWuVmnVKq5SpvuINXpIKcQtRmQDI0lZeTthMYCtziLGtKeto4Ri2+ItDH7zZkLNvjq7sCwDQQfCO5ENJt/lrNmUfJyrabulFZR9NywLYXdIz/aN0/VuLXP1XUrmPRAIHNJ8b2NgUDRaOY4vlle3zCY5llX0AADqYOUiWkY4/RWuOMTHnCdrtqVuUffjua7AUf+3ofn6+Cj5VwQ+RGIWg+JrQFoU5P4JdTZb22p5Z0TaPfV25IQAAGcOf3PnIYLvMby84tOtSpOdMRft8nM2qKmIocYa4qmN7PeGggesJDA1sC6/dX0dub5GbBLYlRz2pHFP+jF+VR+OjQmsq2wUAgN/BN5xB1HtCmssc2rurl3aqtK+i/akc2k9R/Jnd5Xw2/16cQIh/G5eMiywOoLgUMG9Qm9LBBmZRQvVAid53GNuP27THaaQl+0gAAEAMPwgupd++fezn0M5jpL9JbqhofxGH9lMVn53XLrF0Z/hCcxXajsqTETcXeqLQ61Q+RPi//BXnXiqXEfanMh1sP48+Gf4NsO4vEy+jDa8c396OVL5K5f4AAACojQWofDvlt8SFHP7+ZdLfJBdWtL+eQ/sp6/5C4yv8t2YD0qUvhvRv7N2X0bjg0oGkK5UNAABejEf6NxfGpSjRpIr2d3doP3XxZ+K1FWNgAZ8KGEz2Y9VE/UE51idR+YWFv+po8mMAAIAp2nVhPuamWQt3OWbYFPFmvBkUYxEDfvPkpYOvyH58miptFT5eohlV+TcAAGDKCKS/Ob6s7ONKhz6aJF564b0YcyrHJTRcPY4LNLU7JQLJtIly7AEAoHHwm7z25nibso+HHfpoongz5n2FtqV4ewQ4gFuCylwOFgmIctUeit8AAAAaizaP/anK9pucBMhVnLnx1kL7ULkxc0TlmLWDKxHyxr6LKWwZaehXHSv+NQAAoMFo3xx3VLSdQxKgEOKd4Q8V+geVQcEaVJ7Ln5XKTWMjU5khbtwu8SbLeQutUmirQkdSmaHuowR86QRdQAAA0AHww0lzc9ScbZ5S2TYEpSDOzwAAANmj/Yw8laLthZVtQ1AK4hoLAACQPc+Q/MbICWU0RwDXVbQNQanoWQIAgA7gCpLfGJ9Str29om0ISkVDCAAAOgDe1Ce9MWqLDR2saBuCUhEviwEAQPZMRPKTAIco2z5V2C4EpSLO58CpfQEAoCM4gGQ3x42U7V4mbBeCUhAfs1yZAACgg+CNfYOo+gY5r7LduwRtQlAKur3QZAQAAB3KNtR3cSBO6DOGsr0n+2gLglIRL3/tTLrTLQAAkCWcne4J+v2N8mmHtl7upR0ISkXPkb70LwAAZA2n8N2Nfpsl8GyHdt4ju5s7BPUl3uh3CqGELwAA9AnnqT+x0NBC6zv8Pf+d9c0egrqLN/r9iQAAAIjgYjXDO/wdCgFBKYlz/HNQCwAAoGasb/gQxOKNflyF0SWIBQAA4MDPZH/zhzpbLxSamwAAAETlR7J/AECdKd7od1ah0QkAAEB0uHqg9YMA6jxhox8AABjzBtk/DKDOEjL6AQBAAvyL7B8IUGcIG/0AACAhziP7BwOUv54nZPQDAICkGED2DwcoX2GjHwAAJMr4hT4j+wcFlJ+w0Q8AABJnA8JxQCisbiFk9AMAgEawOJVvbNYPDqjZ+o6w0Q8AABrHdFSWX7V+iEDN1H8IGf0AAKCx9Ct0Pdk/TKDmiDf6nVZoNAIAANBohiu0S6EfyP7hAqWtjwutSgAAALKC9wW8R/YPGShN3UHI6AcAANkyYaFbyf5hA6UjbPQDAIAOgZcE+Ib/E9k/fCBbYaMfAAB0IEsX+oDsH0KQjS4gZPQDAICOZfJCD5D9wwiKJ2z0AwAA8D9GLHR0oZ/J/uEE1SvO6DcJAQAAAN1YhnBKIFdhox8AAIC28CmBm8j+gQWFEzb6AQAAENFKHPQ92T+8ID9hox8AAAA1/Qu9SvYPMUgvbPQDAADgxViFLib7BxokFzL6AQAACMZmhYaR/cMN6lvY6AcAAKAWZin0NNk/6KDfCxv9AAAA1AqXiD2D7B94UCku3Xs6oXQvAACASKxR6DOyfwB2snij32pVPxQAAAAQmikL3U/2D8JO1O2EjX4AAAAM4TTCgwiVBWPpW8JGPwAAAAnBlQXfJfsHZM56vtBc0h8EAAAAiMUEhW4k+wdlbuKNficXGkX+UwAAAABxQRrhsPqw0MqqXwAAAAAwZL5Cr5D9A7TJuobKryoAAABAo+hX6EKyf5A2Td9Q+RUFAAAAaDScRvi/ZP9gbYIeKzST2zADAAAA6TFzoafI/gGbqvgY5RGFRnIdYAAAACBV+OE2qNDPZP/ATUlvFVrSfVgBAACAZrBcoffI/sGbgq4sNJ7fcAIAAADNYcJC15P9A9hKXxba2nsUAQAAgIbCGwSHkf0DOaYeKTRDiMEDAAAAmsys1BkbBH8sdDRhox8AAADwf3CaW3445rpBcEihxYKNFgAAAJAZOW4QvIDKpEgAAAAAaANvEPwn2T+4fTW00EaBxwYAAADIHt4g+DXZP8hddHehKcIPCQAAANAZNG2DIG/0G1RohBrGAgAAAOgoRqVmbBB8sdC8NY0BAAAA0LEsX+h9sn/Q9ybe6DdGfa4DAAAAnQ1vELyB7B/4LX1caLVaPQYAAADA/xiOyjS61hsE7yg0Wc2+AgAAAKAHfyj0HMV/8H9baGcqAxEAAAAAGBB7g+CzheaK4hkAAAAAKql7gyAHGCcXGjmWQwAAAACQMXGhmyn8w/+1QotE9AMAAAAADnAGwf9SmIc/H+8bM675AAAAAHBl2kL3k/uD/6NCq0e3GgAAAADecDrefQp9T7qHPy8jTGpgLwAAAAACwscFn6bqB/9XVOYXAAAAAEAmjFboxEK/UO8P/zupXDYAAAAAQIYsW+ht+vXBP5TKt34k9QEAAAAyZ5xCFxa6jpDKF4CO5P8D1f8MxVJW3WYAAAAASUVORK5CYII=;" parent="1" vertex="1">
                    <mxGeometry x="890" y="203.25" width="85.5" height="85.5" as="geometry"/>
                </mxCell>
                <mxCell id="29" value="&lt;b&gt;Test docker image&lt;/b&gt;" style="text;html=1;align=center;verticalAlign=middle;resizable=0;points=[];autosize=1;strokeColor=none;fillColor=none;fontSize=14;fontFamily=Times New Roman;" parent="1" vertex="1">
                    <mxGeometry x="875" y="175.5" width="130" height="30" as="geometry"/>
                </mxCell>
                <mxCell id="30" value="" style="shape=image;verticalLabelPosition=bottom;labelBackgroundColor=default;verticalAlign=top;aspect=fixed;imageAspect=0;image=data:image/png,iVBORw0KGgoAAAANSUhEUgAAAJ0AAACUCAMAAAC+99ssAAAAeFBMVEX///8pMEAAAB/b3N3BwcQACCbz8/QvNUQADCgmLT4gKDojKzwaIzbh4uMVHzP7+/sAACKjpakAESoNGS9YXGbMzc9kaHF0d3+srbFARlOChIs6QE4AABq5ur5MUFx8foWXmZ6MjpQgJjJhYmUAABQAAAAAAAt8fX7aTBuyAAAH40lEQVR4nO1c25aCOgwVwSJ3pFxlRDzX///DA6OO0OxCkbrOPLBfxWbTpmlSkux2CFGQlbcireoqLdpLFkTwKXVEJVs5wgtBm9dxEvqe4zieHybHKj8FawaM8j80sWNWE4euYwzhuGGcZm8LyFzf1sOuTPeugeDH+eW9IdtuEbSwyxqOufVweW4uHzLIuWPoYBeduC/l1iMMF09fVvNeNdazY/1bTsPhxbLtewq/12I9u6DiM9x6JOkCOayIH2+1ll1gyzVuCL9WFmTa4XPOV7ILPDVyHb1KUVLLvR+NWMeONarkOnqpiu6xa/LS4pXsUhWdeyK5zg9oGsMR17E7LSFnGHzWsJRjRVnFLltGznCS6WOXFV/CH9awa6aNMEVYTA0XVKHw/Bp25cKp6+lZ8uFOsSc+voIdS9X36xO+9MyIzgk9cVawu8SLyRnGV4YHe1lgTewq2dR5HWQnr481r3ThYO+zC/DUOdxo0jStHDQX3c8G2LasAKt6Z2cGApga3xaKD3n77Qyz7IbdqrAkI5mNdHs58X6EmNf57TJ/5kQ5WgtevKYmSBF//yqOLVlVCTw39O3zXLgS2GAx+Hn0TAHoeYKvwq6HOe+QwOH8Nr3A2YH+S1T5CNmc/ei9gwbr5yy/SrL57zgl4C/iCwX0IeMwPGwvx+U28w5vTxX4hTN95+REnrrRp3j7+rkIF68qHkgE3RSOTXU1o9Jfy5/J96oSvuhsPNEQuW5ONZU15Ox0m8dvlrvUiRDhS3XPps+ewWMpPdnrO+/rfiW33hrKdi54E8QOKcA3uT/fOaVFhLcPzV2wUunucCVrW1G9A95RRPXOe+gdO/+1YsM+wNGM9JNCl6yme9akJ4qfP38s7bXbwjD+xuyudOQjDWpAWBS+XjeogbVehgQHUkCuZ4sPMeDnHQc2np1nr2Bm4GJ/0QJ7jhwWZ6D5X6Prssd1ztvwGmhUTKLuHYSbsBM44R1jPBwNxBbBqeHdIKO2osNX+dq3rEUmjcQ977hQw/GwTTlj17fJ7tIjC/tGIT0cy4nVDe+Qb+4Ex6DIwTN6z8Y+n8rT1aDR6TccsBJmI9277anHrQhltvsgiZBl280LecJlrtGPDzBeXUnY49gPNYiC2wFPsIxdeZS98AT2ssFgcDGMGE18LyJjByOLGbjSK8YMhdujeJY56AVk7KDBmMHU5XtBVWscbQcGmA4pu0gSI8vhVROhaFT+I24k4S4AhdBSdjtr6TF5nP6sQsJu8abCp9MhZwcD1glwmbP4BMvHBlxkB+RNsGP1klPSz+evGEp/OKLIzqI2doLdLvOxzUVwPZXPoVk9mB+RnUljkSl2OwuoAoZnT0bvL+QvemvZdTZZjZ6bKJLrhtw/F2Q1u91F6WuPrzpzPX5Wdz07bOUFcOyGycCKgy52uyCd8b89Xiy9Yb37zDrYdWPZU8FpUk9dF0lg9T6zHna7oOCSzdv5U+e3rqZZnjia2HX8rjD8S6r3uPXoVlcXuz4dBVzplWsSUrLQ1cZuZ1F3dL8qW2bH/v0suzdyPYaIxifzL2MnYGO3sdvYbew2dhu7jd3GbmO3sdvYbew2dhu7jd3GbmP3/7Bbd0MmIvhNt4tEQkmvV3mrIuEDN7MC2LmCEurrbAat/lttwo2HkjwIf5hHDHAytH8REFBOpkxxW55k+YmvKWOwgk9/y3R4Kpm+D3yJEmDW85mEIf4Q94GveAIypTw91wMZEapfQL3ju/Syo9oXaudI1PsDX49Fcobq53PHFyzzoi/v7juWOVhQQeCNE8qiRVkLoULWgogIlkFIJ2BUgKA744Pitizvd1gStjhb5rDUrpg4jU6OVzqe5kwjgKhSV+s7nOQpQXOWFsDlDQmPM01vhhsCkxaFyfGso9CaHQhhvVNG8LDJGjMrJZCVDjvfEiQq6fD+rxqzUiUwJR5jbFw7CWd7jyUcepM8m9GL05xBRq8MeNeFlfWQkOGc4b6SQls2tBRRgd4/bl/7Kiq/wBNeyrRlksvBUJqnMPXQ5Himriz8CZhgYki1ByhrM2JLTwXDJIDFcjwy8TZdQ37SUv0xDVBPx+mWutB38K86KmdmkJP3d2yqFUFNC4zSFVVHlSI76gF4DZBQ0GmqVldszYNOipeCx4DdtddWuymAKoWLlAKdCr987oDeLayynAP1AVCJEQOrU+moUJ0BOMgcGnQCL7NTAC3VvZNoga2kYRM4LDqLqqcyegoX4KKRJiEMeJndLGmqKp8AuIbtDK1g8ZAf0zl4uiry5WA1cIOEHibIzej1X183AxkicJR39AYXdQEotuk3RaTQCSJR7QQhQwkH8JPbQ0LLMYV2p9BFA1eIoS4aEsAqoz7mcapOQmNIwq74W4LODiQY0HX/JtiLkPzm3r0Mrd1bIDIUNswhvlssvZ1vECLq4s3CfTY809w1CMBafo/Cf3ad5o5LAAsvCLvFefkYurtVUQRLL+H4QK+1d/oiuCyUMHJEtHdJI7guuV/lY/dUf4c5EVGqrtyu6J1+oDufAFap0gPFfh/obCjSq9XoucA3/0RXSJFeqqJ7vIIG4RMdNceICgUJIOa6//kD3UgFXMJps+yDG5YffKCTqwAzn5TQTEv4QBdcAZd8j1fI3aezEj7QQViUkKVQQmMpSdDefZlKOOXVYSAhrnOldJQ7hp2rbxo6V0MJl/YuIb+VMgn/AU8SldaNKBMpAAAAAElFTkSuQmCC;" parent="1" vertex="1">
                    <mxGeometry x="1190" y="190" width="84.86" height="80" as="geometry"/>
                </mxCell>
                <mxCell id="31" value="" style="endArrow=classic;html=1;strokeWidth=3;fontFamily=Times New Roman;fontSize=14;entryX=0;entryY=0.588;entryDx=0;entryDy=0;entryPerimeter=0;" parent="1" edge="1" target="30">
                    <mxGeometry relative="1" as="geometry">
                        <mxPoint x="1010" y="237.81" as="sourcePoint"/>
                        <mxPoint x="1170" y="237.81" as="targetPoint"/>
                    </mxGeometry>
                </mxCell>
                <mxCell id="32" value="&lt;b&gt;Merge Pull Request&lt;br&gt;&lt;/b&gt;" style="edgeLabel;resizable=0;html=1;align=center;verticalAlign=middle;fontFamily=Times New Roman;fontSize=14;" parent="31" connectable="0" vertex="1">
                    <mxGeometry relative="1" as="geometry"/>
                </mxCell>
                <mxCell id="41" value="" style="rounded=1;whiteSpace=wrap;html=1;fontFamily=Times New Roman;fontSize=14;" parent="1" vertex="1">
                    <mxGeometry x="630" y="392" width="720" height="130.12" as="geometry"/>
                </mxCell>
                <mxCell id="42" value="" style="sketch=0;aspect=fixed;html=1;points=[];align=center;image;fontSize=12;image=img/lib/mscae/Docker.svg;" parent="1" vertex="1">
                    <mxGeometry x="1214" y="414" width="121.95" height="100" as="geometry"/>
                </mxCell>
                <mxCell id="43" value="" style="shape=image;verticalLabelPosition=bottom;labelBackgroundColor=default;verticalAlign=top;aspect=fixed;imageAspect=0;image=data:image/png,iVBORw0KGgoAAAANSUhEUgAAAt4AAAE0CAYAAAAbozQmAAAK3WlDQ1BJQ0MgUHJvZmlsZQAASImVlwdUU2kWgP/30kNCSwhFSuhNkE4AKSG00KWDqIQkkFBiSEHFhsrgCI4oKiJYRnRURMFGERtiwTYo9j4gg4CyDhZsqNkHLGFm9uzu2Zvz537nvvvf8s7/n3MfAORwjlicA6sDkCuSSWKC/elJySl03O8AC7THfy4crlTMjI4OB4hM6r/Kh3sAGtO37cZi/fvz/yqaPL6UCwCUinA6T8rNRbgNWcNcsUQGAOowYjddIBOP8R2EqRKkQIQHxjhzgr+Ocfo4o9XHfeJiWAibAYAncTiSTABIDoidns/NROKQohF2EPGEIoQLEfbhCjg8hJG8YHpu7vwxHkLYCvEXA0CmIsxI/1PMzL/ET1fG53AylTzR17jgA4RScQ5n0f/5av635ObIJ3NYIIskkITEIFoHeX8PsueHKVmUHhk1yULeuP84C+Qh8ZPMlbJSJpnHCQhT7s2JDJ/kDGEQWxlHxo6bZL40MHaSJfNjlLkyJCzmJHMkU3nl2fFKu4DPVsYvEMQlTnK+MCFykqXZsWFTPiylXSKPUdbPFwX7T+UNUvaeK/1Tv0K2cq9MEBei7J0zVT9fxJyKKU1S1sbjBwRO+cQr/cUyf2UucU600p+fE6y0S/NjlXtlyOGc2hutfIdZnNDoSQbhIBjQQTzIATIgARwQBIRABPgy/kLZWDOs+eJFEmGmQEZnIjeOT2eLuPbT6U4OTsjJG7u/E0fiHW38XkK0q1O2VbUAeJ9QKBQnp2yhNwE4kgYAsXHKZjUHAPV+AC6f4sol+RM29NgfBhCBGqACXWAITIEVsANOwA14AT8QCEJBFIgDyWAu4AIByEUqXwCWgBWgGJSC9WAzqAI7wW6wHxwCR0EzOAXOgUvgGrgJ7oLHoBv0gVdgGHwAoxAE4SAyRIF0ISPIHLKFnCAG5AMFQuFQDJQMpUGZkAiSQ0ugVVApVA5VQbugWugIdAI6B12BuqCHUA80CL2FvsAomARTYQPYAp4BM2AmHAbHwXPgTDgPLoCL4HVwJVwDH4Sb4HPwNfgu3A2/gkdQAKWCoqGMUXYoBoqFikKloDJQEtQyVAmqAlWDqke1ojpQt1HdqCHUZzQWTUHT0XZoL3QIOh7NReehl6HXoqvQ+9FN6Avo2+ge9DD6O4aM0cfYYjwxbEwSJhOzAFOMqcDsxTRiLmLuYvowH7BYLA1riXXHhmCTsVnYxdi12O3YBmwbtgvbix3B4XC6OFucNy4Kx8HJcMW4rbiDuLO4W7g+3Ce8Ct4I74QPwqfgRfiV+Ar8AfwZ/C18P36UoE4wJ3gSogg8wiJCGWEPoZVwg9BHGCVqEC2J3sQ4YhZxBbGSWE+8SHxCfKeiomKi4qEyS0WoUqhSqXJY5bJKj8pnkibJhsQipZLkpHWkfaQ20kPSOzKZbEH2I6eQZeR15FryefIz8idViqq9KluVp7pctVq1SfWW6ms1gpq5GlNtrlqBWoXaMbUbakPqBHULdZY6R32ZerX6CfX76iMaFA1HjSiNXI21Ggc0rmgMaOI0LTQDNXmaRZq7Nc9r9lJQFFMKi8KlrKLsoVyk9FGxVEsqm5pFLaUeonZSh7U0tVy0ErQWalVrndbqpqFoFjQ2LYdWRjtKu0f7om2gzdTma6/Rrte+pf1RZ5qOnw5fp0SnQeeuzhddum6gbrbuBt1m3ad6aD0bvVl6C/R26F3UG5pGneY1jTutZNrRaY/0YX0b/Rj9xfq79a/rjxgYGgQbiA22Gpw3GDKkGfoZZhluMjxjOGhEMfIxEhptMjpr9JKuRWfSc+iV9Av0YWN94xBjufEu407jURNLk3iTlSYNJk9NiaYM0wzTTabtpsNmRmYRZkvM6swemRPMGeYC8y3mHeYfLSwtEi1WWzRbDFjqWLItCyzrLJ9Yka18rfKsaqzuWGOtGdbZ1tutb9rANq42Aptqmxu2sK2brdB2u23XdMx0j+mi6TXT79uR7Jh2+XZ1dj32NPtw+5X2zfavZ5jNSJmxYUbHjO8Org45DnscHjtqOoY6rnRsdXzrZOPEdap2uuNMdg5yXu7c4vzGxdaF77LD5YErxTXCdbVru+s3N3c3iVu926C7mXua+zb3+wwqI5qxlnHZA+Ph77Hc45THZ083T5nnUc8/vOy8sr0OeA3MtJzJn7lnZq+3iTfHe5d3tw/dJ83nZ59uX2Nfjm+N73M/Uz+e316/fqY1M4t5kPna38Ff4t/o/5HlyVrKagtABQQHlAR0BmoGxgdWBT4LMgnKDKoLGg52DV4c3BaCCQkL2RByn23A5rJr2cOh7qFLQy+EkcJiw6rCnofbhEvCWyPgiNCIjRFPIs0jRZHNUSCKHbUx6mm0ZXRe9MlZ2FnRs6pnvYhxjFkS0xFLiZ0XeyD2Q5x/XFnc43ireHl8e4JaQmpCbcLHxIDE8sTupBlJS5OuJeslC5NbUnApCSl7U0ZmB87ePLsv1TW1OPXeHMs5C+dcmas3N2fu6Xlq8zjzjqVh0hLTDqR95URxajgj6ez0benDXBZ3C/cVz4+3iTfI9+aX8/szvDPKMwYyvTM3Zg4KfAUVgiEhS1glfJMVkrUz62N2VPa+bEVOYk5DLj43LfeESFOULbow33D+wvldYltxsbg7zzNvc96wJEyyVwpJ50hbZFRkULout5L/IO/J98mvzv+0IGHBsYUaC0ULry+yWbRmUX9BUMEvi9GLuYvblxgvWbGkZylz6a5l0LL0Ze3LTZcXLe8rDC7cv4K4InvFrysdVpavfL8qcVVrkUFRYVHvD8E/1BWrFkuK76/2Wr3zR/SPwh871ziv2brmewmv5GqpQ2lF6de13LVXf3L8qfInxbqMdZ1lbmU71mPXi9bf2+C7YX+5RnlBee/GiI1Nm+ibSja93zxv85UKl4qdW4hb5Fu6K8MrW7aabV2/9WuVoOputX91wzb9bWu2fdzO235rh9+O+p0GO0t3fvlZ+PODXcG7mmosaip2Y3fn736xJ2FPxy+MX2r36u0t3fttn2hf9/6Y/Rdq3WtrD+gfKKuD6+R1gwdTD948FHCopd6uflcDraH0MDgsP/zySNqRe0fDjrYfYxyrP25+fFsjpbGkCWpa1DTcLGjubklu6ToReqK91au18aT9yX2njE9Vn9Y6XXaGeKbojOJswdmRNnHb0LnMc73t89ofn086f+fCrAudF8MuXr4UdOl8B7Pj7GXvy6eueF45cZVxtfma27Wm667XG391/bWx062z6Yb7jZabHjdbu2Z2nbnle+vc7YDbl+6w71y7G3m36178vQf3U+93P+A9GHiY8/DNo/xHo48Ln2CelDxVf1rxTP9ZzW/WvzV0u3Wf7gnouf489vnjXm7vq9+lv3/tK3pBflHRb9RfO+A0cGowaPDmy9kv+16JX40OFf9D4x/bXlu9Pv6H3x/Xh5OG+95I3ijern2n+27fe5f37SPRI88+5H4Y/VjySffT/s+Mzx1fEr/0jy74ivta+c36W+v3sO9PFLkKhZgj4YyPAihkwRkZALzdh8zHyQBQkBmCOHtivh4XaOKbYJzAf+KJGXxc3ACoR9TYaMRqA+AwsiwKAVDzA2BsLIrzA7Czs3L9S6QZzk4TsUjIdIn5pFC8MwAA1wrAN4lCMbpdofi2Byn2IQBteRNz/ZgYIt8YszUA2uP4nXeyMvA3mZj5/9Tj3zUYq8AF/F3/E3YAIACiQRIdAAAAimVYSWZNTQAqAAAACAAEARoABQAAAAEAAAA+ARsABQAAAAEAAABGASgAAwAAAAEAAgAAh2kABAAAAAEAAABOAAAAAAAAAJAAAAABAAAAkAAAAAEAA5KGAAcAAAASAAAAeKACAAQAAAABAAAC3qADAAQAAAABAAABNAAAAABBU0NJSQAAAFNjcmVlbnNob3QRoZlyAAAACXBIWXMAABYlAAAWJQFJUiTwAAAB1mlUWHRYTUw6Y29tLmFkb2JlLnhtcAAAAAAAPHg6eG1wbWV0YSB4bWxuczp4PSJhZG9iZTpuczptZXRhLyIgeDp4bXB0az0iWE1QIENvcmUgNS40LjAiPgogICA8cmRmOlJERiB4bWxuczpyZGY9Imh0dHA6Ly93d3cudzMub3JnLzE5OTkvMDIvMjItcmRmLXN5bnRheC1ucyMiPgogICAgICA8cmRmOkRlc2NyaXB0aW9uIHJkZjphYm91dD0iIgogICAgICAgICAgICB4bWxuczpleGlmPSJodHRwOi8vbnMuYWRvYmUuY29tL2V4aWYvMS4wLyI+CiAgICAgICAgIDxleGlmOlBpeGVsWERpbWVuc2lvbj43MzQ8L2V4aWY6UGl4ZWxYRGltZW5zaW9uPgogICAgICAgICA8ZXhpZjpVc2VyQ29tbWVudD5TY3JlZW5zaG90PC9leGlmOlVzZXJDb21tZW50PgogICAgICAgICA8ZXhpZjpQaXhlbFlEaW1lbnNpb24+MzA4PC9leGlmOlBpeGVsWURpbWVuc2lvbj4KICAgICAgPC9yZGY6RGVzY3JpcHRpb24+CiAgIDwvcmRmOlJERj4KPC94OnhtcG1ldGE+CjEVv5QAAAAcaURPVAAAAAIAAAAAAAAAmgAAACgAAACaAAAAmgAAFf4NQfTHAAAVyklEQVR4AezdT4wcV50H8PKfjHE8xvY6a+PVRhvZIgIJspKzF2cP5mJz2D2A97JIBk5IsNeEc8KZ5Bqi5bQYiRvsAVbCvsSXeA9rJEIk2ESJQFgYRxsc4/G/weNs/drpmZpydXdVd/Xrrp5PSZa7aqrrvfd5r6u/VV1dve30v//ho8xEgAABAgQIECBAgMBUBbYJ3lP1tXECBAgQIECAAAECPQHB20AgQIAAAQIECBAgkEBA8E6ArAgCBAgQIECAAAECgrcxQIAAAQIECBAgQCCBgOCdAFkRBAgQIECAAAECBARvY4AAAQIECBAgQIBAAgHBOwGyIggQIECAAAECBAgI3sYAAQIECBAgQIAAgQQCgncCZEUQIECAAAECBAgQELyNAQIECBAgQIAAAQIJBATvBMiKIECAAAECBAgQICB4GwMECBAgQIAAAQIEEggI3gmQFUGAAAECBAgQIEBA8DYGCBAgQIAAAQIECCQQELwTICuCAAECBAgQIECAgOBtDBAgQIAAAQIECBBIICB4J0BWBAECBAgQIECAAAHB2xggQIAAAQIECBAgkEBA8E6ArAgCBAgQIECAAAECgrcxQIAAAQIECBAgQCCBgOCdAFkRBAgQIECAAAECBARvY4AAAQIECBAgQIBAAgHBOwGyIggQIECAAAECBAgI3sYAAQIECBAgQIAAgQQCgncCZEUQIECAAAECBAgQELyNAQIECBAgQIAAAQIJBATvBMiKIECAAAECBAgQICB4GwMECBAgQIAAAQIEEggI3gmQFUGAAAECBAgQIEBA8DYGCBAgQIAAAQIECCQQELwTICuCAAECBAgQIECAgOBtDBAgQIAAAQIECBBIICB4J0BWBAECBAgQIECAAAHB2xggQIAAAQIECBAgkEBA8E6ArAgCBAgQIECAAAECgrcxQIAAAQIECBAgQCCBgOCdAFkRBAgQIECAAAECBARvY4AAAQIECBAgQIBAAgHBOwGyIggQIECAAAECBAgI3sYAAQIECBAgQIAAgQQCgncCZEUQIECAAAECBAgQELyNAQIECBAgQIAAAQIJBATvBMiKIECAAAECBAgQICB4GwMECBAgQIAAAQIEEggI3gmQFUGAAAECBAgQIEBA8DYGCBAgQIAAAQIECCQQELwTICuCAAECBAgQIECAgOBtDBAgQIAAAQIECBBIICB4J0BWBAECBAgQIECAAAHB2xggQIAAAQIECBAgkEBA8E6ArAgCBAgQIECAAAECgrcxQIAAAQIECBAgQCCBgOCdAFkRBAgQIECAAAECBARvY4AAAQIECBAgQIBAAgHBOwGyIggQIECAAAECBAgI3sYAAQIECBAgQIAAgQQCgncCZEUQIECAAAECBAgQELyNAQIECBAgQIAAAQIJBATvBMiKIECAAAECBAgQICB4GwMECBAgQIAAAQIEEggI3gmQFUGAAAECBAgQIEBA8DYGCBAgQIAAAQIECCQQELwTICuCAAECBAgQIECAgOBtDBAgQIAAAQIECBBIICB4J0BWBAECBAgQIECAAAHB2xggQIAAAQIECBAgkEBA8E6ArAgCBAgQIECAAAECgrcxQIAAAQIECBAgQCCBgOCdAFkRBAgQIECAAAECBARvY4AAAQIECBAgQIBAAgHBOwGyIggQIECAAAECBAgI3sYAAQIECBAgQIAAgQQCgncCZEUQIECAAAECBAgQELyNAQIECBAgQIAAAQIJBATvBMiKIECAAAECBAgQICB4GwMECBAgQIAAAQIEEggI3gmQFUGAAAECBAgQIEBA8DYGCBAgQIAAAQIECCQQELwTICuCAAECBAgQIECAgOBtDBAgQIAAAQIECBBIICB4J0BWBAECBAgQIECAAAHB2xggQIAAAQIECBAgkEBA8E6ArAgCBAgQIECAAAECgrcxQIAAAQIECBAgQCCBgOCdAFkRBAgQIECAAAECBARvY4AAAQIECBAgQIBAAgHBOwGyIggQIECAAAECBAgI3sYAAQIECBAgQIAAgQQCgncCZEUQIECAAAECBAgQELyNAQIECBAgQIAAAQIJBATvBMjTKuLw8o7s0N4drWz+V1dXW9mOjRAgQIAAAQIECFQLCN7VLp1Y+tVn92Znjy+3Utcvfv9qK9uxEQIECBAgQIAAgWoBwbvapRNLBe9OdJNKEiBAgAABAgR6AoJ3hweC4N3hzlN1AgQIECBAYMsJCN4d7nLBu8Odp+oECBAgQIDAlhMQvDvc5YJ3hztP1QkQIECAAIEtJyB4d7jLBe8Od56qEyBAgAABAltOQPDucJcL3h3uPFUnQIAAAQIEtpyA4N3hLhe8O9x5qk6AAAECBAhsOQHBu8NdLnh3uPNUnQABAgQIENhyAoJ3h7tc8O5w56k6AQIECBAgsOUEBO8Od7ng3eHOU3UCBAgQIEBgywkI3h3ucsG7w52n6gQIECBAgMCWExC8O9zlgneHO0/VCRAgQIAAgS0nIHh3uMsF7w53nqoTIECAAAECW05A8O5wlwveHe48VSdAgAABAgS2nIDg3eEuF7w73HmqToAAAQIECGw5AcF7y3W5BhMgQIAAAQIECMxCQPCehboyCRAgQIAAAQIEtpyA4L3lulyDCRAgQIAAAQIEZiEgeJfUTz+9Ozu0vLO0tPnsm1fvZW9eXV1/4tnje9cfT/Lgwju3s2s313qbeObIUvbMkV2TbG79uT/8xc31xx4QIECAAAECBAi0LyB4l0y/+88H8zC7VFrafPaHv1jJzl3eCLM//8aR5hupeMa3f/rBeqD35coKIIsIECBAgAABAnMqIHiXOkbwLoGYJUCAAAECBAgQaEVA8C4xCt4lELMECBAgQIAAAQKtCAjeJUbBuwQyR7OH9+5Yv759jqqlKgQIECBAgACBWgKCd4lJ8C6BzMlsfOn1myf29a6b/8lbt+akVqpBgAABAgQIEKgvIHiXrATvEsgczMaZ7u+d+etsz9K2Xm3ibjEvX/zQ2e856BtVIECAAAECBOoLCN4lK8G7BDIHs1V9cmv1o+y1Szey82/fmYMaqgIBAgQIECBAYLSA4F0yqgp5pVVqzbqdYC2mkSvFJSbPn9w/cL1zl1cy9yAfyOMPBAgQIECAwBwJCN6lzhC8SyAznF1e2p794CuH1i8xGVSVC/lZ77j0xESAAAECBAgQmGcBwbvUO4J3CWSGs9868cnsS5/bU6sGwnctJisRIECAAAECMxQQvEv4gncJZEaz8YXKH/zroUalC9+NuKxMgAABAgQIJBYQvEvggncJZEazX312b3b2+HLj0oXvxmSeQIAAAQIECCQSELxL0IJ3CWRGsz/++qdGXts9qGqvXfpz5l7fg3QsJ0CAAAECBGYlIHiX5AXvEsgMZp976hPZi6cOTFTyv/34/7J3P/jLRNvwZAIECBAgQIBAmwKCd0lT8C6BzGD2hS/sz059evdEJUfojvBtIkCAAAECBAjMi4DgXeoJwbsEMoPZSS4zKVa3fC/14t88Hixw7OBj2dGDO3srvPfBfZ8cDKbq1F/i9pzRr88c2ZW9efVeFn27svqgU21QWQIECHRdQPDueg8uWP0j9L165olWWhW/bvm1H70vXNTUjGD2/Ml9WVzqU5ze+O3d7JWLNzgWUTr2OPr0hfyHqPYsbVuv+bWVtezl1z/MQ/jq+jIPCExD4MDu7dnSjm1Z7JMd7E1DeLbbPLy8o1eB63ceZKtrH822Mh0oXfDuQCdtpSqO+qXKphbOetcXG/ZpT4Szb//0g/obs+bcCDxzZCmLvh00+T7EIBnLJxX4zKHHep+wLD3MZb3NRTiLg/n439RdgTiQin1L9HFx+v2NtexS3r8CeFFl82PBe7OHuRkLjHsbwUHVdtZ7kMzm5XW+0OpuMZvNujI36tKtS7+7m710/npXmqOeHRGIQPYPf7ursrara1n2X7++7ex3pU43Fp48tjt7cl/hiKpQ7Tio+lnev6Zqgc4G7zgzeurpx6tb1XBp8Uxe/Fri0fxyh0mnC2/fzs7nP2Xen4adceqvU+f/CD/9u3V0zaBO+4adda3z/Kp1Xsl/Tr7YF1XrbPVldQ54/vOtW9n38vFn6o5A3R+i+uL3r3anUWo69wJxNjR+dbh4prtc6Sv5mdHX3914jyz/3fz8CsR+ZdQNEP7nyr3sN++7s1hVL3Y2eNcJClUNrlpWfNNpK/iVL3H4+TeOVBXdeFkcJPSvyeyaQZ3GtuVfLOvCO3d617IWl3m8WaDOWHK5yWazLsyNusyk34biPrC/zP8ExhWoE8xi2/E+aeqeQOxX4t+wKb5DEj9oZ3pUQPDOTYpvOm0FP8H74U713OWbj466IUvaOkApFhGXm5z5jz8WF3lcEhC8SyALMit4L0hHdqwZdYJZNEnw7ljHflzdU/kVB/0vVA5qgeA9SCbLBO/cRvBOYzB4GG78ZRrBO7buC2QbxlWPBO8qle4vE7y734ddbIHg3cVeq19nwbu+VdWagneuIninMagagOVl0wre5y6v9O5dHLcr3JPfNm9517YsHhenuHZ+5d7DWyHF41v5PY77l/UU11vEx4L3IvZq1vs4OD7FGzUV94Gj1vV3AqMEBO9RQt3+u+A9Wf8J3rlf8U3HpSZZ79ZjseOcdCpfblNne9MK3nXKHrROhPAI4HELrEUN4oL3oN7v9nJnvLvdf12tveDd1Z6rV2/Bu57ToLUE71xG8E5jMGgQFpfPY/Au1i+uW4vr1hftSyOCd7GXF+ex4L04fdmllgjeXeqt5nUVvJubFZ8heOcagncag+LAG/S4rU8cBm2/reURwOPWjnEWfBEmwXsRevHRNgjej5pYMn0BwXv6xrMsQfCeTF/wzv0E7zQGdYbqS6cPZCf+bvNPltd53qzWWZSfUxe8ZzWCpluu4D1dX1uvFhC8q10WZangPVlPCt65n+CdxqDOUK0TAOtsJ+U6cbvCuL96/4eNUpbdVll13N3Huy3tdNsRvNNZK2lDQPDesFjER4L3ZL0qeOd+gncagzpDtW5QqLOtVOssws/SC96pRkvacuq+nor7wLQ1VNoiCgjei9irG20SvDcsxnkkeOdqxTedtq4xLt/Ro60vDS76L1fGIG7LapwXxDjPKff1ONuY9XME71n3wHTKF7yn42qrwwUE7+E+Xf+r4D1ZDwreuZ/gncag7lB94Qv7s1Of3l139ZmutwhnuwNQ8J7pMJpa4YL31GhteIiA4D0EZwH+JHhP1omCd+4neKcxqDtUn3vqE9mLpw7UXX2m6y3C2e4AFLxnOoymVrjgPTVaGx4iIHgPwVmAPwnek3Wi4J37Cd5pDJoM1XNfOZQdWt7R5CnJ112Us90BJ3gnHz5JChS8kzArpCQgeJdAFmxW8J6sQwXv3E/wTmPQZKiefnp39vzJ/U2eknzd71y47j7eydUV2ERA8G6iZd22BATvtiTnczuC92T90tngHcHs1NOPT9b6j58dX1jsT9868cns6MHH+rNj/3/h7dvZ+bfvrD8/vrTZxhQ/2tK/bV3XDJq2f57Pel/63d3spfPXmzZpbtd3xntuu2aiigneE/F58pgCgveYcB15muA9WUd1NnhP1mzPnneB2HF/Mz8IOtbCQVDbbV2kS0z6NoJ3X2Kx/he8F6s/u9KaaQfvA7u3Z39Zy7KV1QddIVmoegrek3Wn4D2Zn2e3KHB4747sufxXK7/8+T3Z4Tm+vrt4S8cWm19rU2EUb2qHl3dmf/83S+vP2bO0LYsDgv70yz+s5vMPsjfyM/PXbubvUCOmeQneD9+wd2WfytsZbe1Pxfat3HuQf+pzv/fJz6+urnbmzTcOIqN9e5a2D+y76Ks/5v+urdzP4geL6vRd36jq/yivzqdtxcvtqrbT1rLlvO1f+tyeXvv7fXo+/3TwQuHTwbbKqtpOf3wt79q26aA+xlrfuj++2uqDqnqUl4XL2WeXe3UKl/fy8f2Tt26tf7pZXr9qPrZx4qldvX3DsYM7s+Vd23urFdsWC/rti09Op/X6eei8sX+qqm8siy+nD5vi0+e/ykP2gcc/bkvF+8Jqvnu7fufhPi76cCXfD76Xt20WU9R3Oe+/eI1HnaIfV9c29suzqFOU2a/X0o5tvf3lpPVqO3g/uX9nFgdT4RavzahnzJeneI/7050H2fXba7nvg95rdh58y/UcNS94jxLy96kIxJvE0fzNIcJIL5DkIXKew3Yf4ZWLH266hKi/fJr/h0/s6OJuL+MYXVtZy97Mg3gEnAhzVdOsgnc/LMQBV7RvnCkCRAS3ugcZ45Qx7nNO5O36x7xd0bYIVE2n6Ls3fnu3929Q3w3b5jwF76hL3Cq0agxH/72cv7bantoYX9EH5//3Tnbhndvr4bzNesbrOw6OqsbHqP1NhOov5wcyYRvbGWeK10+E/DYPfiYJ3hG4oi0RFpc2jr0bNS3C+O8/vJ/95v3VXkBr9OQxVo6gePLYo/vnqEdclhh1mcUUlrHvKYfYqNflK/caHdgV699G8I7X5mcOPZZF6K4a+8XyBj3u9/OVG/dnZjyobsOWz0XwbvNa5WGN9bfZCsSbRNWb7mxrVb/0UW+C9bdUb80IbWfys//xJtbWFCHi3OWbj7zJpg7e/cBwOv+exrg73SqTCA9NzxRWbWfSZfHGFKZtjvcI3tF3TQJ4jJ1Zn/GON9g4mxsBcdgU31+JvmtjijLjzHq8ftocX+P0wbD2RD1f/ZcnBo6TOMMXn7D1v9fT31b0a4yvtvcN38m/t1Iuq19mk/+jXnXqVjzjHQEsnlMOiU3KrVo3DKNNTV43VdsZtmxUEP3Zr28nOQAo1/GfPvv4UM9x6zWqvVGPeK+pOpiLA6rP5oF7Gv38y3wfOatPO8r2w+bnInjHG0OdF+mwhvgbgWkJxI77pfN/muqOu1j3ONsT17dP8zURO8UIOnE2NaaUwfvs8b15ecvFJrf+OHb40b7U14BGnw06q9tWIyNERNvqBImozyyDd5xteyG/O1Gd8Btj8ms/en9ipgj4MZ7rlDluYfG6ee2//zzxGfDwGfWbBcXfCkixb2jjUroYd3X2X9G2OFt8Ind4ct+Yp7drdmJcmnDx3but7xPiJMKoH3y7cmMte/3djZst1KzyRKvFgczJo8M/RRy3XuME70GfCkzUyIonx/t1WEd/z+s0F8H71TNPjP0x2bzCqtdiCMTHhC+/fqP1nfUgnRShtFh2BIhXLt7oXVd/9vjwMBxBr3gHoOJ26jyO0PDi6QMDz+7V2UaTdWIHHJcv9A8umjy36bpx5jIOluINKdV07vJKfo3szaHFzSp4h8fzJ/c1vnxokmvNY3xFmfF/iinG12uXbkx06VmTA95U+4Y2DoDqBu8L79zpfa9nmgdJxbEw6SUWxW31H9dpa4yVtj7N6Zc76v869YpwGme9m05Ng3ccBMQnuONeOtS0ftPo56Z1GLb+/wMAAP//AiL8uAAAJ5RJREFU7Z1NzB1Xecev46/4Ix92qBOioCBHIJBCLIUusLtINnYXsAhBKiAloLaqlLAlZYvZEncLUbsiRmpBIkFVQKq9iTf2hlQyIAWoYgUlSoiBxMbOh9/YTud/3x53cj0fzzkzZ2aee38j2XPfe2fOec7vOTPzP888c2bDoX997YPZyMt//dNHR7aA6iHwYQJnL16Zff/UX2YnX37vwz9k+mvnlhtm3z60a3bfR7dkqqG+2DeKtr70p/dnBz5+Y/1GxS+/fH1t9s/P/blxm7ofD31y2+ybD9xa93PW75/99duzpwpf5lruuW1z0bZbZloPvcgnR06cm71x4Upl1epPT37htsrfyl/+7b+9Xv6z02f1oycKX+/YsiG6nFQ71L8e239LUp3RRi7scPx3787718W1qwu/tP/56Gdvmj1y/87GDXV8Xrx0ddD+9Y1n/jR76c/vN9rV9KP63Rjnsiabyr+9cv7K7FRxbl+70l3+WNv6w/++WDYh++ecdh0sjrfbd25sbIP67YmX3pvtL84HH7uledvGgjr8+NKfL89O/X6Ya3iMmRsQ3jG42HbZCUjIHP/dO7NjxcV0qGVM4RbTxlTh/dj+m2dfvHdHTFW9byvbv3PsrVmKOGoyRr6TsE0RmU3lxvz29toHs8ef+WOl+NbFdyjhfftNG2ePfe7m1gFcXdvOFBdJtSN2GXNQF2yVSP3Wc29G9y+L8A51DLnWAFvHTOpiFX2p5fex31vvXp397MV3OhdlbesqCu8tGzfMdm27oTPjLgXIzxoc9zHI6mJHeV+Ed5kGn1eSgC4wimyfLEbGdZHDXGCmINysbUsR3op8KjoyhSVVHNXZPiXfqW2KUi4uQwlvDawkIrsMQFLE3uPFoO6hkQd1gXlK/5qq8P7af5ztdC60itHAbqz1b86+P/vFq5c6VW9t66oJ705Qe955rbgh+PNikNV34CXVzNGF9+ZiRPTcP9yRaj/7QaCSgKKAuhAuLmeK7y4Wv71x4XLxu/5dv83iPrn+VnrJ01/d00ms5LKtqtxY4T0lURTaowHWd46/Ff5MXk9JdIdGVAnX3MJbUW4NrlRP6qJj9alT56PvMk0h0r3Y5roB0OJ24e8pCu/Y4zy0pby2itHyPmN9PnHmvdkr5y4nV29tK8I7DvH7hVhWlLrLYL5cY193OMplpn4eXXhv3bRh9p9/j/BOdSD7VRP4lyLvdch0kWor6r+V6P7uF3Z3ytvUrXmN4JVLFyL1QQCFdb0F8b/EXJC7iqLywEn1arnntk3FSfiG2R2F2NvTkl/Y1LqfFjnfyt9PXSQ2v//wX3W6IATfhYGgbJHP1C/2Fu1MWZTHrnz28qIyc6Wa9BHlVv7lkefPR0eilEf+7YO7yk2N/qx+VT52VIB4de1fuq2tvHvLkkt4h2Mm9K+dRb793v97BqHp3KDjTgO4rgEJ1dFUj4WNtpH4euX85fn5LUQrw7lOKQxbCv2gdAblG3/sVp0f4p8r6BoNtbYV4V3vdfW7F8+uzSSO1y5/MF+Xt9Z5ccfWdV9/as/m1vzy8r7lz33c4SiXl/oZ4Z1Kjv0mS0AH8cM/+MNk7ZNhqSkYEmzHihz0trQYnagOfHzrPN92/93ND01aQVmFt6LB33v4I9Zir20nv6ld87SflodaVYfEvQRYigjvMjBT21R/7CJ+en7g5MuXGoVm8N3BT26PEi+K5C8+DCxR0Lfw7ivKLXG6aK+FaZeBz/H/eXd27LfvtOYvq45DBX8NLlLEXNUgqKptfQpvDWLWj532/nXfnVvmx86B4twQ2qf9j75wsbPoVjutYrSKib7TgEjnutgBgMS3/u3dHTd47RINtbYV4X29t18tHnKVj2PvOOgcKQGu8/DmyOc2u97huL4V8d+MLrw3FXn3P/tHZjWJdx171BHQCe7oCxfqfh79+5RoXZdZViQilPbRVYBbhbfSZ9qeeF90gqLQuuiHqNbi701/p0ZeU/JYU4SSuKk/ah276KKuOrVuW6pmotB+fQrvR+6/qbCneRaONjtTo9yh3JSBj84Jz/7q7ej+pQv8Fz+zI0mAV6X+hDaEdUp/CvuGdZf+Fcroe20Vo4v1KsJ9+vVLM0Umuyw65z24d1uUKDv1+0vRQl82WtuK8P5/j8rPCiBpwNNl0d0OXU/vipg1RXc4dL0Z82HL0YW3oDOdYJeux75lAoqafu3fz0ZfYMtl5PysC3lsXndfAwldIA4f2n0twhXbTovwjhUSimodPv7mtVSZWJvC9uL62IGbZwc/YX+QU9HPI8/bUgJUjy7mT39lT6iyda2+mJK7XFVwG9e69Jm+hLciS12nTNTg8cmCd8oAJDDRIEuz5FgX9S9F1mMjp4vlp/SvHMdL2a4++1e53D4+W8VouS6JME0/lzL4LpcTPseKMvFcTNUKZTWtrW1FeK9TlJ/7nmXE6oPgR91RkQ1jLQjvschTbxYCdQIkS2UJhcY8cJjjwirxePjg7qQ84jYhEStMu0Y+q/C3CdTFfSxRybCPIsc6wVsW+a6PXNlyXar78WKu6sUccA0gnjr5l0rBon26Rrz7iHJ3uaMRGMQOWnP0ryceLGbpiRjcVaX/hPZoHdtfw745+lcou491rBBSezS1X99RSIlvzapkndIuJeptbSvCezY78+blpPQyS5+Mvcuh82Z4XsBSfp/bILz7pElZoxNISR8YyuhY4VCVOtCHrbJDYmxRwLWV3Sa8Y0SJRNHhYl7tHEvMg51tbQr2KeJrzVuXiKibVzuU12WtC/2+O7fOi1BOb1M0t4vw1r6KLqfks4f29RHlDmXFiNTYuxmhDss6pp8rsqY7cHVLTJtCGbn7V6iny9oqRlVHX2kHdfbqfPf5T283pZ2kCENrW1ddeA8RZda5av/d6+fGuv4Qvh/CnlDX4noSwvtokROa8oDUYmP4e7UJ5LzY9kE25iLb5eE/i606QUl8hwerLPs0idSYQYVu/ysa3Nct5SrbY8SRJeodU16uAVNVO9u+SxHe8uUjRR630jq6LH1Eucv1P/P1O0z9dWr9q+lYjjknBBZT6l/BpsW1VYxqP51X9C/nogcuH9jb/pC58n9/fDruDZPWtq6y8NbgSnc0cp7zQ/9Rzrf14VrZ1DXPPNQbs56E8I65hRvTOLZdHQIeokDWhw5zRoPLPcIqysI+TcI7Jvd2KOGgKf8sUf22AZuE6E++fnvA0Li2zmbRWEiPP1p9HF7Vru01yIh9OLZscl951eUyrXcxhjwPWK9buiOhPl+1xArvqfWvqjbpO6sYlSBTXnXfKSZVdn15305T1Ds2BcHa1lUW3kPOJKL0It3hsASVxppecBLC+/ChXZ1nXKg60PhudQjopDblmUysAmhI4aDeYRUP2rZJeFtnmhjST1bmbekAVtEnwZnyynOxzbVYGXzpB2/0EuXO5V/rNSJX/VX+UU6pdT73uhS4GOGttJ1HG9JWqmwc6zurGB1S+Pz1XVvnU9C1MYmNwFvbqr455JLTLuXNWwfnY6R0WO9w6Hqb8kBtVz9OQnjHnHy6Npj9l4+ADp4pz2Qi4tY+PqRwkF1WYaZt64S3NSI8hp+sA4umKLxV9FlSVsRxyMXqX10crRfSKvtzRLnL9VhmvlL/Gnr+fuvD0nXpJtbzgli0PahZ5jX2Z6vo0+vau04daG2rzlMP3bu9dfPYPG9rW1dVeKc8sNrqJMMGugtriXqPkW4yCeFtjSgZWLPJChLwcPvVKgAVeRwiD67cTawpGXXC2zov+Rgzzlhta+pDltziKUa75WOr8C73h5jPIWKU826TtQ1j9C/rTD516UxW4e0p2h36nfzWtsSmdbSV1/a7Jd0kNkKL8K6nrlSiH0XmzNeXFvdLrjsccVZUbz0J4W09sVY3gW9XmYCXC5IlYjeWeLPmZ9cJb6t4aIoq5+zDFuFc1zarsBr6ToWVV85zq469J4qHZHNPyWXtn5qX9w8Xiiv9wMvDxQt22iJrdXne1mNnjEFFF4xWMfrTXw/zwF1oizVFIiY6bW1rTJnB3i7rnHZZOcbePejS3sV9c93hWKwn5e9JCG8ZbhEmKQ1kn+Um4OH2q1W8NUVdc3rRal+dOLWkYoyRBhCYWWYkqRNGVuE61qAitLFubbW/bv+m7+XTvucqr6rPms5Rte+UvgsPsJZtsgrvKaYxldux+Dmn6FusK+Zvq2CMEclTbWtOu6wch76jsdgX9JBl2xzumtVE6SZDLpMR3tbb3UPCoa5pExhq9o+uFKziZ8yLa5eosCWNpk60d2Vr2d8qbqqEkTXaWrWvxbbc21j7XqodQ4hvS/9KtX/I/aoesOzSN4e0PbaunKIv1pby9tb0A4R3mdr1n63Ce4z86bK1Vjtj/F0uP/XzZIS3JSqV2kj2Wz4CuuBP/YHKQN0qfqouzKGM3GuLuKkTz5YZTXRiy5kH3MTHyr9KPFuE0ZjR/KZ26zdr29vKafpdObHf+Mmfsj2bYOmbTfZN5beqgbWlf8n+qr45lXZV2TFV4Z3DrhxlVjGN/S6nXVMVtIuMcgy0FutI+XsywpsHLFPct7r71M0SMEUi1r495sXVIm7qhLclTcyD8K4a+FiEUR2XKfRFXXzl29yLUnW+9dybWcS3pW/mbl8f5acK77Ge/ejS5pyib2p2rVJbA3svwnuqvpmM8LbmmQbHs15dAlMWOlVesYg37YfwrqLX/Tur+EwVRlPuj9a2d6dcP91k17JXXXhPuX/V+XaqgieHXTnKrOMa831OuyzCO3Z2mJi2Wbe1zuc9dErMZIS3QPLqeGt3Wt3tdFtfLynJPZNCn4R1ArREHb0Kb0t+uIeId9UDkpZB0zKmmmgWjWeKf4cP7ja9/TMcL5pZ5MiJc+HPXtbLIryrpgq19C+Edy/daF5IDjGao8w+WpzTLovwHuOhxUVun9qzeaZ0k7blx6eHeXtqsGNSwntZnl4PcFn3T8BTiklovVV4Vwm/UEbutSVPu24uYoswqts3d7tUfpdUH4swUh1jDppUf91i7Xthf00R+OTz5+YvS9J3uhNpfTtjKKPvqe8s/SvUPdV13YPglv6F8O7PqznEaI4y+2hxTrtylt1H20MZU7VzUsLb+rKLAJX1ahEYU7x1Ia2D3xLxHnNqxC552hZhNKZ4sIgb+bdKPFvPSVVpKl36TF/7Wvue6pNgPvrCxevytO+5bfO8/7bNVV22uc8BsmW6ynLdU/uswczjNQ+fWvrmmMdOKsupCp4cduUoM5V7eb+cduUsu9yGrp91/t67e1NrMSs7q0kgY7ltHbZlvToE9ICRxM3Qb3Xsi7BF2I41sLCKyzoxZb1TVXWrvS++TeVYovl1D7DpAjP1QVNT2632tw0crOWUbelrIGkRp+V6p/JZgvlM8dBp1WAm2GhpG8I70Oq+ziEYrWUO/bIgq10potNatq5pY6aFWlJixni75qQi3jqsmFaw+8ll2UpQDq2EgWZO8LpYnl/QwyiaInHoxSqc68SZda7rOuGes73Wh7brUgH09rOffP32VhOnKo50gbQMHKqi/YuNtqbshP36Om6t9Y7Rv0JbU9cI74up6JL2swrGGDFqLXNoEWq1K6atAbrOqwc/sS38Wbs+cea92SvnLtf+nvsHXZva7tSN8RDo5IS3bmsqQsUCgUCgr8hZKG+MtfV2eZ24zWWzhOX3vvSR2e07N7ZWUSfOrMfsGOLUImzU8Ka3hlpf7lU1HWEr1Mwb9Cm8Zap1kBWa1Yf4tg6exhq4hramrC39c4zjJqUt5X1yir5yPbGfc9hlfYBvaBH64D3bZnfd0n5eTxHeWzZumP3dvh2t+F89f2X2/Evvtm6XYwPr4EDHl/4NuUxOeKvx1gvdkKCoaxwCfT+oNU4r7IJl6Ius5cIvZm12WVPEhhxYaFDx9Ff3tEY81L6mB1utdwTGShWS/XVL38Jb9cTelexjjm/LHSPZ5i3qbTn+2o49tXtqSw6B20cbc9g1VYFnSbMQ0xThrf0s0WRtN3SKjerUYs3vPvX7S4PfTZ+k8LbeWlzHy//LSmCKQiaVtTVqp/KHivDHCNM2QWMVY0OKCIuoEW89/PZoQ4qPNaKvsqYW9c4hvNVOq7+1rZau4ts6+PEW9bb00SGPmXVvdf8/h8DtbtX6m1xlW9sSI0at0d+hp9d75P6dbc2c/x7T1nKBVmGr/qt/Qy5Wn8imMQYGkxTeMYJgSGdS13AEvD9MWUXKmm4i8ZDzFdzBticeuHWmqIhlaXsw0vqApupqSuuw2GLZJmYmDstdFWvEtavAtLQtZptcwlvnaOWO772tfcaAYO/Jl9+bDyrD3zHrmMHPEP0rxvambRHe/nO85d8v79s529ye1TGYyNPx+dC925u63rXfUoW39eU0Sjd7tpgxacjFOvAbejAUGExSeMs4ywkpNIL1chFYRtEtD8WIUwk4pT/kWmJyda13HqziVG3KmXISO3C3RKljzkc5XiKT2g9yCW/ZkyK+u7CxTFsZOLXdoQnbjb229Csi3v15ySrIYsWoNZ/6N2ffn/3i1Uv9NaimJGs0WrvHtrVcpXXAMVS7ZduubTfMPv9p26BDvpBtQy+TFd6xF8+hwVFfHgIaHWtmD6/TBrZRiRGnXURKkx2xqVwWYar6Ysrt46G7qjbqvPHdL+yeKUJqWayDitjzUS7fSTgc+uT2+YttLl66Or+F2xRNyim8xVcpVLEv2NGF/ugLFyzu+dA21raEnXKJb4ka2aI+dvq1tZlmxNFAOWVBeC9HxFt9Yf/d7W9IXLuyPl/+2pUPUrqLaR+dq6zRbhXYRXjrrZB6uNSyDPFwqVJMJLrbZjKRvZpGUOfOnL6o4zJZ4S2DLSeluobxvT8CucTYlEjERL1ld9+pC4/cf1NxXNly/1S/VZhqWy0xD0bL30+dOj87VrxmvI9FF79vH9plmqEl1GcdVGj72PORxLfSHvoYROpi+s0HbpnfNQm2h3VTH7GK1boZa0IdTWtxVzTacrEL5aSK4piot+pKrSfYWV5rkKH0LDFdXFLTWyx9ioj3Iu30v+W7Kv8tlhgrRmNyinOmN8gOpQ8q6mtdYttaLjdG5GvQ8fMX3+nlfFi2ofx5/903FgNiW/rbGLnnwdZJC+/YKFNoFGt/BFZBdAevWHO9w/bK+T5Seo13+D5mLdHw2OdurhRudeXIJ7F3H6xCr1ynog4/rHhjYnmbts9KnZGIiRF/KZHXmIGFbJbvJMqU35y6WAYUdfnTVn90Ed5ql7WeMoOUdKOYh5RDXX0MgDRgluhu6l8p7UF4L0fEW33Nmm6ibV8qXginOyV9L9aZTMr1dhHeKicmrUXXFE0vqMFHn4sGHJ8tou9W0T1mtFvtnrTwloExuajansUfgVUS3fJOyu157acRum7Ra21dVNejRZTb+hBludzUaKF1BopyXeoDz/zq7flry2MixGqXxItlHvJyfanPEUgEp7xnQD47cuJc1FvcYn1XFb23CuKuwltsY1KNtH3qcW8Rqyq/vKT2L/FTfVq3LfKxxHfMYmlLSrkxNuTYVrwszLqKvljbc9ql49XyUplgs3KL5ds+Uh0kPPcXg8OPGebtDvWHdVcfqG7pNMvDpapTke8Xitzq1PSsYHdYK0D7wD03RkX5x8rtDjZPXnjL0NgoU2gc6+kTSBVA029Zs4WxKSfl0hRFVYRT+aVvr63n+YbfJQwVldNaolTrlCU2xWSxji7HrNp2sogG6VXDamt45bBOsJpFY0ex/pviIiOGTRHIRZvC36mCL+zfJRgQfKc2yo7yxUcXbg0g7vvo1qJtit7E+a4q4iqhofSMtqUP4a06LEKybIsYPP7MH6/5uPxb0+fYlJNyWWIvwSP2WpcX+WDv7s2zfXeuC8cYH8i3sW+etfBCeJc91O1zTuEty2Ijzur/4VyX2jLlWOucscUwq0pVHV2Ft8qMHXRonz4GHppZReklMW0f86U+arcWF8JbJ7+UKNN6E/l/qgRWVXQHf1guumHbIdd9+EUnYonvFGGcu62pkfyyXbHzWJf3zfV5CsJbbYtl05SjXsdKgzCJ75jpDOvK6ut7HTcaRMQslnMAwjuGaPO2uYW3cqv18LM1+husfaV4w6Nerf5q8c8SAVf/v+vWjfPBeUw+d6ivvO5DeKs86xs8y3Xrs9JufnN2zZx+ogi7jvtP79kSfX3RQOdnRZ65hfGinX3+7UJ4q8GWE1SfYCgrLwFdTL5z7K2sD1rkbUE/pceKlH5qrS+lD9EdSteAWeJoSuK7D9Ed2hebqx/2y7WuiloPHfEObYtlI/EdO33m1PqXcnYPF+e0mMVyXUN4xxBt3ja38Fbt6peWGU7qLNWdk7feuToXhxKI+rxr+w1FVHfD/J+CGl3FdrnuvoS3yozJcy/boM/K+9bdzXmbi89rlz+Yf1a7Q/t3bd+YlE6j8pXXfex375gFvvbJtbgR3gLQ5fZ1LoCUG0/A8sKS+FL97jEV8d2n6A7emJI46lN0q32KOj3x4C3zW52hvWOt62bVGEt4p0Sk69rQxHRK/UsDh3LqUJPd4TeE9/I8XBl8qnXMNHvl/cb43Kfwlki2Tuc3dFvHeDV8XRtdCe8pnWTrgPJ9PQHd5ulz+rj6mvz9YrkA52xVzjsQOm4VAd1T5C+PseTud2MPnJoGsmMJb/k5VnynRL1T6um7D3bpX5bjnoh3fx4bIuIdrJUA7TMyHcrte92n8JZtqek2fberXN6QL/Ap11v32ZXwViO6PJRWB4Hv8xM4W9w+023Y2IhQfsumU4P6dtuUZTms1Yk35YUmMbaMFR1WFF+zieTud10euIzhWN5Wgk9t08OCdcuYwls2xQZLqtJl6tpW/l7967EDN0fNKlHeP/Vz1/6F8F7OiLf6k/qkxHdsvndqX0zdr2/hLTsU+dZMI7GzTaW2oW4/pZfo4VXlz09pcSe8BS9lurIpQV81W3JGU5eNpfL36l7S0XdbNRh6suP84LE2SaBKbAyR961I8NGO84PHtE8iU74b4oE/Cb7Dx99snQ1E/enpr+xpbUaq4G0tuNggRnx3tWPIwatm/nnqZLcXJFkGbCm54xa/5NxmyMhyTDuGtmtMAaqBueU8m0N4B59YeYft+1wrZ/zES+9N8jkyl8Jbzhn79m6fHWRZy9KBr0hq0yutl7XtXdslAaEBZo70DPlFPskd5a5jkDs6qYGe8oVzR7nr2icx9fBndmTxnQZL8lvM2z6PfnVPoy1DCDvLncq+7FD/0ttZHyr8kGNR/5IPtO66aFDSNmNXSu57V7u67q8Bn2VO65yir6oNmn7ugb03Vv107TtFSX90ut9IfOqMH9eMivgQorxK+ZDwbVr0IKdeMJVzUV94cO+2QSP/Z968PPvFK5dGn72kjqtb4a0GIb7r3Dr+97ooxb4wZHyrp2eBXkpysJiequ0EarFcok2C7dniRTUxL6mxlJ2yjU7Iin4fKOZhtURm2upQBPLYb9/pRRC11WX5Xb774r07e4mA63g6XjyRHyO4g43qO3VzeWsQljKPdig7Zt30gh3ZoekQ+xwsqX9pajfV28cAVv1Lx06fNopf0x1c3dmInaIwxie5ttXg56F7tzcWP8Z8ypb0j1x2SQhrAJoz71u2K/VMM4OoHqW6NC06r/QxgGyqQ7+J+33F3Ph7d9te595WXt3vOo/o5ThTSy1ZtNe18FZjEN+LLh3/7yFyhsdv5bAWSERIoK6/2GOrWaiGE6tOxn0Lhj4J6IK0b/62u61moaqBxGldOF67VFxsLk1iMFHFJAjAmNuuuoAoN1FtUxvDS4Sqyrd8J/H52P5bPtRvxG/o5y7GsiO1f+m4We9ja1n7V5X41h2AI8+fz1qvpe+kbtPW3zWfct+vDrfY2hR9VrRYduUKTCj1RFF3paP1mf8swS2xuXiOb5reT+eYoee0ziXA1RZd6xbbb+kPY2zjXngLGtMMjtF1rq9THX/MW/zXW7S83+gEFnKJ7yhE+e03bZpdvHT12olHtxC7irUx6ekWfIiC77tz69wUnVTVRi1DRGnmFWX4T0I8XHTVzp1bb5j7LbRNUc4cF/7QZ1SnWI7FMLRffj1dDCzGsGOxf5WPHV3Ex7iAi4sGn1r0UpExbOi7u0vk7iveqlh+wDAMKsc8P1XZpUGABlpDDQbKx2M418XwF8cXixfPvHruSu35QkJfAyC1t7zo+nBqxGBFGIBoEHJXwmvu1Ra1Pww2hvJZmWGXz0shvNWBx3iivQv4Zdo3Je90mdpPWyAAAQhAoJ6ABhUSWxrgTEkkyS4telnLmHYpLWTLpg3XBuS7ixfFaLAibRMG4eGlOrIzlqPYh5fQqJxQZr3Hhv1FfhADtVd2Vi0S2mp3+QVDVdt5+G4phHcAbXlCPGzLujsBHQhjPqTXvQWUAAEIQAACEIAABIYjsFTCW9h0W+Xwod3XblMPh3K1aupjKq3VIkZrIQABCEAAAhBYdQJLJ7zlUOXvDTWf7qp1IAluTaU1Zn7eqjGnvRCAAAQgAAEILAeBpRTewTWaqkzpJykPLoQyWK8/xKCUkqlMQ4dPIAABCEAAAhCAgEcCSy285RAl7Q/1JkCPHaDJ5qnN+9xkK79BAAIQgAAEIACBqRNYeuEdHKB5XCXAiX4HIvVrpZNoWiX9Y4EABCAAAQhAAAIQ6IfAyghv4dJUNQc+vnX+trw+3mTWjwumUYrmDj5WvBlPr4+d2lRD0yCEFRCAAAQgAAEIQKAbgZUS3mVUeoOacsBXWYBLbP/y9Uvz11Avw8sayv7lMwQgAAEIQAACEJgagZUV3sERmn7w4c/smO0vXse9CoteQxxeg8zMJKvgcdoIAQhAAAIQgMBUCKy88A6OCGkoygVfJhGu1zGfKV4PfbpYk7MdvM0aAhCAAAQgAAEIDE8A4V3BPIjw++7cOttXRMS9pKNoFhKljJx+bW2+luhmgQAEIAABCEAAAhCYBgGEt8EPEuL33bll/mIepabo35iLcrP1AKSE9RsXLs/+cOFKEdVe/25Mu6gbAhCAAAQgAAEIQKCeAMK7nk3jLxLje2/bNNu59Ya5IN+5ZUPx9+b5PuG3xgIqflTEWiJai9JDLq59MP+sKPbFS1dnbxd/8xDkHAn/QQACEIAABCAAAXcEEN7uXIbBEIAABCAAAQhAAAIeCSC8PXoNmyEAAQhAAAIQgAAE3BFAeLtzGQZDAAIQgAAEIAABCHgkgPD26DVshgAEIAABCEAAAhBwRwDh7c5lGAwBCEAAAhCAAAQg4JEAwtuj17AZAhCAAAQgAAEIQMAdAYS3O5dhMAQgAAEIQAACEICARwIIb49ew2YIQAACEIAABCAAAXcEEN7uXIbBEIAABCAAAQhAAAIeCSC8PXoNmyEAAQhAAAIQgAAE3BFAeLtzGQZDAAIQgAAEIAABCHgkgPD26DVshgAEIAABCEAAAhBwRwDh7c5lGAwBCEAAAhCAAAQg4JEAwtuj17AZAhCAAAQgAAEIQMAdAYS3O5dhMAQgAAEIQAACEICARwIIb49ew2YIQAACEIAABCAAAXcEEN7uXIbBEIAABCAAAQhAAAIeCSC8PXoNmyEAAQhAAAIQgAAE3BFAeLtzGQZDAAIQgAAEIAABCHgkgPD26DVshgAEIAABCEAAAhBwRwDh7c5lGAwBCEAAAhCAAAQg4JEAwtuj17AZAhCAAAQgAAEIQMAdAYS3O5dhMAQgAAEIQAACEICARwIIb49ew2YIQAACEIAABCAAAXcEEN7uXIbBEIAABCAAAQhAAAIeCSC8PXoNmyEAAQhAAAIQgAAE3BFAeLtzGQZDAAIQgAAEIAABCHgkgPD26DVshgAEIAABCEAAAhBwRwDh7c5lGAwBCEAAAhCAAAQg4JEAwtuj17AZAhCAAAQgAAEIQMAdAYS3O5dhMAQgAAEIQAACEICARwIIb49ew2YIQAACEIAABCAAAXcEEN7uXIbBEIAABCAAAQhAAAIeCSC8PXoNmyEAAQhAAAIQgAAE3BFAeLtzGQZDAAIQgAAEIAABCHgkgPD26DVshgAEIAABCEAAAhBwRwDh7c5lGAwBCEAAAhCAAAQg4JEAwtuj17AZAhCAAAQgAAEIQMAdAYS3O5dhMAQgAAEIQAACEICARwIIb49ew2YIQAACEIAABCAAAXcEEN7uXIbBEIAABCAAAQhAAAIeCSC8PXoNmyEAAQhAAAIQgAAE3BFAeLtzGQZDAAIQgAAEIAABCHgkgPD26DVshgAEIAABCEAAAhBwRwDh7c5lGAwBCEAAAhCAAAQg4JEAwtuj17AZAhCAAAQgAAEIQMAdAYS3O5dhMAQgAAEIQAACEICARwIIb49ew2YIQAACEIAABCAAAXcEEN7uXIbBEIAABCAAAQhAAAIeCSC8PXoNmyEAAQhAAAIQgAAE3BFAeLtzGQZDAAIQgAAEIAABCHgkgPD26DVshgAEIAABCEAAAhBwRwDh7c5lGAwBCEAAAhCAAAQg4JEAwtuj17AZAhCAAAQgAAEIQMAdAYS3O5dhMAQgAAEIQAACEICARwIIb49ew2YIQAACEIAABCAAAXcEEN7uXIbBEIAABCAAAQhAAAIeCSC8PXoNmyEAAQhAAAIQgAAE3BFAeLtzGQZDAAIQgAAEIAABCHgkgPD26DVshgAEIAABCEAAAhBwRwDh7c5lGAwBCEAAAhCAAAQg4JEAwtuj17AZAhCAAAQgAAEIQMAdAYS3O5dhMAQgAAEIQAACEICARwIIb49ew2YIQAACEIAABCAAAXcEEN7uXIbBEIAABCAAAQhAAAIeCSC8PXoNmyEAAQhAAAIQgAAE3BFAeLtzGQZDAAIQgAAEIAABCHgkgPD26DVshgAEIAABCEAAAhBwRwDh7c5lGAwBCEAAAhCAAAQg4JEAwtuj17AZAhCAAAQgAAEIQMAdAYS3O5dhMAQgAAEIQAACEICARwIIb49ew2YIQAACEIAABCAAAXcEEN7uXIbBEIAABCAAAQhAAAIeCSC8PXoNmyEAAQhAAAIQgAAE3BFAeLtzGQZDAAIQgAAEIAABCHgkgPD26DVshgAEIAABCEAAAhBwRwDh7c5lGAwBCEAAAhCAAAQg4JEAwtuj17AZAhCAAAQgAAEIQMAdAYS3O5dhMAQgAAEIQAACEICARwIIb49ew2YIQAACEIAABCAAAXcEEN7uXIbBEIAABCAAAQhAAAIeCSC8PXoNmyEAAQhAAAIQgAAE3BFAeLtzGQZDAAIQgAAEIAABCHgkgPD26DVshgAEIAABCEAAAhBwRwDh7c5lGAwBCEAAAhCAAAQg4JEAwtuj17AZAhCAAAQgAAEIQMAdAYS3O5dhMAQgAAEIQAACEICARwIIb49ew2YIQAACEIAABCAAAXcEEN7uXIbBEIAABCAAAQhAAAIeCSC8PXoNmyEAAQhAAAIQgAAE3BFAeLtzGQZDAAIQgAAEIAABCHgkgPD26DVshgAEIAABCEAAAhBwRwDh7c5lGAwBCEAAAhCAAAQg4JEAwtuj17AZAhCAAAQgAAEIQMAdgf8Fq0On7LYD3oMAAAAASUVORK5CYII=;" parent="1" vertex="1">
                    <mxGeometry x="975.5" y="429" width="166.82" height="70" as="geometry"/>
                </mxCell>
                <mxCell id="44" value="" style="dashed=0;outlineConnect=0;html=1;align=center;labelPosition=center;verticalLabelPosition=bottom;verticalAlign=top;shape=mxgraph.weblogos.github" parent="1" vertex="1">
                    <mxGeometry x="690" y="419.56" width="75" height="75" as="geometry"/>
                </mxCell>
                <mxCell id="47" value="" style="endArrow=classic;html=1;strokeWidth=3;fontFamily=Times New Roman;fontSize=14;" parent="1" edge="1">
                    <mxGeometry relative="1" as="geometry">
                        <mxPoint x="1214" y="456.81" as="sourcePoint"/>
                        <mxPoint x="1144" y="456.56" as="targetPoint"/>
                    </mxGeometry>
                </mxCell>
                <mxCell id="48" value="&lt;b&gt;Update docker image&amp;nbsp;&lt;/b&gt;" style="endArrow=classic;html=1;strokeWidth=3;fontFamily=Times New Roman;fontSize=14;" parent="1" target="44" edge="1">
                    <mxGeometry x="-0.0039" relative="1" as="geometry">
                        <mxPoint x="967.75" y="456.80999999999995" as="sourcePoint"/>
                        <mxPoint x="820" y="457" as="targetPoint"/>
                        <Array as="points"/>
                        <mxPoint as="offset"/>
                    </mxGeometry>
                </mxCell>
                <mxCell id="49" value="&lt;font style=&quot;font-size: 14px;&quot; face=&quot;Times New Roman&quot;&gt;&lt;b&gt;Helm repository&lt;br&gt;&lt;/b&gt;&lt;/font&gt;" style="text;html=1;align=center;verticalAlign=middle;resizable=0;points=[];autosize=1;strokeColor=none;fillColor=none;" parent="1" vertex="1">
                    <mxGeometry x="667.5" y="392" width="120" height="30" as="geometry"/>
                </mxCell>
                <mxCell id="50" value="" style="shape=image;verticalLabelPosition=bottom;labelBackgroundColor=default;verticalAlign=top;aspect=fixed;imageAspect=0;image=data:image/png,iVBORw0KGgoAAAANSUhEUgAAAJQAAACUCAMAAABC4vDmAAAAdVBMVEX///8giP95uP8AgP8Aff8Agv/I3f8Yhv8NhP81kf8Ae/+fw//p8v/h7P8AeP90tv/2+v94r//w9v9Dlf9us//T5P+kx/9doP+51P/b6f+pyv/C2f+wzv8vjf/O4f+JuP9Pmv+SxP+Tvf9opv+Fvv+eyv+r0f8QQk6QAAAOq0lEQVR4nO1c6ZKiOhSWDiEBQVlEQERosfv9H/GGnAQCCYszTc+fe6pmqlpZPs6+4eFgpuBxr7Oksiq3iZ556s8c9ovkP7MKI0wIsdg/ihFJ2nv4LxHFeXJieKwxEfsUOf8MU55gahkJ47b4J5CcxJvySCF6ioLfx1TTHhKhlGJBgzCxlf8ypNRF/c2RGz3vThoEaXl7tpUtRUq86Fc1vqzEnSm2okJ1AqFfZuxDIJT9on/IpTbZzdXwdVATAQtXv4YqF4pDreuMfIJI2CVNfkndHcEn1C6wwUmw4FX8G5hSS2AySW6gMBOo2l/Q9lDoOC3Xjnx6oHf1/qAiwYDH+qE1uA28e8xxABNS+eTPqU2EQNn3FiAIT9GnIGJ/V7n5vg0c/dwX083mz972H5SUpy12k5oODyrw7btaYJyA5fW+oJTRhuLIdOecKzveVdfvHIN96z+ohkQBJaYADALc1VlxDDTrFcjB1kAEt7r7fpDJY/w4BScujOEORw6KIiJD3V07J+u+I81+oGpgzPDBkXKNuVV9XpBMFT7lWkWMdvATFPKnxtEUVHQIGk8qPJ3aP/BwOSb9BRU86tlK9i1BMTOTzGJZy9iDP/HYifwwOZ3tEVfJDQZQBz86EQkrUs8qMT9rL/vjak3VOyqgmKE10mlhpCh84HL72yvb47EYqzozAnWIn0jm50pqEDYdB70NAfyPiF8dq1Y/BsW4kknvYB/7D9vuIFt3Fj9DrpazTEEdwjuW6Xn/Wa0x+CeJM4Gqpa8GiskwAmZ5vQ1y89st/AEH1FBiAMWMlKcGQ3ZzRYaDfox45MMrnGJRmx83gOJGux8oLj41YBhAFaJgGMxtX/Fx66Oqv9ZAxbUHXoHQ/rOI7qnocHU1ik1BlUNkHpIrHjHtvboduhzGoILWlmHZG9KbkGer3l5pQs5jn1pcqqDC4xCTG8WZpZAZ7hVmHjy0WuaA7DS2TPXoUT0r52ftVmb5CQ8gSsnXg/JlR6NLisdMaXc1PhHFSKaDyi2p4Fr/LuR6hvcKfcwtQtU3+HTuF0mbYSE5SuupmHilOJL5D1MIhcPgcm5QOPQJS6IlKGB7NJt+/oME3Y2hPVf0nc/uzpWhh3bnZ9h79jigzlO8ZdYXfsQzts4hs9i3xdHymwzNHd8VosOJsV8FRdmOat5RyrWKuv2T+5VHCMFebSwMHA6ZVLtiklqFFcV12qytzcYVQzWI9u6aBUJaW4J+DN0NvFvN11MJT++tu+jY5Vzd00f1JJqeaC2V9Bs4cLekRaUwA4NDzWLf3hHZHtqxC6SQb4mmdbXAAznksvfKzTVUYppAPD2scApvsvr7jSa6oECmc9TK9IwyvPVNhVXF+0mKZeJLiGc9y0G5wvQeIZntkd1qdTOFNR5GoNht2vp5PT6jLKlQHw2xpUeeoLxfb/fyXScROjk7Ly/WQmiZoKEzTCjGCGNKhmkt0YZc6TVDJxsxsk+kvW+duYV5XZ08m51oe17ydBaBxXU/AdWJ4moSW5zWUmbz7CmqaMtAPqwTjNXrkuS2CMuvLZsYEBFsNxNvkWYeJdOjvNWBfHikaHoHYrvLqhpfEzLZTej+zh7jhwmfxMjURU/HqGiQ6TStNtEovbZi7MDUyvZoUt+nZ8SZ3V+P5c4se+6f3tNyeoXy/nlJJ29lVQRXq41BGNCQqD7mRazfRATm7lq0SrKoZTZKpfEuDE6vkk2Mzcy+o7aperFQg2WPyYEiZwZ8LP0/supcMDHI697nz/nXm8BE7ewuPHT4ODZigE3sFV4BqLl6UyQLlBxHyalfiyIImc8rhYbj8dAuLOUzVsvdCQBFEmNG/AR9MuQUjhCrZ9J2X0hOHzWFNVyRJhtAmRvApRg5mzZMwkak8AZbgjKJGBX6LjK6xexXgCKV4cYw3p1RnLCZlmySYHg5Nz7PwbKsJe8rQJm06s4vTudMLIQKzZuKFurq+TUDMMzF5F+CstBUgEJAeNbXQQ2msYq3j+ZMoCPeyrFOSyskEhTBE50FjTIoW1iIhUKoVqsJq3h3lbg6f/0URBbQJYMfgWIMH98/mptgtchzuUn7IIjxw/gwDtdnhGXlCSBw5WY+HiigJgkL3PE4PYHvwVCY0UWGLjv4TX0afmdxgECDPoB+z7yvktYH2u4OGHwo8jUjAXuHaWbOG3Hjwp53LPS5ZYmHySzUVAvlmwAl1wGQ3d7Twvf9GDYGrMnhsfBB0Hzz+WmnwFeoMTa57xAvKcgPBq7zSgWgkrLPkClikZcRH3vJdmQpV08aucMEf/JGKklU4t+fQPl9GfjkXgZKBUQjNyeg3EPhDlkTX5CFvhF3vL7r2afO7cQSk+yRiNpWyxYxV6njyT5xde7js/BdKTSdV0Ed4sjTt1ER1zFu+t0IRe569RsX7cwCq9WBCjooiPnenk9SqMV0HWEO1OHwyBCePDO3ltDlnsfLswmf5kFx44PWL8qEPik+/g1QrBjKWFXTlTWysuHiEw2I/jMl7kjxDQR/0w7UA2KgzO+ViQ+Ib74dp4I68JqoTSq+dD2Y9kNloNpzO0CYIyPqPvE6Nxa2anKvxkIYZMx3nSegumv5fsCIK6d4mnwoS0YpMLgE7xEoBC6BIxCJBPBJjc9ro00dlKAYnCf4+FLKYMSnQ8mVDY/Oa9U5VN+ApqrjCrmD1TKADaAOXGZUxLAcJDgpFcAsx2IA8xfxWPJqxKdDwGU8VxcsguKBjcqw6XQSROP7x/zieJz0QkCWwT1sUaf3YwcPm5HJfO4yDwqGAb3NlOzak7z4CWo3CY88DesfhhkonWz1xMD0hU7TPCjY4SOWvHpcTvgtpDCNFmJ40ucuaTnJGKDxelrIh+dBiW3H2SeCPRh9ESaGqGnNZSaQpNNmHtMSqAPENFtLqYDquVxb5PauWWcKMpnGvAkqF2HFhCqMRKNdl4JM7hOTgMRK9fL+xRKooe2uZa6+6FF6JsApeDVa6QXNDfhEyWKfahGUCCPdHHd0kfgmmhUzDywSRK3tk8oxLFluJiyDCizZkmiufdFSHOWbG7iZWYyr5QFW1N8+zPsB+mllkLEMqkfVtaaq9ni9PtsK962g+YJEoiIU06y+Xo91QvvJMF0bZKyAOgRDRkowQkjp/XnZwgLhc3hbSJwn/ybrA581UJ22G19GomR5QudU2HSahZr1Hu46KFZI6S1b4iVr08luT1NP3mfGsG+DYobc4BG7mJ5smbkFbYXUfJkidwukjaBYohzhk427Riy2T+S5dccyuDYnD/HzkHfKtDbvX4HqKC6PEaNr+eZKQHGr2Wn1/Y3387aD+kX6H9RW+h/UVnoHlB8URfD+okIYd62ld2wWauv1hZb41jZuxShpoplXkowUfH++Xq8P9u9z+0y16EARsoLo3nioixn8H7btdpuzCvKPy+X8AXS+XF4bcYku4tIh4d2dvrOM8WroY5f++rh8jOny8b3paWZamwOl/dsi44gcrTx12fNoDGvLJmulrfSP6U5VLm0eJsafUy5JOm9gVqS9kTGium+4YNsjlcXicj/yRPOpQvBSVOny8eL/S2Z9rqKC2nDu9V6Z1lLsRo4fMwpylhCLzH22ceJLTOcPZnRxGIZxUL7O8sPXGqpgshY/oqcYGtqN6gbiqyvLFbO6xwLT+ZKrM5LiW3DrvMor2B+0TIeJJTD9neVQLA4RYuTwp8D0Of1WSvX8vQLKgWGKIeP24V1I7Bo02gH9x6YeYQkMuRjuHH6J79ayK5jbYd1UoWdJzY0k2Aqfdqf4s4j7mgd+OfDqtZIXizaINkaGNwK1/pMkCFBEl/vXeVFCwKsZyAO1QhKx8ePZs2H5GE27CYHQp7nTQtCrywooYAkfDigEL98tjVUTPsSarvF+wz3n/X0KrFqLU2IEjl1VUtA8XNqpTGHRYszKEIS3VIJx45xnpaRIrAtUitpW01cnNRJvV47ttgA1X9oZEoesZgyy4W27udAs2F+Xb9r46bApFssZMnB4Mo36XmdD+OLyW43MoVwsIqipuRAfIBv4unZxv1ZYJgwHcBTacvboSlw2K7b1veEYTtGwx+OdrKbNoPPMv2ts5rspdEuO3Wa25YFYec+17/MWZZ7fP1bUvCOHc/NrHVT4VOZ9RDSTYDzOpIQtRGiXycceC84UC18Lgxgh4pJlAiLmXpZjW8GPWtX0jtJMW1fjTihsKT4efJez5Iq6sUdEAS53ZSJX8NWkaRmUD9C3gGJ5L53kvTCEbGg3KouoV3Z5Q2dtOQKzBFCQYRRKVreSm8RvgGJ0y7DKLljeiTCO/LIi3biaxaTkEWQUHAGMo0Drg3c59doK6hAWzwThbkBq9W6KAaEuMwBu+0znq4paiGt3oy4YfDONkjq1HG7f0CnlpPJ2hDQZfFDN34WApRank7DY1wp5buNJ60vzPC/BBy3vW4L1/cFeecALQgpyyFmYk9VLkFlEvNkGv13gjWT1o35KI5iwLLYRjwo3JUGGt6gv8WtTnmcieKFzMfYlhtgHKd556Y6PjbHPQDDLwAtXhxSeTHIQzoZFhYEjNjh0neDXShZeDwNGaXtQ5XlF1Z3ztnhspLXXnmrzKpq/4j/F9+c/wiTeMSJzU3HYGjGsPULqOSeeEOqvy5/+skAtth+NjJYTSt0844/ZCqvHtF6OzpF49Wk6weckNpaNKfxDVJxfhmVBUaeu5DZLVMBQhqDp9CJokcifjfHkJiq/15THzofA9CeOU1Iuf0DBOgb9Y4dBJPbmiTXz7o2s2y+fyvsWcSrbHmbJbqbbSeYLVvvMu5+uuz8zuflN7LkHDvuuy+Xz2yn82C+c75fsol3eDMUayR9mY/kwFj/z1w84F7pmklcMVk8yrflLPnXkzLw3QpC75P5kJ0Oj8+Un3oSLI2pYcsPW2pta6csE6/L5Q79zVzanMbcIPmXrMT7OL5Ne7PlyXn6f5y0qIpf/GimvcxBuZt4z1cj57Bvp58vl4+uHf+PAf9yjzK0sN6vzxxs/0+On+VeXFby+8mL6JP8BhzDU1IVltyUAAAAASUVORK5CYII=;" parent="1" vertex="1">
                    <mxGeometry x="1430" y="185" width="90" height="90" as="geometry"/>
                </mxCell>
                <mxCell id="51" value="" style="endArrow=classic;html=1;strokeWidth=3;fontFamily=Times New Roman;fontSize=14;entryX=0;entryY=0.5;entryDx=0;entryDy=0;" parent="1" target="50" edge="1">
                    <mxGeometry relative="1" as="geometry">
                        <mxPoint x="1260" y="230" as="sourcePoint"/>
                        <mxPoint x="1300" y="331.5" as="targetPoint"/>
                    </mxGeometry>
                </mxCell>
                <mxCell id="52" value="&lt;b&gt;Trigger pipeline&lt;br&gt;&lt;/b&gt;" style="edgeLabel;resizable=0;html=1;align=center;verticalAlign=middle;fontFamily=Times New Roman;fontSize=14;" parent="51" connectable="0" vertex="1">
                    <mxGeometry relative="1" as="geometry"/>
                </mxCell>
                <mxCell id="53" value="" style="endArrow=classic;html=1;strokeWidth=3;fontFamily=Times New Roman;fontSize=14;entryX=1;entryY=0.5;entryDx=0;entryDy=0;" parent="1" target="41" edge="1">
                    <mxGeometry relative="1" as="geometry">
                        <mxPoint x="1480" y="280" as="sourcePoint"/>
                        <mxPoint x="1390" y="470" as="targetPoint"/>
                        <Array as="points">
                            <mxPoint x="1480" y="460"/>
                        </Array>
                    </mxGeometry>
                </mxCell>
                <mxCell id="54" value="&lt;b&gt;&lt;br&gt;&lt;/b&gt;" style="edgeLabel;resizable=0;html=1;align=center;verticalAlign=middle;fontFamily=Times New Roman;fontSize=14;" parent="53" connectable="0" vertex="1">
                    <mxGeometry relative="1" as="geometry"/>
                </mxCell>
                <mxCell id="55" value="" style="endArrow=classic;html=1;strokeWidth=3;fontFamily=Times New Roman;fontSize=14;" parent="1" edge="1">
                    <mxGeometry relative="1" as="geometry">
                        <mxPoint x="460" y="463.5" as="sourcePoint"/>
                        <mxPoint x="620" y="463.5" as="targetPoint"/>
                    </mxGeometry>
                </mxCell>
                <mxCell id="56" value="&lt;b&gt;Pull changes&lt;br&gt;&lt;/b&gt;" style="edgeLabel;resizable=0;html=1;align=center;verticalAlign=middle;fontFamily=Times New Roman;fontSize=14;" parent="55" connectable="0" vertex="1">
                    <mxGeometry relative="1" as="geometry"/>
                </mxCell>
                <mxCell id="57" value="" style="sketch=0;aspect=fixed;html=1;points=[];align=center;image;fontSize=12;image=img/lib/mscae/Kubernetes.svg;fontFamily=Times New Roman;" parent="1" vertex="1">
                    <mxGeometry x="352" y="630" width="135.42" height="130" as="geometry"/>
                </mxCell>
                <mxCell id="58" value="" style="endArrow=classic;html=1;strokeWidth=3;fontFamily=Times New Roman;fontSize=14;entryX=0.502;entryY=0;entryDx=0;entryDy=0;entryPerimeter=0;" parent="1" target="57" edge="1">
                    <mxGeometry relative="1" as="geometry">
                        <mxPoint x="420" y="530" as="sourcePoint"/>
                        <mxPoint x="440" y="610" as="targetPoint"/>
                    </mxGeometry>
                </mxCell>
                <mxCell id="59" value="&lt;b&gt;Update k8s cluster&lt;br&gt;&lt;/b&gt;" style="edgeLabel;resizable=0;html=1;align=center;verticalAlign=middle;fontFamily=Times New Roman;fontSize=14;" parent="58" connectable="0" vertex="1">
                    <mxGeometry relative="1" as="geometry"/>
                </mxCell>
            </root>
        </mxGraphModel>
    </diagram>
</mxfile>